<svg width="30" height="30" viewBox="0 0 30 30" fill="none" xmlns="http://www.w3.org/2000/svg">
<path d="M0.348948 10.9202C0.227948 10.8002 0.348948 10.5602 0.469948 10.4402L19.4669 0.840233C19.5879 0.720233 19.8299 0.840233 19.9509 0.960233L29.2679 19.0802C29.3889 19.2002 29.2679 19.4402 29.1469 19.5602L9.90795 28.9202C9.78695 29.0402 9.54495 28.9202 9.42395 28.8002L0.348948 10.9202Z" fill="#E4EBF5"/>
<path opacity="0.5" d="M0.348948 11.0401C0.227948 10.9201 0.348948 10.6801 0.469948 10.5601H0.590948H15.1109C15.2319 10.5601 15.3529 10.6801 15.4739 10.8001L24.5489 28.8001C24.6699 28.9201 24.5489 29.1601 24.4279 29.2801H24.3069H9.78695C9.66595 29.2801 9.54495 29.1601 9.42395 29.0401L0.348948 11.0401Z" fill="#002DCD"/>
</svg>
