<svg width="105" height="30" viewBox="0 0 105 30" fill="none" xmlns="http://www.w3.org/2000/svg">
<path d="M47.6599 23.28V10.68H49.1119V21.9602H54.6779V23.28H47.6599ZM68.5929 16.9202C68.7139 18.6002 68.1089 20.2801 67.0199 21.6001C65.9309 22.8001 64.3579 23.4 62.7849 23.28C61.2119 23.4 59.6389 22.8001 58.4289 21.6001C57.4609 20.5201 56.8559 18.8401 56.8559 16.8001C56.8559 14.7601 57.3399 13.2001 58.4289 12.0001C59.5179 10.8001 61.0909 10.2002 62.7849 10.3202C64.3579 10.2002 65.9309 10.9201 67.0199 12.0001C68.1089 13.5601 68.7139 15.2402 68.5929 16.9202ZM58.5499 16.9202C58.4289 18.2402 58.7919 19.6802 59.6389 20.7602C60.4859 21.7202 61.5749 22.2 62.7849 22.08C63.9949 22.2 65.2049 21.7202 65.9309 20.7602C66.7779 19.6802 67.1409 18.2402 67.0199 16.9202C67.1409 15.6002 66.7779 14.16 65.9309 13.08C65.2049 12.12 63.9949 11.6402 62.7849 11.7602C61.5749 11.6402 60.3649 12.12 59.6389 13.08C58.7919 14.28 58.4289 15.6002 58.5499 16.9202ZM72.1019 10.68H75.7319C77.4259 10.68 78.6359 10.9201 79.3619 11.4001C80.0879 11.8801 80.5719 12.8401 80.4509 13.8001C80.4509 14.5201 80.2089 15.1201 79.8459 15.6001C79.3619 16.0801 78.7569 16.4402 78.0309 16.5602V16.68C79.9669 17.04 80.9349 18 80.9349 19.68C80.9349 20.64 80.5719 21.6002 79.7249 22.3202C78.7569 23.0402 77.6679 23.28 76.5789 23.28H72.2229V10.68H72.1019ZM73.5539 16.08H75.9739C76.6999 16.2 77.5469 15.9601 78.2729 15.6001C78.7569 15.2401 78.9989 14.6402 78.9989 13.9202C78.9989 13.3202 78.7569 12.7202 78.2729 12.3602C77.5469 12.0002 76.6999 11.88 75.8529 11.88H73.6749V16.08H73.5539ZM73.5539 17.28V21.9602H76.2159C77.0629 21.9602 77.7889 21.8402 78.5149 21.3602C79.1199 20.8802 79.3619 20.1602 79.2409 19.5602C79.2409 18.8402 78.9989 18.24 78.3939 17.88C77.6679 17.52 76.8209 17.28 75.9739 17.28H73.5539ZM84.3229 10.68H87.9529C89.6469 10.68 90.8569 10.9201 91.5829 11.4001C92.3089 11.8801 92.7929 12.8401 92.6719 13.8001C92.6719 14.5201 92.4299 15.1201 92.0669 15.6001C91.5829 16.0801 90.9779 16.4402 90.2519 16.5602V16.68C92.1879 17.04 93.1559 18 93.1559 19.68C93.1559 20.64 92.7929 21.6002 91.9459 22.3202C90.9779 23.0402 89.8889 23.28 88.7999 23.28H84.4439V10.68H84.3229ZM85.7749 16.08H88.1949C88.9209 16.2 89.7679 15.9601 90.4939 15.6001C90.9779 15.2401 91.2199 14.6402 91.2199 13.9202C91.2199 13.3202 90.9779 12.7202 90.4939 12.3602C89.7679 12.0002 88.9209 11.88 88.0739 11.88H85.8959V16.08H85.7749ZM85.7749 17.28V21.9602H88.4369C89.2839 21.9602 90.0099 21.8402 90.7359 21.3602C91.3409 20.8802 91.5829 20.1602 91.4619 19.5602C91.4619 18.8402 91.2199 18.24 90.6149 17.88C89.8889 17.52 89.0419 17.28 88.1949 17.28H85.7749ZM99.8109 16.9202L103.199 10.68H104.772L100.537 18.3602V23.28H99.0849V18.48L94.8499 10.68H96.4229L99.8109 16.9202Z" fill="#255198"/>
<path d="M44.756 16.9205C44.756 18.9605 44.272 20.6405 43.183 21.7205C41.973 22.9205 40.4 23.5204 38.706 23.4004C37.012 23.5204 35.439 22.9205 34.229 21.7205C33.14 20.6405 32.656 18.9605 32.656 16.9205C32.656 14.8805 33.14 13.2005 34.229 12.1205C35.439 10.9205 37.012 10.3204 38.706 10.4404C40.4 10.3204 41.973 10.9205 43.183 12.1205C44.272 13.3205 44.756 14.8805 44.756 16.9205ZM35.56 16.9205C35.439 18.0005 35.802 19.2004 36.407 20.0404C37.012 20.7604 37.859 21.1205 38.827 21.1205C41.005 21.1205 42.094 19.6805 42.094 16.9205C42.094 14.1605 41.005 12.7205 38.948 12.7205C37.98 12.6005 37.133 13.0804 36.528 13.8004C35.681 14.7604 35.439 15.8405 35.56 16.9205Z" fill="#255198"/>
<path d="M0.348948 10.9202C0.227948 10.8002 0.348948 10.5602 0.469948 10.4402L19.4669 0.840233C19.5879 0.720233 19.8299 0.840233 19.9509 0.960233L29.2679 19.0802C29.3889 19.2002 29.2679 19.4402 29.1469 19.5602L9.90795 28.9202C9.78695 29.0402 9.54495 28.9202 9.42395 28.8002L0.348948 10.9202Z" fill="#E4EBF5"/>
<path opacity="0.5" d="M0.348948 11.0401C0.227948 10.9201 0.348948 10.6801 0.469948 10.5601H0.590948H15.1109C15.2319 10.5601 15.3529 10.6801 15.4739 10.8001L24.5489 28.8001C24.6699 28.9201 24.5489 29.1601 24.4279 29.2801H24.3069H9.78695C9.66595 29.2801 9.54495 29.1601 9.42395 29.0401L0.348948 11.0401Z" fill="#002DCD"/>
</svg>
