<svg width="15" height="15" viewBox="0 0 15 15" fill="none" xmlns="http://www.w3.org/2000/svg">
<path d="M12.8125 3.75C11.1812 4.1875 9.26875 4.375 7.5 4.375C5.73125 4.375 3.81875 4.1875 2.1875 3.75L1.875 5C3.0375 5.3125 4.375 5.51875 5.625 5.625V13.75H6.875V10H8.125V13.75H9.375V5.625C10.625 5.51875 11.9625 5.3125 13.125 5L12.8125 3.75ZM7.5 3.75C8.1875 3.75 8.75 3.1875 8.75 2.5C8.75 1.8125 8.1875 1.25 7.5 1.25C6.8125 1.25 6.25 1.8125 6.25 2.5C6.25 3.1875 6.8125 3.75 7.5 3.75Z" fill="#6590E2"/>
</svg>
