<svg width="17" height="17" viewBox="0 0 17 17" fill="none" xmlns="http://www.w3.org/2000/svg">
<path d="M14.6362 0.748828C14.6362 0.333984 14.2987 0 13.8874 0C13.4725 0 13.1386 0.3375 13.1386 0.748828V1.72266H12.1647C11.7499 1.72266 11.4159 2.06016 11.4159 2.47148C11.4159 2.88633 11.7534 3.22031 12.1647 3.22031H13.1386V4.19414C13.1386 4.60898 13.476 4.94297 13.8874 4.94297C14.3022 4.94297 14.6362 4.60547 14.6362 4.19414V3.22031H15.61C16.0249 3.22031 16.3589 2.88281 16.3589 2.47148C16.3589 2.05664 16.0214 1.72266 15.61 1.72266H14.6362V0.748828Z" fill="#758AF8"/>
<path d="M9.1343 3.22382C10.8394 3.24843 12.2386 4.66523 12.2386 6.37382C12.2386 8.09999 10.8148 9.52382 9.0886 9.52382C8.57532 9.52382 8.08665 9.39726 7.65422 9.17226C6.9968 8.83124 6.46946 8.26171 6.18118 7.57265C6.16008 7.52343 6.13899 7.4707 6.12141 7.42148C6.00188 7.09101 5.9386 6.73945 5.9386 6.37031C5.9386 4.57031 7.36243 3.22031 9.0886 3.22031C9.10266 3.22382 9.11672 3.22382 9.1343 3.22382Z" fill="#758AF8"/>
<path d="M4.8875 7.1543C3.78359 6.66563 3.01367 5.5582 3.01367 4.275C3.01367 2.53477 4.42344 1.125 6.16367 1.125C7.08125 1.125 7.90742 1.51875 8.48398 2.14453C6.43437 2.44687 4.81367 4.25391 4.81367 6.37383C4.81367 6.6375 4.83828 6.90117 4.8875 7.1543Z" fill="#758AF8"/>
<path d="M2.26128 13.9465C3.11206 12.041 4.72573 10.568 6.70854 9.90702C5.93159 9.37617 5.33042 8.60273 5.02807 7.70273C2.35268 8.24413 0.338228 10.4695 0.0112751 13.1977C-0.062553 13.6477 0.236275 13.9465 0.612447 13.9465H2.26128Z" fill="#758AF8"/>
<path d="M6.69096 11.1129C5.33041 11.6648 4.20541 12.6703 3.50581 13.9465C3.13315 14.6285 2.88354 15.3879 2.78862 16.1965C2.71479 16.6465 3.01362 16.9453 3.38979 16.9453H14.791C15.1671 16.9453 15.466 16.5691 15.3921 16.1965C15.016 13.0465 12.316 10.5715 9.09213 10.5715C8.5683 10.5715 8.04096 10.6453 7.59096 10.7965C7.52065 10.8141 7.46088 10.8387 7.40815 10.8703C7.15854 10.9406 6.92299 11.018 6.69096 11.1129Z" fill="#758AF8"/>
</svg>
