<svg width="15" height="15" viewBox="0 0 15 15" fill="none" xmlns="http://www.w3.org/2000/svg">
<path d="M10.625 12.0125H3.125V4.375H7.5V3.125H3.125C2.4375 3.125 1.875 3.6875 1.875 4.375V11.875C1.875 12.5625 2.4375 13.125 3.125 13.125H10.625C11.3125 13.125 11.875 12.5625 11.875 11.875V7.5H10.625V12.0125Z" fill="#7D8599"/>
<path d="M11.875 1.25H10.625V3.125H8.75C8.75625 3.13125 8.75 4.375 8.75 4.375H10.625V6.24375C10.6313 6.25 11.875 6.24375 11.875 6.24375V4.375H13.75V3.125H11.875V1.25Z" fill="#7D8599"/>
<path d="M9.375 5.625H4.375V6.875H9.375V5.625Z" fill="#7D8599"/>
<path d="M4.375 7.5V8.75H9.375V7.5H7.5H4.375Z" fill="#7D8599"/>
<path d="M9.375 9.375H4.375V10.625H9.375V9.375Z" fill="#7D8599"/>
</svg>
