<svg width="15" height="15" viewBox="0 0 15 15" fill="none" xmlns="http://www.w3.org/2000/svg">
<path d="M6.5625 7.03125C8.37468 7.03125 9.84375 5.56218 9.84375 3.75C9.84375 1.93782 8.37468 0.46875 6.5625 0.46875C4.75032 0.46875 3.28125 1.93782 3.28125 3.75C3.28125 5.56218 4.75032 7.03125 6.5625 7.03125Z" fill="#ADBBD6"/>
<path d="M6.5625 7.96875C4.94691 7.97061 3.39802 8.61323 2.25562 9.75562C1.11323 10.898 0.470611 12.4469 0.46875 14.0625C0.46875 14.1868 0.518136 14.306 0.606044 14.394C0.693951 14.4819 0.81318 14.5312 0.9375 14.5312H12.1875C12.3118 14.5312 12.431 14.4819 12.519 14.394C12.6069 14.306 12.6562 14.1868 12.6562 14.0625C12.6544 12.4469 12.0118 10.898 10.8694 9.75562C9.72698 8.61323 8.17809 7.97061 6.5625 7.96875Z" fill="#ADBBD6"/>
<path d="M14.0625 6.5625H12.6562V5.15625C12.6562 5.03193 12.6069 4.9127 12.519 4.82479C12.431 4.73689 12.3118 4.6875 12.1875 4.6875C12.0632 4.6875 11.944 4.73689 11.856 4.82479C11.7681 4.9127 11.7188 5.03193 11.7188 5.15625V6.5625H10.3125C10.1882 6.5625 10.069 6.61189 9.98104 6.69979C9.89314 6.7877 9.84375 6.90693 9.84375 7.03125C9.84375 7.15557 9.89314 7.2748 9.98104 7.36271C10.069 7.45061 10.1882 7.5 10.3125 7.5H11.7188V8.90625C11.7188 9.03057 11.7681 9.1498 11.856 9.23771C11.944 9.32561 12.0632 9.375 12.1875 9.375C12.3118 9.375 12.431 9.32561 12.519 9.23771C12.6069 9.1498 12.6562 9.03057 12.6562 8.90625V7.5H14.0625C14.1868 7.5 14.306 7.45061 14.394 7.36271C14.4819 7.2748 14.5312 7.15557 14.5312 7.03125C14.5312 6.90693 14.4819 6.7877 14.394 6.69979C14.306 6.61189 14.1868 6.5625 14.0625 6.5625Z" fill="#ADBBD6"/>
</svg>
