<svg width="21" height="21" viewBox="0 0 21 21" fill="none" xmlns="http://www.w3.org/2000/svg">
<path d="M17.5 0.875V3.5H20.125V5.25H17.5V7.875H15.75V5.25H13.125V3.5H15.75V0.875H17.5ZM10.5 11.375C11.4625 11.375 12.25 10.5875 12.25 9.625C12.25 8.6625 11.4625 7.875 10.5 7.875C9.5375 7.875 8.75 8.6625 8.75 9.625C8.75 10.5875 9.5375 11.375 10.5 11.375ZM12.25 2.84375V6.125H14.875V8.75H17.43C17.4738 9.09125 17.5 9.44125 17.5 9.8C17.5 12.705 15.1637 16.1438 10.5 20.125C5.83625 16.1438 3.5 12.705 3.5 9.8C3.5 5.4425 6.825 2.625 10.5 2.625C11.095 2.625 11.6812 2.695 12.25 2.84375Z" fill="#758AF8"/>
</svg>
