<svg width="12" height="12" viewBox="0 0 12 12" fill="none" xmlns="http://www.w3.org/2000/svg">
<path d="M5.25 5.625C6.69975 5.625 7.875 4.44975 7.875 3C7.875 1.55025 6.69975 0.375 5.25 0.375C3.80025 0.375 2.625 1.55025 2.625 3C2.625 4.44975 3.80025 5.625 5.25 5.625Z" fill="#6590E2"/>
<path d="M5.25 6.375C3.95753 6.37649 2.71842 6.89058 1.8045 7.8045C0.890581 8.71842 0.376489 9.95753 0.375 11.25C0.375 11.3495 0.414509 11.4448 0.484835 11.5152C0.555161 11.5855 0.650544 11.625 0.75 11.625H9.75C9.84946 11.625 9.94484 11.5855 10.0152 11.5152C10.0855 11.4448 10.125 11.3495 10.125 11.25C10.1235 9.95753 9.60942 8.71842 8.6955 7.8045C7.78158 6.89058 6.54247 6.37649 5.25 6.375Z" fill="#6590E2"/>
<path d="M11.25 5.25H10.125V4.125C10.125 4.02554 10.0855 3.93016 10.0152 3.85984C9.94484 3.78951 9.84946 3.75 9.75 3.75C9.65054 3.75 9.55516 3.78951 9.48483 3.85984C9.41451 3.93016 9.375 4.02554 9.375 4.125V5.25H8.25C8.15054 5.25 8.05516 5.28951 7.98483 5.35984C7.91451 5.43016 7.875 5.52554 7.875 5.625C7.875 5.72446 7.91451 5.81984 7.98483 5.89016C8.05516 5.96049 8.15054 6 8.25 6H9.375V7.125C9.375 7.22446 9.41451 7.31984 9.48483 7.39017C9.55516 7.46049 9.65054 7.5 9.75 7.5C9.84946 7.5 9.94484 7.46049 10.0152 7.39017C10.0855 7.31984 10.125 7.22446 10.125 7.125V6H11.25C11.3495 6 11.4448 5.96049 11.5152 5.89016C11.5855 5.81984 11.625 5.72446 11.625 5.625C11.625 5.52554 11.5855 5.43016 11.5152 5.35984C11.4448 5.28951 11.3495 5.25 11.25 5.25Z" fill="#6590E2"/>
</svg>
