<svg width="15" height="15" viewBox="0 0 15 15" fill="none" xmlns="http://www.w3.org/2000/svg">
<path d="M14.1938 11.25H14.0625V10.2972C14.0625 9.86212 13.8896 9.44482 13.582 9.13714C13.2743 8.82947 12.857 8.65662 12.4219 8.65662C11.9868 8.65662 11.5695 8.82947 11.2618 9.13714C10.9541 9.44482 10.7812 9.86212 10.7812 10.2972V11.25H10.65C10.4363 11.2503 10.2314 11.3353 10.0802 11.4865C9.9291 11.6376 9.84406 11.8425 9.84375 12.0562V13.507C9.84406 13.9029 10.0015 14.2824 10.2814 14.5624C10.5613 14.8423 10.9409 14.9997 11.3367 15H13.507C13.9029 14.9997 14.2825 14.8423 14.5624 14.5624C14.8423 14.2824 14.9997 13.9029 15 13.507V12.0562C14.9997 11.8425 14.9146 11.6376 14.7635 11.4865C14.6124 11.3353 14.4075 11.2503 14.1938 11.25ZM11.25 10.2972C11.25 9.98644 11.3735 9.68837 11.5932 9.4686C11.813 9.24883 12.1111 9.12537 12.4219 9.12537C12.7327 9.12537 13.0307 9.24883 13.2505 9.4686C13.4703 9.68837 13.5938 9.98644 13.5938 10.2972V11.25H11.25V10.2972ZM14.5312 13.507C14.5309 13.7786 14.4229 14.0389 14.2309 14.2309C14.0389 14.4229 13.7786 14.5309 13.507 14.5312H11.3367C11.0652 14.5309 10.8048 14.4229 10.6128 14.2309C10.4208 14.0389 10.3128 13.7786 10.3125 13.507V12.0562C10.3125 11.9667 10.3481 11.8809 10.4114 11.8176C10.4746 11.7543 10.5605 11.7187 10.65 11.7187H14.1938C14.2833 11.7187 14.3691 11.7543 14.4324 11.8176C14.4957 11.8809 14.5312 11.9667 14.5312 12.0562V13.507Z" fill="black"/>
<path d="M12.4219 12.0797C12.2658 12.0794 12.1146 12.134 11.9946 12.2339C11.8747 12.3338 11.7937 12.4727 11.7658 12.6263C11.7379 12.7798 11.7648 12.9383 11.8419 13.0741C11.919 13.2098 12.0413 13.3141 12.1875 13.3688V13.8282C12.1875 13.8903 12.2122 13.9499 12.2561 13.9939C12.3001 14.0378 12.3597 14.0625 12.4219 14.0625C12.484 14.0625 12.5436 14.0378 12.5876 13.9939C12.6316 13.9499 12.6562 13.8903 12.6562 13.8282V13.3688C12.8024 13.3141 12.9248 13.2098 13.0018 13.0741C13.0789 12.9383 13.1059 12.7798 13.0779 12.6263C13.05 12.4727 12.969 12.3338 12.8491 12.2339C12.7292 12.134 12.578 12.0794 12.4219 12.0797ZM12.4219 12.5485C12.461 12.5485 12.4993 12.5601 12.5319 12.5818C12.5645 12.6036 12.5899 12.6345 12.6048 12.6707C12.6198 12.7069 12.6238 12.7467 12.6161 12.7851C12.6085 12.8236 12.5896 12.8589 12.5619 12.8866C12.5342 12.9142 12.4989 12.9331 12.4605 12.9408C12.4221 12.9484 12.3823 12.9445 12.3461 12.9295C12.3099 12.9145 12.279 12.8891 12.2572 12.8565C12.2354 12.824 12.2238 12.7857 12.2238 12.7465C12.2238 12.694 12.2447 12.6436 12.2818 12.6065C12.319 12.5693 12.3693 12.5485 12.4219 12.5485Z" fill="black"/>
<path d="M6.79696 7.89629C7.43254 7.89674 8.0585 8.05151 8.62107 8.34728C9.18363 8.64306 9.66597 9.071 10.0266 9.59434C10.0435 9.62095 10.0657 9.64387 10.0916 9.66174C10.1176 9.67961 10.1469 9.69205 10.1778 9.69833C10.2087 9.70461 10.2405 9.70458 10.2714 9.69826C10.3023 9.69195 10.3316 9.67946 10.3576 9.66156C10.3835 9.64365 10.4056 9.6207 10.4225 9.59406C10.4393 9.56743 10.4507 9.53767 10.4557 9.50656C10.4608 9.47545 10.4596 9.44362 10.4521 9.413C10.4447 9.38237 10.4311 9.35357 10.4122 9.32832C9.83167 8.48698 8.97588 7.87445 7.99227 7.59629C8.48996 7.32965 8.88433 6.9044 9.11276 6.38806C9.3412 5.87171 9.39061 5.29385 9.25315 4.74622C9.11569 4.19859 8.79925 3.71256 8.35405 3.36529C7.90885 3.01803 7.36041 2.82943 6.79578 2.82943C6.23116 2.82943 5.68272 3.01803 5.23752 3.36529C4.79232 3.71256 4.47587 4.19859 4.33842 4.74622C4.20096 5.29385 4.25037 5.87171 4.47881 6.38806C4.70724 6.9044 5.10161 7.32965 5.5993 7.59629C4.75531 7.83706 4.00266 8.32485 3.43817 8.99689C2.87368 9.66893 2.52316 10.4945 2.43172 11.3674C1.67327 10.6447 1.1061 9.74508 0.781086 8.74916C0.456076 7.75325 0.3834 6.69223 0.569579 5.6613C0.755759 4.63037 1.19497 3.66179 1.8478 2.84246C2.50063 2.02314 3.34666 1.37871 4.30997 0.966991C5.27328 0.555275 6.32374 0.389154 7.36708 0.483536C8.41043 0.577918 9.41402 0.929849 10.2878 1.50775C11.1616 2.08565 11.8783 2.87144 12.3735 3.79462C12.8687 4.71779 13.1269 5.74947 13.1251 6.79707C13.1252 7.22688 13.082 7.65561 12.9962 8.07676C12.9879 8.1076 12.9859 8.13982 12.9905 8.17143C12.9951 8.20305 13.0061 8.23339 13.0228 8.2606C13.0396 8.2878 13.0617 8.3113 13.0879 8.32965C13.114 8.34799 13.1436 8.3608 13.1749 8.36728C13.2062 8.37376 13.2385 8.37377 13.2698 8.36733C13.3011 8.36088 13.3307 8.34811 13.3569 8.32979C13.383 8.31147 13.4052 8.288 13.4219 8.26081C13.4387 8.23362 13.4498 8.20329 13.4544 8.17168C13.7595 6.69243 13.5633 5.15366 12.8966 3.79836C12.2299 2.44305 11.1308 1.34842 9.77275 0.687297C8.41472 0.0261737 6.87517 -0.163774 5.39717 0.147445C3.91918 0.458665 2.58695 1.25332 1.61084 2.40594C0.634731 3.55856 0.0703509 5.00347 0.00681299 6.51254C-0.0567249 8.02161 0.384199 9.50885 1.25997 10.7394C2.13573 11.97 3.39645 12.8739 4.84305 13.3082C6.28965 13.7426 7.83972 13.6827 9.24852 13.1381C9.30474 13.1145 9.34956 13.0699 9.37344 13.0138C9.39732 12.9577 9.3984 12.8945 9.37644 12.8376C9.35448 12.7807 9.3112 12.7346 9.25581 12.7091C9.20042 12.6836 9.13727 12.6807 9.07977 12.701C8.05389 13.0969 6.94255 13.2187 5.85528 13.0543C4.76801 12.8899 3.74235 12.445 2.87938 11.7635C2.89414 10.7337 3.31321 9.75104 4.04614 9.02754C4.77907 8.30404 5.76708 7.89772 6.79696 7.89629ZM4.73211 5.3627C4.73211 4.95431 4.85321 4.5551 5.0801 4.21554C5.30699 3.87597 5.62947 3.61132 6.00677 3.45503C6.38408 3.29875 6.79925 3.25786 7.19979 3.33753C7.60033 3.41721 7.96825 3.61386 8.25702 3.90264C8.54579 4.19141 8.74245 4.55933 8.82212 4.95987C8.9018 5.36041 8.8609 5.77558 8.70462 6.15288C8.54834 6.53018 8.28368 6.85267 7.94412 7.07955C7.60456 7.30644 7.20534 7.42754 6.79696 7.42754C6.24952 7.42692 5.72468 7.20918 5.33758 6.82208C4.95048 6.43498 4.73273 5.91014 4.73211 5.3627Z" fill="black"/>
</svg>
