<svg width="8" height="12" viewBox="0 0 8 12" fill="none" xmlns="http://www.w3.org/2000/svg">
<path d="M0.191445 6.46824L5.5316 11.8083C5.65511 11.9319 5.81999 12 5.99579 12C6.17159 12 6.33647 11.9319 6.45998 11.8083L6.85325 11.4151C7.10915 11.1589 7.10915 10.7425 6.85325 10.4867L2.36899 6.00249L6.85822 1.51326C6.98173 1.38965 7.04993 1.22487 7.04993 1.04916C7.04993 0.873261 6.98173 0.708482 6.85822 0.584775L6.46495 0.191706C6.34135 0.0680972 6.17657 7.63515e-08 6.00076 9.17207e-08C5.82496 1.0709e-07 5.66008 0.0680972 5.53657 0.191706L0.191445 5.53664C0.0676412 5.66064 -0.000358168 5.8262 3.23774e-05 6.0022C-0.000358137 6.17888 0.0676412 6.34434 0.191445 6.46824Z" fill="#758AF8"/>
</svg>
