<svg width="8" height="12" viewBox="0 0 8 12" fill="none" xmlns="http://www.w3.org/2000/svg">
<path d="M6.8586 5.53176L1.51845 0.191706C1.39494 0.068097 1.23006 0 1.05426 0C0.878456 0 0.71358 0.068097 0.590069 0.191706L0.196803 0.584873C-0.0590969 0.841066 -0.0590969 1.25745 0.196803 1.51326L4.68106 5.99751L0.191828 10.4867C0.0683166 10.6104 0.00012207 10.7751 0.00012207 10.9508C0.00012207 11.1267 0.0683166 11.2915 0.191828 11.4152L0.585093 11.8083C0.708702 11.9319 0.873481 12 1.04928 12C1.22509 12 1.38996 11.9319 1.51348 11.8083L6.8586 6.46336C6.98241 6.33936 7.05041 6.1738 7.05002 5.99781C7.05041 5.82112 6.98241 5.65566 6.8586 5.53176Z" fill="#758AF8"/>
</svg>
