<svg width="22" height="22" viewBox="0 0 22 22" fill="none" xmlns="http://www.w3.org/2000/svg">
<path d="M11 0C8.82441 0 6.69767 0.645139 4.88873 1.85384C3.07979 3.06253 1.66989 4.7805 0.83733 6.79049C0.00476617 8.80048 -0.213071 11.0122 0.211367 13.146C0.635804 15.2798 1.68345 17.2398 3.22183 18.7782C4.76021 20.3166 6.72022 21.3642 8.85401 21.7887C10.9878 22.2131 13.1995 21.9953 15.2095 21.1627C17.2195 20.3301 18.9375 18.9202 20.1462 17.1113C21.3549 15.3023 22 13.1756 22 11C21.9966 8.08368 20.8365 5.28778 18.7744 3.22563C16.7122 1.16347 13.9163 0.00344047 11 0V0ZM16.707 9.70701L11.707 14.707C11.5195 14.8945 11.2652 14.9998 11 14.9998C10.7348 14.9998 10.4805 14.8945 10.293 14.707L5.293 9.70701C5.11085 9.51841 5.01005 9.2658 5.01233 9.00361C5.01461 8.74141 5.11978 8.4906 5.30519 8.30519C5.49059 8.11978 5.74141 8.01461 6.0036 8.01233C6.2658 8.01005 6.5184 8.11085 6.707 8.29301L11 12.586L15.293 8.29301C15.4816 8.11085 15.7342 8.01005 15.9964 8.01233C16.2586 8.01461 16.5094 8.11978 16.6948 8.30519C16.8802 8.4906 16.9854 8.74141 16.9877 9.00361C16.99 9.2658 16.8892 9.51841 16.707 9.70701V9.70701Z" fill="#92A2F8"/>
</svg>
