<svg width="11" height="10" viewBox="0 0 11 10" fill="none" xmlns="http://www.w3.org/2000/svg">
<rect width="10.1181" height="10" rx="2" fill="#758AF8"/>
<path d="M7.625 6.1875C6.84833 6.1875 6.21875 6.81708 6.21875 7.59375C6.21875 8.37042 6.84833 9 7.625 9C8.40167 9 9.03125 8.37042 9.03125 7.59375C9.03125 6.81708 8.40167 6.1875 7.625 6.1875ZM7.39062 8.39392L6.75616 7.75946L7.08759 7.42804L7.39062 7.73108L8.16241 6.95929L8.49384 7.29071L7.39062 8.39392Z" fill="white"/>
<path d="M5.54163 4.03754C5.25903 4.20837 4.9317 4.3125 4.57812 4.3125C4.22192 4.3125 3.89209 4.20721 3.60822 4.03406C2.66534 4.41742 2 5.34137 2 6.42187V8.0625H5.81659C5.7774 7.9118 5.75 7.75653 5.75 7.59375C5.75 6.75073 6.31299 6.04431 7.07989 5.80908C6.88226 4.99969 6.30066 4.34564 5.54163 4.03754Z" fill="white"/>
<path d="M5.98437 2.4375C5.98437 1.66083 5.3548 1 4.57812 1C3.80145 1 3.17188 1.66083 3.17188 2.4375C3.17188 3.21417 3.80145 3.84375 4.57812 3.84375C5.3548 3.84375 5.98437 3.21417 5.98437 2.4375Z" fill="white"/>
</svg>
