<svg width="15" height="15" viewBox="0 0 15 15" fill="none" xmlns="http://www.w3.org/2000/svg">
<rect width="15" height="15" rx="2" fill="#ADBBD6"/>
<path d="M11.304 9.28125C10.1526 9.28125 9.21924 10.2256 9.21924 11.3906C9.21924 12.5556 10.1526 13.5 11.304 13.5C12.4554 13.5 13.3887 12.5556 13.3887 11.3906C13.3887 10.2256 12.4554 9.28125 11.304 9.28125ZM10.9565 12.5909L10.016 11.6392L10.5073 11.1421L10.9565 11.5966L12.1007 10.4389L12.592 10.9361L10.9565 12.5909Z" fill="white"/>
<path d="M8.21539 6.05624C7.79645 6.3125 7.31119 6.46869 6.78701 6.46869C6.25895 6.46869 5.76997 6.31076 5.34913 6.05103C3.95133 6.62607 2.96497 8.01199 2.96497 9.63275V12.0937H8.62303C8.56493 11.8676 8.52431 11.6347 8.52431 11.3906C8.52431 10.126 9.35893 9.06641 10.4959 8.71356C10.2029 7.49948 9.34065 6.5184 8.21539 6.05624Z" fill="white"/>
<path d="M8.87178 3.65625C8.87178 2.49124 7.93843 1.5 6.78702 1.5C5.63561 1.5 4.70227 2.49124 4.70227 3.65625C4.70227 4.82126 5.63561 5.76562 6.78702 5.76562C7.93843 5.76562 8.87178 4.82126 8.87178 3.65625Z" fill="white"/>
</svg>
