<svg width="15" height="15" viewBox="0 0 15 15" fill="none" xmlns="http://www.w3.org/2000/svg">
<rect width="15" height="15" rx="2" fill="#758AF8"/>
<path d="M11.1641 9.78125C9.99905 9.78125 9.05469 10.7256 9.05469 11.8906C9.05469 13.0556 9.99905 14 11.1641 14C12.3291 14 13.2734 13.0556 13.2734 11.8906C13.2734 10.7256 12.3291 9.78125 11.1641 9.78125ZM10.8125 13.0909L9.86081 12.1392L10.3579 11.6421L10.8125 12.0966L11.9702 10.9389L12.4673 11.4361L10.8125 13.0909Z" fill="white"/>
<path d="M8.039 6.5563C7.61511 6.81256 7.12411 6.96875 6.59375 6.96875C6.05945 6.96875 5.5647 6.81082 5.13889 6.55109C3.72458 7.12613 2.72656 8.51205 2.72656 10.1328V12.5938H8.45145C8.39267 12.3677 8.35156 12.1348 8.35156 11.8906C8.35156 10.6261 9.19604 9.56647 10.3464 9.21362C10.05 7.99954 9.17755 7.01846 8.039 6.5563Z" fill="white"/>
<path d="M8.70312 4.15625C8.70312 2.99124 7.75876 2 6.59375 2C5.42874 2 4.48438 2.99124 4.48438 4.15625C4.48438 5.32126 5.42874 6.26562 6.59375 6.26562C7.75876 6.26562 8.70312 5.32126 8.70312 4.15625Z" fill="white"/>
</svg>
