<svg width="15" height="15" viewBox="0 0 15 15" fill="none" xmlns="http://www.w3.org/2000/svg">
<path d="M11.875 1.875H9.2625C9 1.15 8.3125 0.625 7.5 0.625C6.6875 0.625 6 1.15 5.7375 1.875H3.125C2.4375 1.875 1.875 2.4375 1.875 3.125V11.875C1.875 12.5625 2.4375 13.125 3.125 13.125H11.875C12.5625 13.125 13.125 12.5625 13.125 11.875V3.125C13.125 2.4375 12.5625 1.875 11.875 1.875ZM7.5 1.875C7.84375 1.875 8.125 2.15625 8.125 2.5C8.125 2.84375 7.84375 3.125 7.5 3.125C7.15625 3.125 6.875 2.84375 6.875 2.5C6.875 2.15625 7.15625 1.875 7.5 1.875ZM8.75 10.625H4.375V9.375H8.75V10.625ZM10.625 8.125H4.375V6.875H10.625V8.125ZM10.625 5.625H4.375V4.375H10.625V5.625Z" fill="#6590E2"/>
</svg>
