<svg width="13" height="13" viewBox="0 0 13 13" fill="none" xmlns="http://www.w3.org/2000/svg">
<path d="M8.93734 3.25008V9.47925C8.93734 10.6763 7.96775 11.6459 6.77067 11.6459C5.57359 11.6459 4.604 10.6763 4.604 9.47925V2.70841C4.604 1.96091 5.21067 1.35425 5.95817 1.35425C6.70567 1.35425 7.31234 1.96091 7.31234 2.70841V8.39591C7.31234 8.69383 7.06859 8.93758 6.77067 8.93758C6.47275 8.93758 6.229 8.69383 6.229 8.39591V3.25008H5.4165V8.39591C5.4165 9.14341 6.02317 9.75008 6.77067 9.75008C7.51817 9.75008 8.12484 9.14341 8.12484 8.39591V2.70841C8.12484 1.51133 7.15525 0.541748 5.95817 0.541748C4.76109 0.541748 3.7915 1.51133 3.7915 2.70841V9.47925C3.7915 11.1259 5.124 12.4584 6.77067 12.4584C8.41734 12.4584 9.74984 11.1259 9.74984 9.47925V3.25008H8.93734Z" fill="#9DA3B4"/>
</svg>
