<svg width="13" height="13" viewBox="0 0 13 13" fill="none" xmlns="http://www.w3.org/2000/svg">
<path d="M9.14583 3.70833V9.9375C9.14583 11.1346 8.17625 12.1042 6.97917 12.1042C5.78208 12.1042 4.8125 11.1346 4.8125 9.9375V3.16667C4.8125 2.41917 5.41917 1.8125 6.16667 1.8125C6.91417 1.8125 7.52083 2.41917 7.52083 3.16667V8.85417C7.52083 9.15208 7.27708 9.39583 6.97917 9.39583C6.68125 9.39583 6.4375 9.15208 6.4375 8.85417V3.70833H5.625V8.85417C5.625 9.60167 6.23167 10.2083 6.97917 10.2083C7.72667 10.2083 8.33333 9.60167 8.33333 8.85417V3.16667C8.33333 1.96958 7.36375 1 6.16667 1C4.96958 1 4 1.96958 4 3.16667V9.9375C4 11.5842 5.3325 12.9167 6.97917 12.9167C8.62583 12.9167 9.95833 11.5842 9.95833 9.9375V3.70833H9.14583Z" fill="#666CF7"/>
</svg>
