<svg width="10" height="10" viewBox="0 0 10 10" fill="none" xmlns="http://www.w3.org/2000/svg">
<path d="M9.10125 0.330554C9.01529 0.207097 8.89954 0.116813 8.75425 0.0595409C8.66173 0.0199318 8.56475 9.25986e-05 8.46338 9.25986e-05V0H1.53667C1.43534 0 1.33846 0.0198393 1.24591 0.0594483C1.10053 0.116674 0.984825 0.207074 0.898917 0.330461C0.813032 0.453849 0.77002 0.590385 0.77002 0.740233V9.25974C0.77002 9.40964 0.813032 9.54613 0.898917 9.66963C0.984825 9.793 1.10053 9.88337 1.24591 9.94057C1.33837 9.98018 1.43534 9.99998 1.53667 9.99998C1.74383 9.99998 1.9266 9.92724 2.08527 9.78195L5.00005 6.97941L7.91482 9.78202C8.06907 9.9228 8.25193 9.99331 8.46336 9.99331C8.57355 9.99331 8.6705 9.97581 8.75423 9.94055C8.89952 9.88335 9.01527 9.79297 9.10122 9.66945C9.18711 9.5461 9.23003 9.40959 9.23003 9.25972V0.740326C9.23005 0.590478 9.18704 0.453941 9.10125 0.330554ZM8.38407 9.05473L5.5883 6.37134L5.00005 5.80964L4.41184 6.37134L1.61609 9.05473V0.846097H8.38407V9.05473Z" fill="#7D8599"/>
</svg>
