<svg width="10" height="10" viewBox="0 0 10 10" fill="none" xmlns="http://www.w3.org/2000/svg">
<path d="M4.53125 1.71875V3.90625C4.53125 4.07201 4.4654 4.23098 4.34819 4.34819C4.23098 4.4654 4.07201 4.53125 3.90625 4.53125H1.71875C1.55299 4.53125 1.39402 4.4654 1.27681 4.34819C1.1596 4.23098 1.09375 4.07201 1.09375 3.90625V1.71875C1.09375 1.55299 1.1596 1.39402 1.27681 1.27681C1.39402 1.1596 1.55299 1.09375 1.71875 1.09375H3.90625C4.07201 1.09375 4.23098 1.1596 4.34819 1.27681C4.4654 1.39402 4.53125 1.55299 4.53125 1.71875ZM8.28125 1.09375H6.09375C5.92799 1.09375 5.76902 1.1596 5.65181 1.27681C5.5346 1.39402 5.46875 1.55299 5.46875 1.71875V3.90625C5.46875 4.07201 5.5346 4.23098 5.65181 4.34819C5.76902 4.4654 5.92799 4.53125 6.09375 4.53125H8.28125C8.44701 4.53125 8.60598 4.4654 8.72319 4.34819C8.8404 4.23098 8.90625 4.07201 8.90625 3.90625V1.71875C8.90625 1.55299 8.8404 1.39402 8.72319 1.27681C8.60598 1.1596 8.44701 1.09375 8.28125 1.09375ZM3.90625 5.46875H1.71875C1.55299 5.46875 1.39402 5.5346 1.27681 5.65181C1.1596 5.76902 1.09375 5.92799 1.09375 6.09375V8.28125C1.09375 8.44701 1.1596 8.60598 1.27681 8.72319C1.39402 8.8404 1.55299 8.90625 1.71875 8.90625H3.90625C4.07201 8.90625 4.23098 8.8404 4.34819 8.72319C4.4654 8.60598 4.53125 8.44701 4.53125 8.28125V6.09375C4.53125 5.92799 4.4654 5.76902 4.34819 5.65181C4.23098 5.5346 4.07201 5.46875 3.90625 5.46875ZM7.1875 5.46875C6.84756 5.46875 6.51526 5.56955 6.23261 5.75841C5.94997 5.94727 5.72967 6.2157 5.59958 6.52976C5.46949 6.84382 5.43546 7.18941 5.50178 7.52281C5.56809 7.85622 5.73179 8.16247 5.97216 8.40284C6.21253 8.64321 6.51878 8.80691 6.85219 8.87322C7.18559 8.93954 7.53118 8.90551 7.84524 8.77542C8.1593 8.64533 8.42773 8.42503 8.61659 8.14239C8.80545 7.85974 8.90625 7.52744 8.90625 7.1875C8.90625 6.73166 8.72517 6.29449 8.40284 5.97216C8.08051 5.64983 7.64334 5.46875 7.1875 5.46875Z" fill="#7D8599"/>
</svg>
