<svg width="15" height="15" viewBox="0 0 15 15" fill="none" xmlns="http://www.w3.org/2000/svg">
<g clip-path="url(#clip0_2275_3861)">
<path d="M12.6178 5.84805C13.9314 5.84805 14.9999 4.77951 14.9999 3.46607C14.9999 2.15263 13.9314 1.08398 12.6178 1.08398C11.3044 1.08398 10.2358 2.15263 10.2358 3.46607C10.2358 4.77951 11.3044 5.84805 12.6178 5.84805ZM12.1784 2.42592H13.0574V4.50611H12.1784V2.42592Z" fill="#6590E2"/>
<path d="M12.6179 6.72675C10.8198 6.72675 9.35692 5.26397 9.35692 3.46587C9.35692 3.05537 9.43336 2.66238 9.57253 2.30029H1.75186C0.785866 2.30029 0 3.08616 0 4.05215V9.67727C0 10.6433 0.785866 11.4292 1.75186 11.4292H2.22588V13.9453L5.98423 11.4292H10.8773C11.8433 11.4292 12.6291 10.6433 12.6291 9.67727V6.72664C12.6255 6.72664 12.6217 6.72675 12.6179 6.72675ZM9.14223 8.40514H3.71727V7.52612H9.14223V8.40514ZM9.14223 6.27574H3.71727V5.39672H9.14223V6.27574Z" fill="#6590E2"/>
</g>
<defs>
<clipPath id="clip0_2275_3861">
<rect width="15" height="15" fill="white"/>
</clipPath>
</defs>
</svg>
