<svg width="28" height="28" viewBox="0 0 28 28" fill="none" xmlns="http://www.w3.org/2000/svg">
<path d="M20.1584 7.88568V13.1439C20.1584 15.5496 18.1859 17.5293 15.7783 17.5293H10.3642L9.34064 18.5528V18.5563C9.96825 19.5164 11.0477 20.1584 12.2727 20.1584H18.0428L21.2916 23.4054C21.8438 23.9543 22.784 23.5644 22.7859 22.7858V20.1584C24.7127 20.1584 26.2914 18.5798 26.2914 16.6529V11.3929C26.2914 9.46601 24.7127 7.88568 22.7859 7.88568H20.1584Z" fill="#C4C4C4"/>
<path d="M5.25171 4.37628C3.32786 4.37628 1.75 5.94742 1.75 7.87129V13.123C1.75 15.0468 3.32784 16.6247 5.25171 16.6247V19.2531C5.25312 19.4254 5.30533 19.5933 5.40179 19.7359C5.49824 19.8786 5.63467 19.9898 5.79396 20.0553C5.95326 20.1208 6.12834 20.1377 6.29728 20.1041C6.46621 20.0706 6.62149 19.988 6.74365 19.8665L9.98559 16.6247H15.7534C17.6773 16.6247 19.2483 15.0468 19.2483 13.123V7.87129C19.2483 5.94742 17.6773 4.37628 15.7534 4.37628H5.25171Z" fill="#C4C4C4"/>
</svg>
