<svg width="13" height="13" viewBox="0 0 13 13" fill="none" xmlns="http://www.w3.org/2000/svg">
<path d="M6.5 0C2.91579 0 0 2.91579 0 6.5C0 10.0842 2.91579 13 6.5 13C10.0842 13 13 10.0842 13 6.5C13 2.91579 10.0842 0 6.5 0ZM9.79442 5.12254L6.27358 8.64338C6.16796 8.749 6.02929 8.80208 5.89062 8.80208C5.75196 8.80208 5.61329 8.749 5.50767 8.64338L3.74725 6.88296C3.53546 6.67117 3.53546 6.32883 3.74725 6.11704C3.95904 5.90525 4.30137 5.90525 4.51317 6.11704L5.89062 7.4945L9.0285 4.35663C9.24029 4.14483 9.58263 4.14483 9.79442 4.35663C10.0062 4.56842 10.0062 4.91075 9.79442 5.12254Z" fill="#C4C4C4"/>
</svg>
