<svg width="16" height="17" viewBox="0 0 16 17" fill="none" xmlns="http://www.w3.org/2000/svg">
<path d="M14.3183 1.66667H10.8332C10.483 0.7 9.56588 0 8.48199 0C7.3981 0 6.48096 0.7 6.13078 1.66667H2.64565C1.72851 1.66667 0.978119 2.41667 0.978119 3.33333V15C0.978119 15.9167 1.72851 16.6667 2.64565 16.6667H14.3183C15.2355 16.6667 15.9859 15.9167 15.9859 15V3.33333C15.9859 2.41667 15.2355 1.66667 14.3183 1.66667ZM8.48199 1.66667C8.94056 1.66667 9.31575 2.04167 9.31575 2.5C9.31575 2.95833 8.94056 3.33333 8.48199 3.33333C8.02342 3.33333 7.64822 2.95833 7.64822 2.5C7.64822 2.04167 8.02342 1.66667 8.48199 1.66667ZM10.1495 13.3333H4.31317V11.6667H10.1495V13.3333ZM12.6508 9.99999H4.31317V8.33333H12.6508V9.99999ZM12.6508 6.66666H4.31317V5H12.6508V6.66666Z" fill="#666CF7"/>
</svg>
