<svg width="16" height="18" viewBox="0 0 16 18" fill="none" xmlns="http://www.w3.org/2000/svg">
<path d="M13.3507 1.75H9.8628C9.51234 0.735 8.59449 0 7.50975 0C6.425 0 5.50715 0.735 5.15669 1.75H1.66883C0.750975 1.75 0 2.5375 0 3.5V15.75C0 16.7125 0.750975 17.5 1.66883 17.5H13.3507C14.2685 17.5 15.0195 16.7125 15.0195 15.75V3.5C15.0195 2.5375 14.2685 1.75 13.3507 1.75ZM7.50975 1.75C7.96867 1.75 8.34416 2.14375 8.34416 2.625C8.34416 3.10625 7.96867 3.5 7.50975 3.5C7.05082 3.5 6.67533 3.10625 6.67533 2.625C6.67533 2.14375 7.05082 1.75 7.50975 1.75ZM10.8474 12.25H7.50975V14.875L3.33766 10.5L7.50975 6.125V8.75H10.8474V12.25Z" fill="#666CF7"/>
</svg>
