<svg width="11" height="11" viewBox="0 0 11 11" fill="none" xmlns="http://www.w3.org/2000/svg">
<path d="M9.01556 1.06444H6.79087C6.56733 0.447067 5.98189 0 5.29 0C4.59811 0 4.01267 0.447067 3.78913 1.06444H1.56444C0.979 1.06444 0.5 1.54344 0.5 2.12889V9.58C0.5 10.1654 0.979 10.6444 1.56444 10.6444H9.01556C9.601 10.6444 10.08 10.1654 10.08 9.58V2.12889C10.08 1.54344 9.601 1.06444 9.01556 1.06444ZM5.29 1.06444C5.58272 1.06444 5.82222 1.30394 5.82222 1.59667C5.82222 1.88939 5.58272 2.12889 5.29 2.12889C4.99728 2.12889 4.75778 1.88939 4.75778 1.59667C4.75778 1.30394 4.99728 1.06444 5.29 1.06444ZM6.35444 8.51556H2.62889V7.45111H6.35444V8.51556ZM7.95111 6.38667H2.62889V5.32222H7.95111V6.38667ZM7.95111 4.25778H2.62889V3.19333H7.95111V4.25778Z" fill="#7D8599"/>
</svg>
