<svg width="19" height="19" viewBox="0 0 19 19" fill="none" xmlns="http://www.w3.org/2000/svg">
<path d="M12.6703 1.43983H11.2801C11.1066 1.43446 10.9576 1.31519 10.9142 1.14718C10.7825 0.462767 10.1718 -0.023709 9.4753 0.000892592C8.77455 -0.0113848 8.16689 0.48298 8.03636 1.17159C7.99127 1.33498 7.83988 1.44599 7.67052 1.43987H6.3291V3.87879H12.6703V1.43983Z" fill="#666CF7"/>
<path d="M16.5727 17.878V3.90305C16.5742 3.3508 16.1277 2.9019 15.5754 2.90041C15.5501 2.90036 15.5248 2.90125 15.4996 2.90307H13.4021V4.14692C13.4021 4.34205 13.2801 4.61034 13.085 4.61034H5.89025C5.69512 4.61034 5.5976 4.34205 5.5976 4.14692V2.90312H3.50013C2.94937 2.86269 2.47008 3.27644 2.4297 3.82724C2.42783 3.8525 2.42695 3.8778 2.42704 3.9031V17.878C2.41341 18.484 2.89363 18.9863 3.49961 18.9999C3.4998 18.9999 3.49998 18.9999 3.50017 18.9999H15.4996C16.1056 18.9866 16.586 18.4845 16.5727 17.8786C16.5727 17.8784 16.5727 17.8782 16.5727 17.878ZM7.52432 14.6586L5.62197 16.4391C5.56114 16.5118 5.47277 16.556 5.3781 16.561C5.2762 16.557 5.17989 16.5132 5.10982 16.4391L4.10989 15.4147C3.97698 15.2659 3.98786 15.038 4.13426 14.9026C4.2765 14.7631 4.50417 14.7631 4.64641 14.9026L5.37806 15.683L7.03654 14.1221C7.20282 14.0073 7.43067 14.0491 7.54542 14.2154C7.63906 14.351 7.63038 14.5325 7.52432 14.6586ZM7.52432 10.7564L5.62197 12.5368C5.56114 12.6096 5.47277 12.6537 5.3781 12.6587C5.2762 12.6547 5.17989 12.6109 5.10982 12.5368L4.10989 11.5124C3.97698 11.3636 3.98786 11.1358 4.13426 11.0003C4.2765 10.8609 4.50417 10.8609 4.64641 11.0003L5.37806 11.7807L7.03654 10.2198C7.20282 10.1051 7.43067 10.1468 7.54542 10.3131C7.63906 10.4487 7.63038 10.6302 7.52432 10.7564ZM7.52432 6.85412L5.62197 8.63453C5.56114 8.70731 5.47277 8.75147 5.3781 8.75647C5.2762 8.75245 5.17989 8.70866 5.10982 8.63453L4.10989 7.61018C3.97698 7.46136 3.98786 7.23351 4.13426 7.09803C4.2765 6.95859 4.50417 6.95859 4.64641 7.09803L5.37806 7.87847L7.03654 6.31755C7.20282 6.20281 7.43067 6.24454 7.54542 6.41082C7.63906 6.54648 7.63038 6.72798 7.52432 6.85412ZM14.6216 16.0732H9.01203C8.80999 16.0732 8.64618 15.9094 8.64618 15.7074C8.64618 15.5053 8.80999 15.3415 9.01203 15.3415H14.6215C14.8235 15.3415 14.9874 15.5053 14.9874 15.7074C14.9874 15.9094 14.8236 16.0732 14.6216 16.0732ZM14.6216 12.1709H9.01203C8.80999 12.1709 8.64618 12.0071 8.64618 11.8051C8.64618 11.6031 8.80999 11.4393 9.01203 11.4393H14.6215C14.8235 11.4393 14.9874 11.6031 14.9874 11.8051C14.9874 12.0071 14.8236 12.1709 14.6216 12.1709ZM14.6216 8.26868H9.01203C8.80999 8.26868 8.64618 8.10488 8.64618 7.90284C8.64618 7.7008 8.80999 7.53699 9.01203 7.53699H14.6215C14.8235 7.53699 14.9874 7.7008 14.9874 7.90284C14.9874 8.10492 14.8236 8.26868 14.6216 8.26868Z" fill="#666CF7"/>
</svg>
