<svg width="20" height="20" viewBox="0 0 20 20" fill="none" xmlns="http://www.w3.org/2000/svg">
<path d="M8.12499 2.94624V8.125H2.94625C2.55062 8.125 2.35312 7.64687 2.6325 7.3675L4.33687 5.66312L1.52437 2.85062C1.15812 2.48499 1.15812 1.89062 1.52437 1.52499C1.89062 1.15874 2.48375 1.15874 2.85 1.52499L5.6625 4.33749L7.36687 2.63312C7.64687 2.35312 8.12499 2.55124 8.12499 2.94624Z" fill="#92A2F8"/>
<path d="M18.4756 17.1494C18.8419 17.5156 18.8419 18.1087 18.4756 18.475C18.1094 18.8412 17.5163 18.8412 17.15 18.475L14.3375 15.6625L12.6331 17.3669C12.3531 17.6469 11.875 17.4487 11.875 17.0537V11.875H17.0538C17.4494 11.875 17.6469 12.3531 17.3675 12.6325L15.6631 14.3369L18.4756 17.1494Z" fill="#92A2F8"/>
<path d="M17.0537 8.125H11.875V2.94626C11.875 2.55063 12.3531 2.35313 12.6325 2.63251L14.3369 4.33688L17.1494 1.52438C17.5156 1.15813 18.1087 1.15813 18.475 1.52438C18.8412 1.89001 18.8412 2.48438 18.475 2.85001L15.6625 5.6625L17.3669 7.36688C17.6469 7.64688 17.4487 8.125 17.0537 8.125Z" fill="#92A2F8"/>
<path d="M2.94625 11.875H8.125V17.0538C8.125 17.4494 7.64688 17.6469 7.3675 17.3675L5.66313 15.6631L2.85063 18.4756C2.48438 18.8419 1.89125 18.8419 1.525 18.4756C1.15875 18.1094 1.15875 17.5163 1.525 17.15L4.3375 14.3375L2.63313 12.6331C2.35313 12.3531 2.55125 11.875 2.94625 11.875Z" fill="#92A2F8"/>
</svg>
