<svg width="20" height="20" viewBox="0 0 20 20" fill="none" xmlns="http://www.w3.org/2000/svg">
<path d="M12.5 3.125H3.75C2.71447 3.125 1.875 3.96447 1.875 5V17.5C1.875 18.5355 2.71447 19.375 3.75 19.375H12.5C13.5355 19.375 14.375 18.5355 14.375 17.5V5C14.375 3.96447 13.5355 3.125 12.5 3.125Z" fill="#92A2F8"/>
<path d="M18.125 2.5V15C18.1235 15.4968 17.9255 15.9729 17.5742 16.3242C17.2229 16.6755 16.7468 16.8735 16.25 16.875H15.625V5C15.625 4.1712 15.2957 3.37634 14.7097 2.79029C14.1236 2.20424 13.3288 1.875 12.5 1.875H5.73749C5.86643 1.51028 6.10503 1.19437 6.42057 0.970586C6.73611 0.746799 7.11315 0.626087 7.49999 0.625H16.25C16.7468 0.626484 17.2229 0.824504 17.5742 1.17581C17.9255 1.52712 18.1235 2.00318 18.125 2.5Z" fill="#92A2F8"/>
</svg>
