<svg width="21" height="20" viewBox="0 0 21 20" fill="none" xmlns="http://www.w3.org/2000/svg">
<path d="M16.2024 5.45H9.68637L9.14003 4.18999C8.81627 3.47002 8.08771 3.00334 7.29181 3.00334H4.03373C2.92081 3.00334 2.02362 3.89665 2.02362 4.99V15.01C2.02362 16.1033 2.92756 16.9967 4.03373 16.9967H16.2024C17.3087 16.9967 18.2125 16.1033 18.2125 15.01V7.43665C18.2125 6.33668 17.3087 5.45 16.2024 5.45ZM11.9596 12.21H10.9073V13.25C10.9073 13.6833 10.5565 14.03 10.1181 14.03C9.68637 14.03 9.32892 13.6833 9.32892 13.25V12.21H8.28336C7.84489 12.21 7.49412 11.8633 7.49412 11.4367C7.49412 11.0033 7.84489 10.6567 8.28336 10.6567H9.32892V9.61666C9.32892 9.18331 9.68637 8.83668 10.1181 8.83668C10.5565 8.83668 10.9073 9.18331 10.9073 9.61666V10.6567H11.9596C12.3845 10.6567 12.7353 11.0033 12.7353 11.4367C12.7353 11.8633 12.3845 12.21 11.9596 12.21Z" fill="#92A2F8"/>
</svg>
