<svg width="21" height="20" viewBox="0 0 21 20" fill="none" xmlns="http://www.w3.org/2000/svg">
<path d="M14.6666 1.66669H6.33325C5.67021 1.66669 5.03432 1.93008 4.56548 2.39892C4.09664 2.86776 3.83325 3.50365 3.83325 4.16669V15.8334C3.83325 16.4964 4.09664 17.1323 4.56548 17.6011C5.03432 18.07 5.67021 18.3334 6.33325 18.3334H12.1666V15C12.1666 14.558 12.3422 14.1341 12.6547 13.8215C12.9673 13.509 13.3912 13.3334 13.8332 13.3334H17.1666V4.16669C17.1666 3.50365 16.9032 2.86776 16.4343 2.39892C15.9655 1.93008 15.3296 1.66669 14.6666 1.66669ZM12.9999 10.8334H11.3332V12.5C11.3332 12.721 11.2454 12.933 11.0892 13.0893C10.9329 13.2456 10.7209 13.3334 10.4999 13.3334C10.2789 13.3334 10.0669 13.2456 9.91066 13.0893C9.75438 12.933 9.66658 12.721 9.66658 12.5V10.8334H7.99991C7.7789 10.8334 7.56694 10.7456 7.41066 10.5893C7.25438 10.433 7.16658 10.221 7.16658 10C7.16658 9.77901 7.25438 9.56705 7.41066 9.41077C7.56694 9.25449 7.7789 9.16669 7.99991 9.16669H9.66658V7.50002C9.66658 7.27901 9.75438 7.06705 9.91066 6.91077C10.0669 6.75449 10.2789 6.66669 10.4999 6.66669C10.7209 6.66669 10.9329 6.75449 11.0892 6.91077C11.2454 7.06705 11.3332 7.27901 11.3332 7.50002V9.16669H12.9999C13.2209 9.16669 13.4329 9.25449 13.5892 9.41077C13.7454 9.56705 13.8332 9.77901 13.8332 10C13.8332 10.221 13.7454 10.433 13.5892 10.5893C13.4329 10.7456 13.2209 10.8334 12.9999 10.8334Z" fill="#666CF7"/>
<path d="M13.8333 17.845L16.6782 15H13.8333V17.845Z" fill="#666CF7"/>
</svg>
