<svg width="19" height="18" viewBox="0 0 19 18" fill="none" xmlns="http://www.w3.org/2000/svg">
<path d="M17.3034 5.55499e-07C17.0618 4.2538e-05 16.8303 0.0949227 16.6595 0.263715L12.7503 4.12742L12.7503 1.80002C12.7503 1.30296 12.3426 0.900031 11.8397 0.900031C11.3368 0.900031 10.9291 1.30296 10.9291 1.80002L10.9291 6.30004C10.929 6.79709 11.3368 7.20003 11.8397 7.20003L16.3927 7.20003C16.8956 7.20003 17.3033 6.79709 17.3033 6.30004C17.3033 5.80299 16.8956 5.40005 16.3927 5.40005L14.0379 5.40005L17.9471 1.53635C18.3027 1.18484 18.3026 0.614969 17.9469 0.263546C17.7762 0.0948382 17.5447 8.4458e-05 17.3034 5.55499e-07Z" fill="#92A2F8"/>
<path d="M6.3633 10.8111L1.81008 10.8111C1.30715 10.8111 0.899458 11.214 0.899458 11.7111C0.899458 12.2081 1.30715 12.6111 1.81008 12.6111L4.165 12.6111L0.255621 16.4748C-0.0937658 16.8324 -0.0837341 17.4021 0.277989 17.7474C0.630877 18.0843 1.19036 18.0843 1.54325 17.7474L5.45263 13.8837L5.45263 16.2111C5.45263 16.7082 5.86033 17.1111 6.36326 17.1111C6.86619 17.1111 7.27393 16.7082 7.27393 16.2111L7.27393 11.7111C7.27393 11.2141 6.86623 10.8111 6.3633 10.8111Z" fill="#92A2F8"/>
</svg>
