<svg width="19" height="19" viewBox="0 0 19 19" fill="none" xmlns="http://www.w3.org/2000/svg">
<path d="M15.252 0.325684V3.71073H18.6367L15.252 0.325684Z" fill="#666CF7"/>
<path d="M14.6953 4.82422C14.3879 4.82422 14.1387 4.57499 14.1387 4.26758V0H6.16016C5.23936 0 4.49023 0.749127 4.49023 1.66992V7.89276C4.67363 7.87613 4.85921 7.86719 5.04688 7.86719C6.9442 7.86719 8.64266 8.73466 9.76667 10.0938H15.8086C16.116 10.0938 16.3652 10.343 16.3652 10.6504C16.3652 10.9578 16.116 11.207 15.8086 11.207H10.5C10.848 11.886 11.0723 12.6382 11.1444 13.4336H15.8086C16.116 13.4336 16.3652 13.6828 16.3652 13.9902C16.3652 14.2976 16.116 14.5469 15.8086 14.5469H11.1444C10.9779 16.3852 9.99567 17.9916 8.56328 19H17.293C18.2138 19 18.9629 18.2509 18.9629 17.3301V4.82422H14.6953ZM15.8086 7.86719H7.64453C7.33712 7.86719 7.08789 7.61796 7.08789 7.31055C7.08789 7.00313 7.33712 6.75391 7.64453 6.75391H15.8086C16.116 6.75391 16.3652 7.00313 16.3652 7.31055C16.3652 7.61796 16.116 7.86719 15.8086 7.86719Z" fill="#666CF7"/>
<path d="M5.04688 8.98047C2.28449 8.98047 0.0371094 11.2278 0.0371094 13.9902C0.0371094 16.7526 2.28449 19 5.04688 19C7.80926 19 10.0566 16.7526 10.0566 13.9902C10.0566 11.2278 7.80926 8.98047 5.04688 8.98047ZM6.53125 14.5469H5.04688C4.73946 14.5469 4.49023 14.2976 4.49023 13.9902V11.7637C4.49023 11.4563 4.73946 11.207 5.04688 11.207C5.35429 11.207 5.60352 11.4563 5.60352 11.7637V13.4336H6.53125C6.83866 13.4336 7.08789 13.6828 7.08789 13.9902C7.08789 14.2976 6.83866 14.5469 6.53125 14.5469Z" fill="#666CF7"/>
</svg>
