<svg width="13" height="13" viewBox="0 0 13 13" fill="none" xmlns="http://www.w3.org/2000/svg">
<path d="M13.0002 3.47363H7.99316V6.5002H13.0002V3.47363Z" fill="#21A365"/>
<path d="M13.0002 6.5H7.99316V9.52656H13.0002V6.5Z" fill="#107C41"/>
<path d="M7.99297 3.47363H2.99609V6.5002H7.99297V3.47363Z" fill="#107C41"/>
<path d="M7.99307 9.52656V6.5H3.00635V9.52656V9.96328V11.9539C3.00635 12.2789 3.27041 12.543 3.59541 12.543H12.4009C12.7259 12.543 12.9899 12.2789 12.9899 11.9539V9.52656H7.99307Z" fill="#185B37"/>
<path d="M12.4009 0.457031H7.98291V3.48359H13.0001V1.04609C12.9899 0.721094 12.7259 0.457031 12.4009 0.457031Z" fill="#33C481"/>
<path d="M7.99316 0.457031H3.60566C3.28066 0.457031 3.0166 0.721094 3.0166 1.04609V3.47344H8.00332V0.457031H7.99316Z" fill="#21A365"/>
<path d="M6.04307 9.80078H0.660254C0.304785 9.80078 0.0102539 9.50625 0.0102539 9.15078V3.84922C0.0102539 3.49375 0.304785 3.19922 0.660254 3.19922H6.04307C6.39854 3.19922 6.69307 3.49375 6.69307 3.84922V9.15078C6.69307 9.50625 6.40869 9.80078 6.04307 9.80078Z" fill="#17864C"/>
<path d="M4.11318 8.36875L3.71709 7.64766C3.55459 7.36328 3.45303 7.17031 3.34131 6.95703H3.33115C3.23975 7.17031 3.14834 7.36328 2.996 7.64766L2.64053 8.36875H1.86865L2.96553 6.53047L1.89912 4.72266H2.68115L3.07725 5.47422C3.19912 5.69766 3.29053 5.88047 3.38193 6.08359H3.40225C3.50381 5.86016 3.5749 5.69766 3.69678 5.47422L4.09287 4.72266H4.86475L3.77803 6.5L4.90537 8.36875H4.11318Z" fill="white"/>
<path opacity="0.2" d="M6.77412 3.78809C6.77412 3.8084 6.77412 3.82871 6.77412 3.84902V9.15058C6.77412 9.50605 6.47959 9.80058 6.12412 9.80058H3.0874V10.3795H6.6624C7.01787 10.3795 7.3124 10.085 7.3124 9.72949V4.42793C7.32256 4.10293 7.07881 3.82871 6.77412 3.78809Z" fill="black"/>
</svg>
