<svg width="18" height="18" viewBox="0 0 18 18" fill="none" xmlns="http://www.w3.org/2000/svg">
<g clip-path="url(#clip0_963_7271)">
<path d="M6.13637 0H5.3182C5.09207 0 4.90909 0.182979 4.90909 0.409104V4.90909H0.409104C0.182979 4.90909 0 5.09207 0 5.3182V6.13637C0 6.36249 0.182979 6.54547 0.409104 6.54547H6.13637C6.36249 6.54547 6.54547 6.36249 6.54547 6.13637V0.409104C6.54547 0.182979 6.36249 0 6.13637 0Z" fill="#666CF7"/>
<path d="M17.591 4.90909H13.0909V0.409104C13.0909 0.182979 12.908 0 12.6819 0H11.8637C11.6376 0 11.4546 0.182979 11.4546 0.409104V6.13637C11.4546 6.36249 11.6376 6.54547 11.8637 6.54547H17.591C17.8171 6.54547 18.0001 6.36249 18.0001 6.13637V5.3182C18 5.09207 17.8171 4.90909 17.591 4.90909Z" fill="#666CF7"/>
<path d="M17.5909 11.4546H11.8636C11.6375 11.4546 11.4545 11.6376 11.4545 11.8637V17.591C11.4545 17.8171 11.6375 18.0001 11.8636 18.0001H12.6818C12.9079 18.0001 13.0909 17.8171 13.0909 17.591V13.0909H17.5909C17.817 13.0909 18 12.9079 18 12.6818V11.8637C18 11.6375 17.8171 11.4546 17.5909 11.4546Z" fill="#666CF7"/>
<path d="M6.13637 11.4546H0.409104C0.182979 11.4546 0 11.6375 0 11.8637V12.6818C0 12.9079 0.182979 13.0909 0.409104 13.0909H4.90909V17.5909C4.90909 17.817 5.09207 18 5.3182 18H6.13637C6.36249 18 6.54547 17.817 6.54547 17.5909V11.8637C6.54547 11.6375 6.36249 11.4546 6.13637 11.4546Z" fill="#666CF7"/>
</g>
<defs>
<clipPath id="clip0_963_7271">
<rect width="18" height="18" fill="white"/>
</clipPath>
</defs>
</svg>
