<svg width="18" height="18" viewBox="0 0 18 18" fill="none" xmlns="http://www.w3.org/2000/svg">
<path d="M17.9994 12.4364C17.9994 11.8855 17.5773 11.44 17.0531 11.44C16.5333 11.4413 16.1061 11.8855 16.1061 12.4364V14.4991L12.2867 10.6778C11.9173 10.3077 11.3194 10.3077 10.95 10.6778C10.5807 11.0471 10.5807 11.6469 10.95 12.0163L14.7511 15.8161H12.6979C12.1388 15.8174 11.6882 16.2407 11.6882 16.7624C11.6882 17.2854 12.1388 17.7081 12.6979 17.7081H16.989C17.5481 17.7081 17.9981 17.286 18 16.7624C17.9981 16.7484 17.9962 16.7376 17.9943 16.7237C17.9962 16.7059 18 16.6869 18 16.6685V12.4364H17.9994Z" fill="#92A2F8"/>
<path d="M5.71207 10.6778L1.8945 14.4991V12.4364C1.8945 11.8855 1.468 11.4413 0.946934 11.44C0.423962 11.44 0.00126935 11.8855 0.00126935 12.4364L0 16.6691C0 16.6875 0.00507739 16.7065 0.00634674 16.7243C0.00507739 16.7376 0.0025387 16.7484 0.00126935 16.763C0.0025387 17.2866 0.453157 17.7087 1.01167 17.7087H5.30334C5.86122 17.7087 6.31247 17.286 6.31247 16.763C6.31247 16.2413 5.86122 15.818 5.30334 15.8167H3.25017L7.05123 12.0169C7.41934 11.6475 7.41934 11.0478 7.05123 10.6784C6.68122 10.3077 6.08272 10.3077 5.71207 10.6778Z" fill="#92A2F8"/>
<path d="M12.2867 7.32097L16.1061 3.50214V5.56483C16.1061 6.11382 16.5333 6.5581 17.0531 6.56C17.5773 6.56 17.9994 6.11382 17.9994 5.56483V1.33092C17.9994 1.31251 17.9956 1.29347 17.9937 1.27697C17.9956 1.26364 17.9975 1.25095 17.9994 1.23762C17.9975 0.713379 17.5475 0.291321 16.989 0.291321H12.6979C12.1388 0.291321 11.6882 0.713379 11.6882 1.23762C11.6882 1.75869 12.1388 2.18328 12.6979 2.18455H14.7511L10.95 5.98435C10.5807 6.3531 10.5807 6.95159 10.95 7.32034C11.3194 7.69226 11.9173 7.69226 12.2867 7.32097Z" fill="#92A2F8"/>
<path d="M3.25017 2.18455H5.3027C5.86058 2.18328 6.31184 1.75869 6.31184 1.23762C6.31184 0.713379 5.86058 0.291321 5.3027 0.291321H1.01167C0.453157 0.291321 0.0025387 0.713379 0.00126935 1.23762C0.0025387 1.25095 0.00507739 1.26364 0.00634674 1.27697C0.00507739 1.29347 0 1.31188 0 1.33092L0.00126935 5.56546C0.00126935 6.11446 0.423962 6.56063 0.946934 6.56063C1.468 6.55873 1.8945 6.11446 1.8945 5.56546V3.50277L5.71207 7.32097C6.08272 7.69226 6.68122 7.69226 7.05123 7.32097C7.41934 6.95223 7.41934 6.35373 7.05123 5.98498L3.25017 2.18455Z" fill="#92A2F8"/>
</svg>
