<svg width="20" height="20" viewBox="0 0 20 20" fill="none" xmlns="http://www.w3.org/2000/svg">
<path d="M13.75 11.2888V16.2501H2.5V5.00007H6.25V2.50008H1.25C0.56 2.50008 0 3.06008 0 3.75008V17.5001C0 18.1913 0.56 18.7501 1.25 18.7501H15C15.6912 18.7501 16.25 18.1913 16.25 17.5001V11.2888H13.75Z" fill="#92A2F8"/>
<path d="M19.75 5.12507L14.75 1.37508C14.5625 1.23258 14.3075 1.21008 14.0963 1.31633C13.8838 1.42258 13.75 1.63883 13.75 1.87508V3.75007H11.875C8.08375 3.75007 5 6.83382 5 10.6251C5 10.9151 5.2 11.1676 5.48125 11.2338C5.52875 11.2451 5.5775 11.2501 5.625 11.2501C5.8575 11.2501 6.07625 11.1201 6.18375 10.9051L6.33125 10.6113C7.29 8.69257 9.2175 7.50007 11.3625 7.50007H13.75V9.37507C13.75 9.61132 13.8837 9.82757 14.095 9.93382C14.3062 10.0401 14.5613 10.0176 14.75 9.87507L19.75 6.12507C19.9075 6.00757 20 5.82132 20 5.62507C20 5.42882 19.9075 5.24257 19.75 5.12507Z" fill="#92A2F8"/>
</svg>
