<svg width="16" height="14" viewBox="0 0 16 14" fill="none" xmlns="http://www.w3.org/2000/svg">
<path d="M11 8.0311V12.0001H2V3.00011H5V1.00011H1C0.448 1.00011 0 1.44811 0 2.00011V13.0001C0 13.5531 0.448 14.0001 1 14.0001H12C12.553 14.0001 13 13.5531 13 13.0001V8.0311H11Z" fill="#666CF7"/>
<path d="M15.8 3.10011L11.8 0.100111C11.65 -0.0138884 11.446 -0.0318883 11.277 0.0531116C11.107 0.138111 11 0.311111 11 0.500111V2.00011H9.5C6.467 2.00011 4 4.4671 4 7.5001C4 7.7321 4.16 7.9341 4.385 7.9871C4.423 7.9961 4.462 8.0001 4.5 8.0001C4.686 8.0001 4.861 7.8961 4.947 7.7241L5.065 7.4891C5.832 5.9541 7.374 5.0001 9.09 5.0001H11V6.5001C11 6.6891 11.107 6.8621 11.276 6.9471C11.445 7.0321 11.649 7.0141 11.8 6.9001L15.8 3.90011C15.926 3.80611 16 3.65711 16 3.50011C16 3.34311 15.926 3.19411 15.8 3.10011Z" fill="#666CF7"/>
</svg>
