<svg width="15" height="15" viewBox="0 0 15 15" fill="none" xmlns="http://www.w3.org/2000/svg">
<path d="M9.375 1.25H3.75C3.0625 1.25 2.5 1.8125 2.5 2.5V12.5C2.5 13.1875 3.0625 13.75 3.75 13.75H11.25C11.9375 13.75 12.5 13.1875 12.5 12.5V4.375L9.375 1.25ZM3.75 12.5V2.5H8.75V5H11.25V12.5H3.75ZM10 6.25V9.375C10 10.7563 8.88125 11.875 7.5 11.875C6.11875 11.875 5 10.7563 5 9.375V5.3125C5 4.39375 5.7875 3.6625 6.725 3.75625C7.5375 3.8375 8.125 4.58125 8.125 5.4V9.375H6.875V5.3125C6.875 5.1375 6.7375 5 6.5625 5C6.3875 5 6.25 5.1375 6.25 5.3125V9.375C6.25 10.0625 6.8125 10.625 7.5 10.625C8.1875 10.625 8.75 10.0625 8.75 9.375V6.25H10Z" fill="#6590E2"/>
</svg>
