<svg width="17" height="17" viewBox="0 0 17 17" fill="none" xmlns="http://www.w3.org/2000/svg">
<path d="M14.6696 11.8363L12.9554 10.1221C12.8896 10.0557 12.8112 10.003 12.7249 9.96704C12.6386 9.93108 12.546 9.91256 12.4525 9.91256C12.359 9.91256 12.2664 9.93108 12.1801 9.96704C12.0938 10.003 12.0154 10.0557 11.9496 10.1221L9.41375 12.6579C9.3481 12.7241 9.29616 12.8026 9.26091 12.8889C9.22566 12.9752 9.20779 13.0676 9.20833 13.1608V14.875C9.20833 15.0629 9.28296 15.243 9.4158 15.3759C9.54864 15.5087 9.7288 15.5833 9.91667 15.5833H11.6308C11.7241 15.5839 11.8165 15.566 11.9028 15.5308C11.9891 15.4955 12.0676 15.4436 12.1337 15.3779L14.6696 12.8421C14.736 12.7762 14.7887 12.6979 14.8246 12.6116C14.8606 12.5253 14.8791 12.4327 14.8791 12.3392C14.8791 12.2457 14.8606 12.1531 14.8246 12.0668C14.7887 11.9804 14.736 11.9021 14.6696 11.8363V11.8363ZM11.3333 14.1667H10.625V13.4583L12.4525 11.6308L13.1608 12.3392L11.3333 14.1667ZM7.08333 14.1667H4.25C4.06214 14.1667 3.88197 14.092 3.74913 13.9592C3.61629 13.8264 3.54167 13.6462 3.54167 13.4583V3.54167C3.54167 3.35381 3.61629 3.17364 3.74913 3.0408C3.88197 2.90797 4.06214 2.83334 4.25 2.83334H7.79167V4.95834C7.79167 5.52192 8.01555 6.06243 8.41406 6.46094C8.81258 6.85946 9.35308 7.08334 9.91667 7.08334H12.0417V7.79167C12.0417 7.97953 12.1163 8.1597 12.2491 8.29254C12.382 8.42538 12.5621 8.5 12.75 8.5C12.9379 8.5 13.118 8.42538 13.2509 8.29254C13.3837 8.1597 13.4583 7.97953 13.4583 7.79167V6.375C13.4583 6.375 13.4583 6.375 13.4583 6.3325C13.451 6.26743 13.4367 6.20333 13.4158 6.14126V6.0775C13.3818 6.00467 13.3363 5.93773 13.2812 5.87917L9.03125 1.62917C8.9727 1.57407 8.90575 1.52865 8.83292 1.49459C8.81177 1.49159 8.79031 1.49159 8.76917 1.49459L8.5425 1.41667H4.25C3.68641 1.41667 3.14591 1.64056 2.7474 2.03907C2.34888 2.43758 2.125 2.97809 2.125 3.54167V13.4583C2.125 14.0219 2.34888 14.5624 2.7474 14.9609C3.14591 15.3595 3.68641 15.5833 4.25 15.5833H7.08333C7.27119 15.5833 7.45136 15.5087 7.5842 15.3759C7.71704 15.243 7.79167 15.0629 7.79167 14.875C7.79167 14.6871 7.71704 14.507 7.5842 14.3741C7.45136 14.2413 7.27119 14.1667 7.08333 14.1667ZM9.20833 3.83209L11.0429 5.66667H9.91667C9.7288 5.66667 9.54864 5.59204 9.4158 5.45921C9.28296 5.32637 9.20833 5.1462 9.20833 4.95834V3.83209ZM5.66667 9.91667H9.91667C10.1045 9.91667 10.2847 9.84204 10.4175 9.70921C10.5504 9.57637 10.625 9.3962 10.625 9.20834C10.625 9.02048 10.5504 8.84031 10.4175 8.70747C10.2847 8.57463 10.1045 8.5 9.91667 8.5H5.66667C5.4788 8.5 5.29864 8.57463 5.1658 8.70747C5.03296 8.84031 4.95833 9.02048 4.95833 9.20834C4.95833 9.3962 5.03296 9.57637 5.1658 9.70921C5.29864 9.84204 5.4788 9.91667 5.66667 9.91667ZM5.66667 7.08334H6.375C6.56286 7.08334 6.74303 7.00871 6.87587 6.87587C7.00871 6.74303 7.08333 6.56287 7.08333 6.375C7.08333 6.18714 7.00871 6.00698 6.87587 5.87414C6.74303 5.7413 6.56286 5.66667 6.375 5.66667H5.66667C5.4788 5.66667 5.29864 5.7413 5.1658 5.87414C5.03296 6.00698 4.95833 6.18714 4.95833 6.375C4.95833 6.56287 5.03296 6.74303 5.1658 6.87587C5.29864 7.00871 5.4788 7.08334 5.66667 7.08334ZM7.08333 11.3333H5.66667C5.4788 11.3333 5.29864 11.408 5.1658 11.5408C5.03296 11.6736 4.95833 11.8538 4.95833 12.0417C4.95833 12.2295 5.03296 12.4097 5.1658 12.5425C5.29864 12.6754 5.4788 12.75 5.66667 12.75H7.08333C7.27119 12.75 7.45136 12.6754 7.5842 12.5425C7.71704 12.4097 7.79167 12.2295 7.79167 12.0417C7.79167 11.8538 7.71704 11.6736 7.5842 11.5408C7.45136 11.408 7.27119 11.3333 7.08333 11.3333Z" fill="#758AF8"/>
</svg>
