<svg width="15" height="15" viewBox="0 0 15 15" fill="none" xmlns="http://www.w3.org/2000/svg">
<rect width="15" height="15" rx="2" fill="#758AF8"/>
<path d="M11.7 3H3.90001C3.73431 3 3.6 3.13432 3.6 3.3V7.2H3.3C3.13432 7.2 3 7.33432 3 7.5V11.7C3 11.8657 3.13432 12 3.3 12H7.5C7.66568 12 7.8 11.8657 7.8 11.7V11.4H11.7C11.8657 11.4 12 11.2657 12 11.1V3.3C12 3.13432 11.8657 3 11.7 3V3ZM7.2 11.4H3.6V7.8H7.2V11.4ZM11.4 10.8H7.8V7.5C7.8 7.33432 7.66568 7.2 7.5 7.2H4.19999V3.6H11.4V10.8Z" fill="white"/>
<path d="M8.40005 6.89995C8.47961 6.89993 8.55591 6.86832 8.61215 6.81205L10.2001 5.22415V5.99995C10.2001 6.16562 10.3344 6.29995 10.5001 6.29995C10.6657 6.29995 10.8001 6.16562 10.8001 5.99995V4.19995H9.00004C8.83436 4.19995 8.70004 4.33427 8.70004 4.49995C8.70004 4.66563 8.83436 4.79995 9.00004 4.79995H9.77584L8.18793 6.38785C8.0708 6.50502 8.07082 6.69498 8.188 6.81211C8.24425 6.86835 8.32052 6.89993 8.40005 6.89995Z" fill="white"/>
</svg>
