<svg width="16" height="16" viewBox="0 0 16 16" fill="none" xmlns="http://www.w3.org/2000/svg">
<g clip-path="url(#clip0_265_65)">
<path d="M5.90431 2.20056L5.24271 2.86216L5.6074 3.22681H4.17159V1.791L4.53628 2.15569L5.19787 1.49409L3.70378 0L2.20968 1.49409L2.87128 2.15569L3.23597 1.791V3.22681H1.80019L2.16484 2.86216L1.50325 2.20056L0.00915527 3.69462L1.50325 5.18875L2.16484 4.52716L1.80015 4.16247H3.23597V5.59825L2.87128 5.23356L2.20968 5.89516L3.70378 7.38928L5.19787 5.89516L4.53628 5.23356L4.17159 5.59825V4.16247H5.6074L5.24271 4.52716L5.90431 5.18875L7.39843 3.69462L5.90431 2.20056Z" fill="#666CF7"/>
<path d="M15.0183 6.60407C14.4812 6.60407 14.0458 7.0395 14.0458 7.57663V6.94407C14.0458 6.40694 13.6103 5.9715 13.0732 5.9715C12.5361 5.9715 12.1007 6.40694 12.1007 6.94407V6.41138C12.1007 5.87425 11.6652 5.43882 11.1281 5.43882C10.591 5.43882 10.1555 5.87425 10.1555 6.41138V1.53047C10.1555 0.993345 9.72008 0.557907 9.18296 0.557907C8.64583 0.557907 8.2104 0.993345 8.2104 1.53047V7.54566C7.34505 7.61478 6.66199 8.3406 6.66199 9.22341V11.3355L8.86124 14.0792L8.84874 16H14.4566L14.4657 14.0692L15.9909 11.6937V7.57663C15.9909 7.0395 15.5555 6.60407 15.0183 6.60407Z" fill="#666CF7"/>
</g>
<defs>
<clipPath id="clip0_265_65">
<rect width="16" height="16" fill="white"/>
</clipPath>
</defs>
</svg>
