<svg width="12" height="12" viewBox="0 0 12 12" fill="none" xmlns="http://www.w3.org/2000/svg">
<path d="M6 0C2.69159 0 0 2.69159 0 6C0 9.30841 2.69159 12 6 12C9.30841 12 12 9.30841 12 6C12 2.69159 9.30841 0 6 0ZM2.9932 4.87556C2.9433 5.02163 2.80673 5.11357 2.66053 5.11357C2.62284 5.11357 2.58452 5.10745 2.54686 5.09459C2.36311 5.03182 2.26505 4.83199 2.32781 4.64827C2.54009 4.02687 3.12389 3.60938 3.78056 3.60938C4.43677 3.60938 5.02043 4.02649 5.23296 4.64728C5.29584 4.83098 5.1979 5.03086 5.01422 5.09377C4.83049 5.15662 4.63062 5.05873 4.56773 4.87502C4.45254 4.53858 4.1362 4.3125 3.78056 4.3125C3.42466 4.3125 3.10823 4.53877 2.9932 4.87556ZM8.41613 7.94948C7.91156 8.79633 6.98576 9.32238 6 9.32238C5.01703 9.32238 4.09259 8.79855 3.58739 7.95537C3.48759 7.78882 3.54171 7.57291 3.70828 7.47312C3.8749 7.37334 4.09078 7.42748 4.19055 7.59401C4.56947 8.2264 5.2628 8.61926 6.00002 8.61926C6.73934 8.61926 7.4337 8.22471 7.81214 7.58958C7.91152 7.42277 8.12728 7.36807 8.29409 7.46752C8.46087 7.56689 8.51552 7.7827 8.41613 7.94948ZM9.45525 5.09377C9.2715 5.15662 9.07165 5.05873 9.00877 4.87502C8.89357 4.53858 8.57723 4.3125 8.22159 4.3125C7.86569 4.3125 7.54927 4.53877 7.43423 4.87556C7.38434 5.02163 7.24777 5.11357 7.10156 5.11357C7.06388 5.11357 7.02555 5.10745 6.98789 5.09459C6.80414 5.03182 6.70608 4.83199 6.76884 4.64827C6.98114 4.02687 7.56495 3.60938 8.22159 3.60938C8.8778 3.60938 9.46146 4.02649 9.67399 4.64728C9.73687 4.83098 9.63893 5.03086 9.45525 5.09377Z" fill="#A5A5A5"/>
</svg>
