<svg width="20" height="20" viewBox="0 0 20 20" fill="none" xmlns="http://www.w3.org/2000/svg">
<path fill-rule="evenodd" clip-rule="evenodd" d="M6.66749 4.22584C7.64833 3.65834 8.78666 3.33334 9.99999 3.33334C13.6792 3.33334 16.6667 6.32084 16.6667 10C16.6667 13.6792 13.6792 16.6667 9.99999 16.6667C6.32082 16.6667 3.33332 13.6792 3.33332 10C3.33332 8.78667 3.65832 7.64834 4.22582 6.66751C4.45666 6.26917 4.31999 5.75917 3.92249 5.52917C3.52416 5.29834 3.01416 5.43417 2.78332 5.83251C2.07332 7.05834 1.66666 8.48251 1.66666 10C1.66666 14.5992 5.40082 18.3333 9.99999 18.3333C14.5992 18.3333 18.3333 14.5992 18.3333 10C18.3333 5.40084 14.5992 1.66667 9.99999 1.66667C8.48249 1.66667 7.05832 2.07334 5.83249 2.78334C5.43416 3.01417 5.29832 3.52417 5.52916 3.92251C5.75916 4.32001 6.26916 4.45667 6.66749 4.22584Z" fill="#92A2F8"/>
<path fill-rule="evenodd" clip-rule="evenodd" d="M7.91666 7.58334V11.5833C7.91666 12.0433 8.28999 12.4167 8.74999 12.4167H12.0833C12.5433 12.4167 12.9166 12.0433 12.9166 11.5833C12.9166 11.1233 12.5433 10.75 12.0833 10.75H9.58332V7.58334C9.58332 7.12333 9.20999 6.75 8.74999 6.75C8.28999 6.75 7.91666 7.12333 7.91666 7.58334Z" fill="#92A2F8"/>
<path fill-rule="evenodd" clip-rule="evenodd" d="M8.2675 3.77333L6.8425 3.235L7.38083 1.81C7.54333 1.37917 7.32666 0.898335 6.89583 0.735835C6.46583 0.573335 5.985 0.790002 5.8225 1.22084L4.98916 3.42583C4.82583 3.85583 5.04333 4.33667 5.47416 4.49917L7.67833 5.3325C8.10916 5.495 8.59 5.27833 8.7525 4.8475C8.915 4.4175 8.69833 3.93667 8.2675 3.77333Z" fill="#92A2F8"/>
</svg>
