<svg width="18" height="18" viewBox="0 0 18 18" fill="none" xmlns="http://www.w3.org/2000/svg">
<g clip-path="url(#clip0_575_691)">
<path d="M11.7 7.2C11.9387 7.19996 12.1675 7.10508 12.3363 6.93629L16.2 3.07259V5.39999C16.2 5.89704 16.6029 6.29997 17.1 6.29997C17.597 6.29997 18 5.89704 18 5.39999V0.899984C18 0.402932 17.597 0 17.1 0H12.6C12.103 0 11.7 0.402932 11.7 0.899984C11.7 1.39704 12.103 1.79997 12.6 1.79997H14.9274L11.0637 5.66366C10.7123 6.01517 10.7124 6.58504 11.0639 6.93646C11.2326 7.10516 11.4614 7.19992 11.7 7.2Z" fill="#92A2F8"/>
<path d="M0.899985 18H5.39999C5.89704 18 6.29998 17.5971 6.29998 17.1C6.29998 16.603 5.89704 16.2 5.39999 16.2H3.0726L6.93629 12.3363C7.28159 11.9788 7.27168 11.409 6.91418 11.0637C6.56542 10.7268 6.01247 10.7268 5.66371 11.0637L1.80001 14.9274V12.6C1.80001 12.103 1.39708 11.7 0.900027 11.7C0.402974 11.7 0 12.103 0 12.6V17.1C0 17.597 0.402932 18 0.899985 18Z" fill="#92A2F8"/>
</g>
<defs>
<clipPath id="clip0_575_691">
<rect width="18" height="18" fill="white"/>
</clipPath>
</defs>
</svg>
