<svg width="16" height="16" viewBox="0 0 16 16" fill="none" xmlns="http://www.w3.org/2000/svg">
<path d="M2 15.5C1.60218 15.5 1.22064 15.342 0.93934 15.0607C0.658035 14.7794 0.5 14.3978 0.5 14V4.25C0.501191 3.2558 0.896662 2.30267 1.59967 1.59967C2.30267 0.896662 3.2558 0.501191 4.25 0.5H11.75C12.7442 0.501191 13.6973 0.896662 14.4003 1.59967C15.1033 2.30267 15.4988 3.2558 15.5 4.25V8.75C15.4988 9.7442 15.1033 10.6973 14.4003 11.4003C13.6973 12.1033 12.7442 12.4988 11.75 12.5H4.87175C4.70346 12.4997 4.53995 12.5559 4.4075 12.6598L3.188 14.8888C3.15407 14.9514 3.11111 15.0088 3.0605 15.059C2.92137 15.1986 2.7561 15.3094 2.57413 15.385C2.39217 15.4607 2.19707 15.4998 2 15.5V15.5ZM4.25 2C3.65326 2 3.08097 2.23705 2.65901 2.65901C2.23705 3.08097 2 3.65326 2 4.25V13.9355L3.15275 11.8295C3.18695 11.767 3.22988 11.7097 3.28025 11.6593C3.48868 11.4495 3.73669 11.2832 4.00989 11.17C4.28309 11.0569 4.57604 10.9991 4.87175 11H11.75C12.3467 11 12.919 10.7629 13.341 10.341C13.763 9.91904 14 9.34674 14 8.75V4.25C14 3.65326 13.763 3.08097 13.341 2.65901C12.919 2.23705 12.3467 2 11.75 2H4.25Z" fill="#666CF7"/>
<path d="M8 7.25C7.80109 7.25 7.61032 7.17098 7.46967 7.03033C7.32902 6.88968 7.25 6.69891 7.25 6.5V4.25C7.25 4.05109 7.32902 3.86032 7.46967 3.71967C7.61032 3.57902 7.80109 3.5 8 3.5C8.19891 3.5 8.38968 3.57902 8.53033 3.71967C8.67098 3.86032 8.75 4.05109 8.75 4.25V6.5C8.75 6.69891 8.67098 6.88968 8.53033 7.03033C8.38968 7.17098 8.19891 7.25 8 7.25Z" fill="#666CF7"/>
<path d="M8 8.50001C8.41421 8.50001 8.75 8.16422 8.75 7.75C8.75 7.33579 8.41421 7 8 7C7.58579 7 7.25 7.33579 7.25 7.75C7.25 8.16422 7.58579 8.50001 8 8.50001Z" fill="#666CF7"/>
</svg>
