<svg width="13" height="13" viewBox="0 0 13 13" fill="none" xmlns="http://www.w3.org/2000/svg">
<path d="M6.50005 4.64075C6.17713 4.64075 5.94753 4.77709 5.94753 4.97801V7.7119C5.94753 7.88409 6.17716 8.05632 6.50005 8.05632C6.8086 8.05632 7.05974 7.88409 7.05974 7.7119V4.97801C7.05974 4.77709 6.8086 4.64075 6.50005 4.64075Z" fill="#666CF7"/>
<path d="M6.50005 2.95448C6.16997 2.95448 5.91165 3.19128 5.91165 3.46395C5.91165 3.73662 6.16997 3.98059 6.50005 3.98059C6.82297 3.98059 7.08129 3.73662 7.08129 3.46395C7.08129 3.1913 6.82294 2.95448 6.50005 2.95448Z" fill="#666CF7"/>
<path d="M6.5 0C3.41245 0 0.914062 2.49712 0.914062 5.58271C0.914062 8.10225 2.57291 10.1943 4.80942 10.9048L6.07976 12.7773C6.17426 12.9166 6.33166 13 6.5 13C6.66834 13 6.82574 12.9166 6.92024 12.7773L8.19058 10.9048C10.4281 10.194 12.0859 8.10116 12.0859 5.58271C12.0859 2.49516 9.58554 0 6.5 0ZM7.73513 9.98103C7.61947 10.0134 7.51905 10.0856 7.45164 10.185L6.5 11.5877L5.54838 10.185C5.48095 10.0857 5.38053 10.0134 5.26487 9.98106C3.36113 9.44874 1.92969 7.69796 1.92969 5.58271C1.92969 3.06439 3.97993 1.01562 6.5 1.01562C9.02007 1.01562 11.0703 3.06439 11.0703 5.58271C11.0703 7.70006 9.63676 9.44932 7.73513 9.98103Z" fill="#666CF7"/>
</svg>
