<svg width="15" height="15" viewBox="0 0 15 15" fill="none" xmlns="http://www.w3.org/2000/svg">
<g clip-path="url(#clip0_2_446)">
<path d="M11.9408 2.56868C11.0305 0.997661 9.4135 0.0378662 7.6154 0.00118652C7.53865 -0.000395508 7.46139 -0.000395508 7.3846 0.00118652C5.58654 0.0378662 3.96958 0.997661 3.05921 2.56868C2.12869 4.1745 2.10323 6.1034 2.9911 7.72853L6.71072 14.5367C6.71239 14.5398 6.71406 14.5428 6.71578 14.5458C6.87944 14.8302 7.17261 15 7.50006 15C7.82748 15 8.12066 14.8302 8.28428 14.5458C8.28601 14.5428 8.28768 14.5398 8.28935 14.5367L12.009 7.72853C12.8968 6.1034 12.8713 4.1745 11.9408 2.56868ZM7.5 6.79689C6.33689 6.79689 5.39063 5.85063 5.39063 4.68751C5.39063 3.5244 6.33689 2.57814 7.5 2.57814C8.66312 2.57814 9.60938 3.5244 9.60938 4.68751C9.60938 5.85063 8.66315 6.79689 7.5 6.79689Z" fill="#666CF7"/>
</g>
<defs>
<clipPath id="clip0_2_446">
<rect width="15" height="15" fill="white"/>
</clipPath>
</defs>
</svg>
