<svg width="21" height="20" viewBox="0 0 21 20" fill="none" xmlns="http://www.w3.org/2000/svg">
<g clip-path="url(#clip0_575_612)">
<path d="M20.0578 3.97348L13.9207 10L20.0578 16.0265C20.1688 15.7973 20.2361 15.544 20.2361 15.2734V4.72657C20.2361 4.45598 20.1688 4.20266 20.0578 3.97348Z" fill="#92A2F8"/>
<path d="M18.4575 2.96875H1.77858C1.5048 2.96875 1.24849 3.03527 1.0166 3.14492L8.86057 10.8583C9.55413 11.5438 10.682 11.5438 11.3755 10.8583L19.2195 3.14492C18.9876 3.03527 18.7313 2.96875 18.4575 2.96875Z" fill="#92A2F8"/>
<path d="M0.178251 3.97348C0.0673087 4.20266 0 4.45598 0 4.72657V15.2734C0 15.544 0.0673087 15.7974 0.178251 16.0265L6.31544 10L0.178251 3.97348Z" fill="#92A2F8"/>
<path d="M13.0823 10.8286L12.2139 11.6869C11.0582 12.829 9.17783 12.829 8.0222 11.6869L7.15378 10.8286L1.0166 16.8551C1.24849 16.9647 1.5048 17.0312 1.77858 17.0312H18.4575C18.7313 17.0312 18.9876 16.9647 19.2195 16.8551L13.0823 10.8286Z" fill="#92A2F8"/>
</g>
<defs>
<clipPath id="clip0_575_612">
<rect width="20.2361" height="20" fill="white"/>
</clipPath>
</defs>
</svg>
