<svg width="15" height="15" viewBox="0 0 15 15" fill="none" xmlns="http://www.w3.org/2000/svg">
<path d="M4.51224 5.28463C4.48359 5.30484 4.4617 5.33179 4.44541 5.36718L4.12558 6.1652L3.80463 5.36493C3.79031 5.33235 3.76813 5.3054 3.73948 5.28463C3.67795 5.2403 3.52578 5.22671 3.44941 5.3054C3.4146 5.34079 3.39606 5.3857 3.39606 5.43512V6.45216C3.39606 6.49148 3.41065 6.52798 3.43845 6.5566L3.43986 6.55772C3.49602 6.61332 3.5898 6.61388 3.65103 6.55772C3.67994 6.52851 3.69512 6.492 3.69512 6.45213V5.85404L3.95035 6.48527C3.96494 6.52007 3.98882 6.54817 4.01944 6.56838C4.08122 6.61107 4.16967 6.61051 4.23031 6.56894C4.26204 6.54872 4.28563 6.52063 4.30136 6.48412L4.55633 5.85401V6.4521C4.55633 6.49253 4.57177 6.52903 4.60127 6.55824C4.62992 6.58575 4.66643 6.60037 4.70656 6.60037C4.74729 6.60037 4.78379 6.58578 4.81241 6.55713C4.84022 6.52848 4.8551 6.49197 4.8551 6.4521V5.43506C4.8551 5.38508 4.83685 5.34073 4.8026 5.30589C4.7315 5.23204 4.57781 5.23737 4.51224 5.28463Z" fill="black"/>
<path d="M5.75698 5.3638C5.74406 5.33403 5.72441 5.30763 5.6969 5.28516C5.66769 5.26269 5.63259 5.25092 5.57531 5.25092C5.53489 5.25092 5.49979 5.26272 5.46888 5.28631C5.44304 5.30763 5.42338 5.33403 5.4102 5.36438L4.97608 6.38927C4.96653 6.41119 4.96149 6.43252 4.96149 6.45218C4.96149 6.49093 4.97552 6.52685 5.00192 6.5555L5.00332 6.5572C5.05219 6.60663 5.13949 6.61337 5.19287 6.57575C5.21786 6.55946 5.23697 6.53758 5.24959 6.50837L5.34226 6.28709H5.82522L5.91844 6.51004C5.9308 6.53755 5.94988 6.56002 5.9729 6.57461C5.99734 6.59201 6.0257 6.60045 6.05713 6.60045C6.09926 6.60045 6.13603 6.58527 6.16553 6.5555C6.19163 6.52685 6.2057 6.49149 6.2057 6.45218C6.2057 6.43307 6.20092 6.4123 6.19166 6.38983L5.75698 5.3638ZM5.46158 6.00176L5.58372 5.70748L5.70586 6.00176H5.46158Z" fill="black"/>
<path d="M7.23676 5.29583C7.20952 5.32504 7.19493 5.36098 7.19493 5.40086V6.09051L6.66813 5.33011C6.61786 5.26495 6.55833 5.25092 6.51734 5.25092H6.49516C6.44489 5.25092 6.39968 5.27002 6.36573 5.30538C6.33092 5.34077 6.31238 5.38568 6.31238 5.43511V6.45215C6.31238 6.49146 6.32697 6.52797 6.35477 6.55659L6.35618 6.5577C6.4126 6.61331 6.50612 6.61387 6.56735 6.5577C6.59627 6.52849 6.61144 6.49199 6.61144 6.45212V5.7608L7.14076 6.52512C7.1576 6.5476 7.17837 6.56555 7.20281 6.57847C7.22891 6.59306 7.25786 6.60039 7.289 6.60039H7.30951C7.35837 6.60039 7.40302 6.58243 7.43923 6.5476C7.47489 6.5122 7.4937 6.46729 7.4937 6.41787V5.40086C7.4937 5.36043 7.47852 5.32392 7.44961 5.29416C7.39289 5.238 7.29351 5.23688 7.23676 5.29583Z" fill="black"/>
<path d="M8.53605 5.29644C8.5091 5.32565 8.49477 5.36159 8.49477 5.40088V6.07872C8.49477 6.13318 8.48326 6.17757 8.45994 6.21351C8.43606 6.24946 8.40518 6.27641 8.36642 6.29493C8.28134 6.33369 8.1839 6.3331 8.09994 6.29493C8.06036 6.27638 8.02945 6.24943 8.00586 6.21351C7.98228 6.17701 7.97077 6.13321 7.97077 6.07872V5.40088C7.97077 5.36045 7.95559 5.32395 7.92668 5.29418C7.86996 5.23802 7.77225 5.23635 7.71383 5.29588C7.68659 5.32509 7.672 5.36104 7.672 5.40091V6.07368C7.672 6.18882 7.70036 6.28878 7.75623 6.37075C7.81154 6.45161 7.88343 6.51228 7.96962 6.55101C8.0533 6.58919 8.14174 6.60884 8.23274 6.60884C8.324 6.60884 8.41274 6.58919 8.49556 6.55157C8.58205 6.51225 8.65421 6.45161 8.70981 6.37075C8.76542 6.28875 8.79348 6.18879 8.79348 6.07368V5.40088C8.79348 5.36101 8.7786 5.3245 8.74913 5.29418C8.69188 5.23802 8.59558 5.23576 8.53605 5.29644Z" fill="black"/>
<path d="M9.65304 5.3638C9.64012 5.33403 9.62046 5.30763 9.59295 5.28516C9.56375 5.26269 9.52865 5.25092 9.47137 5.25092C9.43094 5.25092 9.39585 5.26272 9.36494 5.28631C9.3391 5.30763 9.31944 5.33403 9.30626 5.36438L8.87213 6.38927C8.86258 6.41119 8.85754 6.43252 8.85754 6.45218C8.85754 6.49093 8.87158 6.52685 8.89797 6.5555L8.89938 6.5572C8.94851 6.60663 9.03529 6.61337 9.08893 6.57575C9.11392 6.55946 9.13302 6.53758 9.14565 6.50837L9.23832 6.28709H9.72128L9.8145 6.51004C9.82686 6.53755 9.84593 6.56002 9.86896 6.57461C9.89339 6.59201 9.92175 6.60045 9.95319 6.60045C9.99532 6.60045 10.0321 6.58527 10.0616 6.5555C10.0877 6.52685 10.1018 6.49149 10.1018 6.45218C10.1018 6.43307 10.097 6.4123 10.0877 6.38983L9.65304 5.3638ZM9.35764 6.00176L9.47978 5.70748L9.60192 6.00176H9.35764Z" fill="black"/>
<path d="M11.0983 6.33706C11.0694 6.30841 11.0326 6.29326 10.9925 6.29326H10.5076V5.40088C10.5076 5.36101 10.4927 5.3245 10.4629 5.29418C10.4056 5.23802 10.3093 5.23576 10.2498 5.29644C10.2228 5.32565 10.2085 5.36159 10.2085 5.40088V6.41288C10.2085 6.46119 10.2262 6.50384 10.261 6.53923L10.2616 6.53979C10.2961 6.57404 10.3399 6.59203 10.3879 6.59203H10.9925C11.0323 6.59203 11.0685 6.57744 11.0989 6.54934C11.1275 6.52013 11.1427 6.48363 11.1427 6.4432C11.1427 6.40277 11.1275 6.36627 11.0983 6.33706Z" fill="black"/>
<path d="M3.43989 6.55775C3.49605 6.61333 3.58983 6.61391 3.65106 6.55775C3.67998 6.52854 3.69515 6.49204 3.69515 6.45216V5.85407L3.95039 6.4853C3.96498 6.5201 3.98885 6.5482 4.01947 6.56841C4.08126 6.6111 4.1697 6.61054 4.23035 6.56897C4.26208 6.54876 4.28566 6.52069 4.30139 6.48418L4.55636 5.85407V6.45216C4.55636 6.49259 4.57183 6.5291 4.6013 6.55831C4.62996 6.58582 4.66646 6.60044 4.7066 6.60044C4.74732 6.60044 4.78382 6.58585 4.81245 6.55719C4.84025 6.52854 4.85513 6.49204 4.85513 6.45219V5.43515C4.85513 5.38517 4.83688 5.34081 4.80263 5.30598C4.73156 5.23203 4.57787 5.23737 4.5123 5.28462C4.48365 5.30484 4.46176 5.33179 4.44547 5.36718L4.12564 6.1652L3.80469 5.36493C3.79037 5.33235 3.76819 5.30539 3.73954 5.28462C3.67801 5.2403 3.52584 5.2267 3.44947 5.30542C3.41466 5.34081 3.39612 5.38573 3.39612 5.43515V6.45219C3.39612 6.49148 3.41071 6.52798 3.43851 6.55664L3.43989 6.55775Z" fill="black"/>
<path d="M5.00332 6.5572C5.05219 6.60663 5.13952 6.61337 5.19284 6.57575C5.21783 6.55946 5.23694 6.53755 5.24956 6.50834L5.34223 6.28706H5.82519L5.91841 6.51001C5.93077 6.53752 5.94988 6.55999 5.9729 6.57461C5.99734 6.59201 6.0257 6.60045 6.05713 6.60045C6.09926 6.60045 6.13603 6.58527 6.16553 6.55551C6.19166 6.52685 6.2057 6.49149 6.2057 6.45218C6.2057 6.43307 6.20092 6.4123 6.19166 6.38983L5.75698 5.3638C5.74406 5.33403 5.72441 5.30763 5.6969 5.28516C5.66769 5.26269 5.63259 5.25092 5.57531 5.25092C5.53489 5.25092 5.49979 5.26272 5.46888 5.28631C5.44307 5.30763 5.42338 5.33403 5.4102 5.36438L4.97608 6.3893C4.96653 6.41119 4.96149 6.43255 4.96149 6.4522C4.96149 6.49094 4.97552 6.52688 5.00192 6.55553L5.00332 6.5572ZM5.58375 5.70751L5.70589 6.00177H5.46161L5.58375 5.70751Z" fill="black"/>
<path d="M6.35621 6.55773C6.41267 6.61331 6.50615 6.61389 6.56738 6.55773C6.5963 6.52852 6.61148 6.49202 6.61148 6.45215V5.76083L7.14079 6.52515C7.15763 6.54763 7.17841 6.56558 7.20284 6.5785C7.22897 6.59309 7.25789 6.60042 7.28906 6.60042H7.30957C7.35844 6.60042 7.40309 6.58243 7.4393 6.54763C7.47495 6.51223 7.49379 6.46732 7.49379 6.4179V5.40086C7.49379 5.36043 7.47861 5.32392 7.4497 5.29416C7.39298 5.238 7.29357 5.23685 7.23685 5.29583C7.20961 5.32504 7.19502 5.36098 7.19502 5.40086V6.09051L6.66825 5.33011C6.61798 5.26495 6.55845 5.25092 6.51746 5.25092H6.49528C6.44501 5.25092 6.39981 5.27002 6.36585 5.30541C6.33105 5.3408 6.3125 5.38571 6.3125 5.43513V6.45218C6.3125 6.49146 6.32709 6.52797 6.35489 6.55662L6.35621 6.55773Z" fill="black"/>
<path d="M7.96969 6.55102C8.05336 6.5892 8.1418 6.60885 8.2328 6.60885C8.32406 6.60885 8.4128 6.5892 8.49562 6.55155C8.58211 6.51226 8.65427 6.45159 8.70987 6.37073C8.76548 6.28873 8.79357 6.18877 8.79357 6.07366V5.40088C8.79357 5.36101 8.77869 5.32451 8.74919 5.29418C8.69191 5.23802 8.59558 5.23577 8.53605 5.29641C8.5091 5.32562 8.49477 5.36157 8.49477 5.40088V6.07873C8.49477 6.13319 8.48326 6.17757 8.45997 6.21352C8.43609 6.24947 8.40521 6.27642 8.36645 6.29494C8.28137 6.3337 8.18393 6.33314 8.09997 6.29494C8.06039 6.27642 8.02948 6.24944 8.0059 6.21352C7.98231 6.17702 7.9708 6.13322 7.9708 6.07873V5.40088C7.9708 5.36045 7.95565 5.32395 7.92674 5.29418C7.87002 5.23802 7.77228 5.23632 7.71389 5.29585C7.68665 5.32506 7.67206 5.36101 7.67206 5.40088V6.07366C7.67206 6.18879 7.70042 6.28876 7.75629 6.37073C7.8116 6.45162 7.88349 6.51229 7.96969 6.55102Z" fill="black"/>
<path d="M9.59295 5.28516C9.56377 5.26269 9.52865 5.25092 9.47137 5.25092C9.43094 5.25092 9.39582 5.26272 9.36494 5.28631C9.3391 5.30763 9.31944 5.33403 9.30626 5.36438L8.87213 6.3893C8.86258 6.41119 8.85754 6.43255 8.85754 6.4522C8.85754 6.49094 8.87158 6.52688 8.89797 6.55553L8.89938 6.55723C8.94851 6.60666 9.03529 6.6134 9.0889 6.57578C9.11389 6.55949 9.13299 6.53758 9.14562 6.50837L9.23829 6.28709H9.72125L9.81447 6.51004C9.82683 6.53755 9.8459 6.56002 9.86893 6.57464C9.89336 6.59204 9.92172 6.60048 9.95319 6.60048C9.99529 6.60048 10.0321 6.5853 10.0616 6.55553C10.0877 6.52688 10.1017 6.49152 10.1017 6.4522C10.1017 6.4331 10.0969 6.41233 10.0877 6.38986L9.65301 5.36383C9.64012 5.33403 9.62046 5.30763 9.59295 5.28516ZM9.35764 6.00177L9.47978 5.70751L9.60192 6.00177H9.35764Z" fill="black"/>
<path d="M10.2615 6.53977C10.2961 6.57405 10.3399 6.59201 10.3879 6.59201H10.9925C11.0323 6.59201 11.0685 6.57742 11.0989 6.54932C11.1275 6.52011 11.1427 6.48361 11.1427 6.44318C11.1427 6.40275 11.1275 6.36625 11.0983 6.33704C11.0694 6.30838 11.0326 6.29324 10.9925 6.29324H10.5076V5.40088C10.5076 5.36101 10.4927 5.32451 10.4629 5.29418C10.4056 5.23802 10.3093 5.23577 10.2498 5.29641C10.2228 5.32562 10.2085 5.36157 10.2085 5.40088V6.41289C10.2085 6.46117 10.2262 6.50385 10.261 6.53924L10.2615 6.53977Z" fill="black"/>
<path d="M10.4062 0.0773926H1.81572C1.35599 0.0773926 0.981873 0.451543 0.981873 0.91124V13.0897C0.981873 13.5508 1.35602 13.9259 1.81572 13.9259H2.13913V14.1833C2.13913 14.5909 2.47083 14.9226 2.87864 14.9226H11.6606C11.7044 14.9226 11.749 14.9132 11.7931 14.9045C11.8741 14.9146 11.9559 14.9214 12.0395 14.9214C13.1306 14.9214 14.0182 14.0371 14.0182 12.9502C14.0182 11.9823 13.3192 11.1759 12.3998 11.0058V4.15417C12.3998 4.1518 12.3986 4.14972 12.3985 4.14737C12.3977 4.12962 12.3942 4.11251 12.3882 4.09575C12.3865 4.09098 12.3853 4.08626 12.3832 4.08163C12.3748 4.06335 12.3641 4.04609 12.3495 4.03118C12.3488 4.03051 12.3486 4.02957 12.3479 4.0289L11.7669 3.44832L11.2424 2.92379V0.91124C11.2423 0.451514 10.8673 0.0773926 10.4062 0.0773926ZM2.1391 1.81338V13.5716H1.81572C1.55137 13.5716 1.33616 13.3555 1.33616 13.0897V0.91124C1.33616 0.646895 1.55137 0.43168 1.81572 0.43168H10.4062C10.6719 0.43168 10.8881 0.646895 10.8881 0.91124V2.5695L9.44366 1.12508C9.42725 1.10876 9.40771 1.0976 9.3872 1.08887C9.3853 1.08805 9.38339 1.08758 9.38146 1.08682C9.36244 1.07949 9.34273 1.07557 9.32234 1.07504C9.32064 1.07501 9.31914 1.07407 9.31745 1.07407H9.30373C9.30283 1.07413 9.30195 1.07398 9.30107 1.07407H2.87861C2.4708 1.0741 2.1391 1.4058 2.1391 1.81338ZM13.6639 12.9502C13.6639 13.8417 12.9352 14.5672 12.0395 14.5672C11.1436 14.5672 10.4149 13.8417 10.4149 12.9502C10.4149 12.0543 11.1436 11.3256 12.0395 11.3256C12.9352 11.3256 13.6639 12.0543 13.6639 12.9502ZM12.0455 10.9716C12.0435 10.9716 12.0415 10.9713 12.0395 10.9713C10.9485 10.9713 10.0606 11.8591 10.0606 12.9502C10.0606 13.6199 10.3984 14.2119 10.9124 14.5683H2.87861C2.66618 14.5683 2.49339 14.3955 2.49339 14.1833V1.81338C2.49339 1.60115 2.66615 1.42839 2.87861 1.42839H9.1412V3.59296C9.1412 4.00077 9.47289 4.33247 9.88047 4.33247H12.0455V10.9716ZM11.4852 3.6677L11.7957 3.97818H9.8805C9.66827 3.97818 9.49551 3.80542 9.49551 3.59296V1.67961L11.4852 3.6677Z" fill="black"/>
<path d="M11.1427 8.81433H3.39597C3.29818 8.81433 3.21881 8.89367 3.21881 8.99149C3.21881 9.08928 3.29815 9.16865 3.39597 9.16865H11.1427C11.2405 9.16865 11.3198 9.08931 11.3198 8.99149C11.3198 8.89367 11.2405 8.81433 11.1427 8.81433Z" fill="black"/>
<path d="M3.21887 7.7226C3.21887 7.82039 3.29821 7.89976 3.39603 7.89976H11.1427C11.2405 7.89976 11.3199 7.82042 11.3199 7.7226C11.3199 7.62478 11.2406 7.54544 11.1427 7.54544H3.396C3.29821 7.54544 3.21887 7.62481 3.21887 7.7226Z" fill="black"/>
<path d="M11.1427 10.083H3.39597C3.29818 10.083 3.21881 10.1623 3.21881 10.2601C3.21881 10.358 3.29815 10.4373 3.39597 10.4373H11.1427C11.2405 10.4373 11.3198 10.358 11.3198 10.2601C11.3198 10.1623 11.2405 10.083 11.1427 10.083Z" fill="black"/>
<path d="M7.60725 11.3519H3.39597C3.29818 11.3519 3.21881 11.4312 3.21881 11.5291C3.21881 11.6268 3.29815 11.7062 3.39597 11.7062H7.60725C7.70504 11.7062 7.78441 11.6269 7.78441 11.5291C7.78441 11.4313 7.70504 11.3519 7.60725 11.3519Z" fill="black"/>
<path d="M11.3925 13.0427C11.3233 12.9735 11.2112 12.9735 11.142 13.0427C11.0728 13.1119 11.0728 13.224 11.142 13.2932L11.6121 13.7633C11.6453 13.7965 11.6903 13.8152 11.7373 13.8152C11.7844 13.8152 11.8294 13.7965 11.8626 13.7633L12.9368 12.6889C13.006 12.6197 13.006 12.5075 12.9368 12.4383C12.8676 12.3691 12.7555 12.3691 12.6863 12.4383L11.7373 13.3875L11.3925 13.0427Z" fill="black"/>
</svg>
