<svg width="17" height="19" viewBox="0 0 17 19" fill="none" xmlns="http://www.w3.org/2000/svg">
<g clip-path="url(#clip0_2_49)">
<path d="M16.2917 10.2917H0.708333C0.317132 10.2917 0 9.93721 0 9.49999C0 9.06276 0.317132 8.70832 0.708333 8.70832H16.2917C16.6829 8.70832 17 9.06276 17 9.49999C17 9.93721 16.6829 10.2917 16.2917 10.2917Z" fill="#6590E2"/>
<path d="M16.2917 15.8333H0.708333C0.317132 15.8333 0 15.4789 0 15.0417C0 14.6045 0.317132 14.25 0.708333 14.25H16.2917C16.6829 14.25 17 14.6045 17 15.0417C17 15.4789 16.6829 15.8333 16.2917 15.8333Z" fill="#6590E2"/>
<path d="M16.2917 4.75H0.708333C0.317132 4.75 0 4.39556 0 3.95833C0 3.52111 0.317132 3.16667 0.708333 3.16667H16.2917C16.6829 3.16667 17 3.52111 17 3.95833C17 4.39556 16.6829 4.75 16.2917 4.75Z" fill="#6590E2"/>
</g>
<defs>
<clipPath id="clip0_2_49">
<rect width="17" height="19" fill="white" transform="matrix(1 0 0 -1 0 19)"/>
</clipPath>
</defs>
</svg>
