<svg width="15" height="15" viewBox="0 0 15 15" fill="none" xmlns="http://www.w3.org/2000/svg">
<path d="M13.5 3.125C12.8062 2.90625 12.0437 2.8125 11.3125 2.8125C10.0938 2.8125 8.78125 3.0625 7.875 3.75C6.96875 3.0625 5.65625 2.8125 4.4375 2.8125C3.21875 2.8125 1.90625 3.0625 1 3.75V12.9062C1 13.0625 1.15625 13.2188 1.3125 13.2188C1.375 13.2188 1.40625 13.1875 1.46875 13.1875C2.3125 12.7812 3.53125 12.5 4.4375 12.5C5.65625 12.5 6.96875 12.75 7.875 13.4375C8.71875 12.9062 10.25 12.5 11.3125 12.5C12.3438 12.5 13.4062 12.6875 14.2812 13.1562C14.3438 13.1875 14.375 13.1875 14.4375 13.1875C14.5938 13.1875 14.75 13.0312 14.75 12.875V3.75C14.375 3.46875 13.9688 3.28125 13.5 3.125ZM13.5 11.5625C12.8125 11.3438 12.0625 11.25 11.3125 11.25C10.25 11.25 8.71875 11.6562 7.875 12.1875V5C8.71875 4.46875 10.25 4.0625 11.3125 4.0625C12.0625 4.0625 12.8125 4.15625 13.5 4.375V11.5625Z" fill="#758AF8"/>
<path d="M11.3125 6.5625C11.8625 6.5625 12.3937 6.61875 12.875 6.725V5.775C12.3812 5.68125 11.85 5.625 11.3125 5.625C10.25 5.625 9.2875 5.80625 8.5 6.14375V7.18125C9.20625 6.78125 10.1875 6.5625 11.3125 6.5625Z" fill="#758AF8"/>
<path d="M8.5 7.80626V8.84376C9.20625 8.44376 10.1875 8.22501 11.3125 8.22501C11.8625 8.22501 12.3937 8.28126 12.875 8.38751V7.43751C12.3812 7.34376 11.85 7.28751 11.3125 7.28751C10.25 7.28751 9.2875 7.47501 8.5 7.80626Z" fill="#758AF8"/>
<path d="M11.3125 8.95625C10.25 8.95625 9.2875 9.1375 8.5 9.475V10.5125C9.20625 10.1125 10.1875 9.89375 11.3125 9.89375C11.8625 9.89375 12.3937 9.95 12.875 10.0563V9.10625C12.3812 9.00625 11.85 8.95625 11.3125 8.95625Z" fill="#758AF8"/>
</svg>
