<svg width="10" height="10" viewBox="0 0 10 10" fill="none" xmlns="http://www.w3.org/2000/svg">
<path d="M8.75 1.25H3.75C3.58424 1.25 3.42527 1.31585 3.30806 1.43306C3.19085 1.55027 3.125 1.70924 3.125 1.875C3.125 2.04076 3.19085 2.19973 3.30806 2.31694C3.42527 2.43415 3.58424 2.5 3.75 2.5H8.75C8.91576 2.5 9.07473 2.43415 9.19194 2.31694C9.30915 2.19973 9.375 2.04076 9.375 1.875C9.375 1.70924 9.30915 1.55027 9.19194 1.43306C9.07473 1.31585 8.91576 1.25 8.75 1.25Z" fill="#7D8599"/>
<path d="M1.25 2.5C1.59518 2.5 1.875 2.22018 1.875 1.875C1.875 1.52982 1.59518 1.25 1.25 1.25C0.904822 1.25 0.625 1.52982 0.625 1.875C0.625 2.22018 0.904822 2.5 1.25 2.5Z" fill="#7D8599"/>
<path d="M8.75 4.375H3.75C3.58424 4.375 3.42527 4.44085 3.30806 4.55806C3.19085 4.67527 3.125 4.83424 3.125 5C3.125 5.16576 3.19085 5.32473 3.30806 5.44194C3.42527 5.55915 3.58424 5.625 3.75 5.625H8.75C8.91576 5.625 9.07473 5.55915 9.19194 5.44194C9.30915 5.32473 9.375 5.16576 9.375 5C9.375 4.83424 9.30915 4.67527 9.19194 4.55806C9.07473 4.44085 8.91576 4.375 8.75 4.375Z" fill="#7D8599"/>
<path d="M1.25 5.625C1.59518 5.625 1.875 5.34518 1.875 5C1.875 4.65482 1.59518 4.375 1.25 4.375C0.904822 4.375 0.625 4.65482 0.625 5C0.625 5.34518 0.904822 5.625 1.25 5.625Z" fill="#7D8599"/>
<path d="M8.75 7.5H3.75C3.58424 7.5 3.42527 7.56585 3.30806 7.68306C3.19085 7.80027 3.125 7.95924 3.125 8.125C3.125 8.29076 3.19085 8.44973 3.30806 8.56694C3.42527 8.68415 3.58424 8.75 3.75 8.75H8.75C8.91576 8.75 9.07473 8.68415 9.19194 8.56694C9.30915 8.44973 9.375 8.29076 9.375 8.125C9.375 7.95924 9.30915 7.80027 9.19194 7.68306C9.07473 7.56585 8.91576 7.5 8.75 7.5Z" fill="#7D8599"/>
<path d="M1.25 8.75C1.59518 8.75 1.875 8.47018 1.875 8.125C1.875 7.77982 1.59518 7.5 1.25 7.5C0.904822 7.5 0.625 7.77982 0.625 8.125C0.625 8.47018 0.904822 8.75 1.25 8.75Z" fill="#7D8599"/>
</svg>
