<svg width="14" height="14" viewBox="0 0 14 14" fill="none" xmlns="http://www.w3.org/2000/svg">
<path d="M6.99991 9.69207C7.74039 9.69207 8.37408 9.42845 8.9013 8.90143C9.42843 8.37442 9.69203 7.74041 9.69203 6.99999V2.69238C9.69203 1.95196 9.42864 1.31821 8.9013 0.790932C8.37408 0.263772 7.74039 0 6.99991 0C6.25952 0 5.62574 0.263772 5.09849 0.790932C4.57121 1.31812 4.30762 1.95196 4.30762 2.69238V6.99999C4.30762 7.74038 4.57133 8.37442 5.09849 8.90143C5.62565 9.42845 6.25952 9.69207 6.99991 9.69207Z" fill="#A5A5A5"/>
<path d="M11.6862 5.54454C11.5799 5.43795 11.4534 5.38464 11.3076 5.38464C11.1619 5.38464 11.0357 5.43795 10.929 5.54454C10.8225 5.6511 10.7692 5.77728 10.7692 5.92306V7.00004C10.7692 8.03774 10.4004 8.9253 9.66276 9.66287C8.9254 10.4005 8.03772 10.7693 6.99999 10.7693C5.96229 10.7693 5.0747 10.4005 4.33707 9.66287C3.59953 8.92551 3.23079 8.03777 3.23079 7.00004V5.92306C3.23079 5.77728 3.17748 5.6511 3.07096 5.54454C2.96437 5.43795 2.8383 5.38464 2.69237 5.38464C2.54645 5.38464 2.42023 5.43795 2.3137 5.54454C2.20709 5.6511 2.15381 5.77728 2.15381 5.92306V7.00004C2.15381 8.23963 2.56755 9.318 3.39479 10.235C4.22205 11.152 5.24429 11.6778 6.46151 11.8123V12.923H4.30769C4.16185 12.923 4.03567 12.9764 3.92911 13.0829C3.82252 13.1894 3.76921 13.3157 3.76921 13.4615C3.76921 13.6071 3.82252 13.7336 3.92911 13.8401C4.03567 13.9466 4.16185 14.0001 4.30769 14.0001H9.69214C9.83795 14.0001 9.96431 13.9466 10.0707 13.8401C10.1774 13.7336 10.2308 13.6072 10.2308 13.4615C10.2308 13.3157 10.1774 13.1895 10.0707 13.0829C9.96434 12.9764 9.83798 12.923 9.69214 12.923H7.53858V11.8123C8.7556 11.6778 9.77775 11.152 10.6051 10.235C11.4325 9.318 11.8463 8.23963 11.8463 7.00004V5.92306C11.8463 5.77731 11.7929 5.65121 11.6862 5.54454Z" fill="#A5A5A5"/>
</svg>
