<svg width="25" height="25" viewBox="0 0 25 25" fill="none" xmlns="http://www.w3.org/2000/svg">
<path d="M22.9306 0.537048H2.06948C0.92831 0.537048 0 1.46536 0 2.60653V19.4588C0 20.6 0.92831 21.5283 2.06948 21.5283H8.80207V23.0923H8.25523C7.85068 23.0923 7.5228 23.4202 7.5228 23.8247C7.5228 24.2293 7.85068 24.5572 8.25523 24.5572H16.7449C17.1494 24.5572 17.4773 24.2293 17.4773 23.8247C17.4773 23.4202 17.1494 23.0923 16.7449 23.0923H16.198V21.5283H22.9304C24.0716 21.5283 24.9999 20.6 24.9999 19.4588V2.60653C25.0001 1.46536 24.0718 0.537048 22.9306 0.537048ZM22.4038 16.4284C22.4038 16.8329 22.0759 17.1608 21.6714 17.1608H3.32872C2.92417 17.1608 2.59629 16.8329 2.59629 16.4284V3.68361C2.59629 3.27906 2.92417 2.95119 3.32872 2.95119H21.6714C22.0759 2.95119 22.4038 3.27906 22.4038 3.68361V16.4284Z" fill="white"/>
</svg>
