<svg width="20" height="20" viewBox="0 0 20 20" fill="none" xmlns="http://www.w3.org/2000/svg">
<g clip-path="url(#clip0_575_599)">
<path d="M5.58824 15.2437L3.65125 17.1807C3.42156 17.4104 3.0491 17.4104 2.81937 17.1807C2.58965 16.9509 2.58965 16.5785 2.81937 16.3488L4.75637 14.4118L3.82356 14.4118C3.49867 14.4118 3.23531 14.1484 3.23531 13.8236C3.23531 13.4987 3.49867 13.2353 3.82356 13.2353L6.17649 13.2353C6.50137 13.2353 6.76473 13.4987 6.76473 13.8236L6.76473 16.1765C6.76473 16.5014 6.50137 16.7647 6.17649 16.7647C5.8516 16.7647 5.58824 16.5014 5.58824 16.1765L5.58824 15.2437ZM10 20C9.67512 20 9.41176 19.7366 9.41176 19.4118C9.41176 19.0869 9.67512 18.8235 10 18.8235C10.3249 18.8235 10.5882 19.0869 10.5882 19.4118C10.5882 19.7366 10.3249 20 10 20ZM12.3529 20C12.028 20 11.7647 19.7366 11.7647 19.4118C11.7647 19.0869 12.028 18.8235 12.3529 18.8235C12.6778 18.8235 12.9412 19.0869 12.9412 19.4118C12.9412 19.7366 12.6778 20 12.3529 20ZM7.64707 20C7.32219 20 7.05883 19.7366 7.05883 19.4118C7.05883 19.0869 7.32219 18.8235 7.64707 18.8235C7.97195 18.8235 8.23531 19.0869 8.23531 19.4118C8.23531 19.7366 7.97191 20 7.64707 20ZM2.94117 20C2.61629 20 2.35293 19.7366 2.35293 19.4118C2.35293 19.0869 2.61629 18.8235 2.94117 18.8235C3.26605 18.8235 3.52941 19.0869 3.52941 19.4118C3.52941 19.7366 3.26605 20 2.94117 20ZM5.2941 20C4.96922 20 4.70586 19.7366 4.70586 19.4118C4.70586 19.0869 4.96922 18.8235 5.2941 18.8235C5.61898 18.8235 5.88234 19.0869 5.88234 19.4118C5.88234 19.7366 5.61898 20 5.2941 20ZM2.94117 8.23531C2.61629 8.23531 2.35293 7.97195 2.35293 7.64707C2.35293 7.32219 2.61629 7.05883 2.94117 7.05883C3.26606 7.05883 3.52941 7.32219 3.52941 7.64707C3.52941 7.97191 3.26606 8.23531 2.94117 8.23531ZM5.2941 8.23531C4.96922 8.23531 4.70586 7.97195 4.70586 7.64707C4.70586 7.32219 4.96922 7.05883 5.2941 7.05883C5.61899 7.05883 5.88235 7.32219 5.88235 7.64707C5.88235 7.97191 5.61899 8.23531 5.2941 8.23531ZM0.588243 8.23531C0.26336 8.23531 1.05153e-06 7.97195 1.07993e-06 7.64707C1.10833e-06 7.32219 0.26336 7.05883 0.588243 7.05883C0.913125 7.05883 1.17649 7.32219 1.17649 7.64707C1.17649 7.97191 0.913087 8.23531 0.588243 8.23531ZM0.588242 12.9412C0.26336 12.9412 6.40126e-07 12.6778 6.68528e-07 12.3529C6.9693e-07 12.028 0.26336 11.7647 0.588242 11.7647C0.913125 11.7647 1.17649 12.028 1.17649 12.3529C1.17649 12.6778 0.913087 12.9412 0.588242 12.9412ZM0.588242 17.6471C0.263359 17.6471 2.28723e-07 17.3837 2.57125e-07 17.0588C2.85528e-07 16.7339 0.263359 16.4706 0.588242 16.4706C0.913124 16.4706 1.17649 16.7339 1.17649 17.0588C1.17649 17.3837 0.913086 17.6471 0.588242 17.6471ZM0.588242 15.2941C0.263359 15.2941 4.34426e-07 15.0307 4.62828e-07 14.7059C4.91231e-07 14.381 0.26336 14.1176 0.588242 14.1176C0.913125 14.1176 1.17649 14.381 1.17649 14.7059C1.17649 15.0307 0.913086 15.2941 0.588242 15.2941ZM12.3529 17.6471C12.028 17.6471 11.7647 17.3837 11.7647 17.0588C11.7647 16.7339 12.028 16.4706 12.3529 16.4706C12.6778 16.4706 12.9412 16.7339 12.9412 17.0588C12.9412 17.3837 12.6778 17.6471 12.3529 17.6471ZM12.3529 15.2941C12.028 15.2941 11.7647 15.0307 11.7647 14.7059C11.7647 14.381 12.028 14.1176 12.3529 14.1176C12.6778 14.1176 12.9412 14.381 12.9412 14.7059C12.9412 15.0307 12.6778 15.2941 12.3529 15.2941ZM0.588242 10.5882C0.26336 10.5882 8.45826e-07 10.3249 8.74228e-07 10C9.0263e-07 9.67512 0.26336 9.41176 0.588243 9.41176C0.913125 9.41176 1.17649 9.67512 1.17649 10C1.17649 10.3249 0.913087 10.5882 0.588242 10.5882ZM0.588242 20C0.263359 20 2.30236e-08 19.7366 5.14258e-08 19.4118C7.98279e-08 19.0869 0.263359 18.8235 0.588242 18.8235C0.913124 18.8235 1.17649 19.0869 1.17649 19.4118C1.17649 19.7366 0.913086 20 0.588242 20ZM18.8243 1.17648L18.8236 1.1757C18.8235 1.1757 18.8243 1.17648 18.8243 1.17648ZM18.8235 11.7655L18.8243 11.7647C18.8243 11.7647 18.8235 11.7655 18.8235 11.7655ZM8.23449 11.7647L8.23527 11.7655C8.23531 11.7655 8.23453 11.7647 8.23449 11.7647ZM8.23531 1.17566L8.23453 1.17644C8.23453 1.17648 8.23531 1.1757 8.23531 1.17566ZM7.05883 1.17566C7.05883 0.52621 7.58457 -1.08539e-06 8.23449 -1.02857e-06L18.8243 -1.0278e-07C19.4738 -4.60028e-08 20 0.525742 20 1.17566L20 11.7655C20 12.415 19.4743 12.9412 18.8243 12.9412L8.23453 12.9412C7.58508 12.9412 7.05887 12.4154 7.05887 11.7655L7.05887 1.17566L7.05883 1.17566ZM8.23531 11.7647L18.8235 11.7647L18.8235 1.17644L8.23528 1.17644L8.23527 11.7647L8.23531 11.7647Z" fill="#92A2F8"/>
</g>
<defs>
<clipPath id="clip0_575_599">
<rect width="20" height="20" fill="white" transform="translate(20 20) rotate(-180)"/>
</clipPath>
</defs>
</svg>
