<svg width="11" height="10" viewBox="0 0 11 10" fill="none" xmlns="http://www.w3.org/2000/svg">
<path d="M3.97406 1.37535L3.55568 1.78885L3.7863 2.01676H2.87832V1.11937L3.10894 1.3473L3.52732 0.933809L2.58249 0L1.63766 0.933809L2.05604 1.3473L2.28666 1.11937V2.01676H1.3787L1.6093 1.78885L1.19092 1.37535L0.246094 2.30914L1.19092 3.24297L1.6093 2.82947L1.37868 2.60154H2.28666V3.49891L2.05604 3.27098L1.63766 3.68447L2.58249 4.6183L3.52732 3.68447L3.10894 3.27098L2.87832 3.49891V2.60154H3.7863L3.55568 2.82947L3.97406 3.24297L4.91891 2.30914L3.97406 1.37535Z" fill="#758AF8"/>
<path d="M9.73762 4.12748C9.39795 4.12748 9.12259 4.39963 9.12259 4.73533V4.33998C9.12259 4.00428 8.84723 3.73213 8.50756 3.73213C8.1679 3.73213 7.89254 4.00428 7.89254 4.33998V4.00705C7.89254 3.67135 7.61717 3.3992 7.27751 3.3992C6.93784 3.3992 6.66248 3.67135 6.66248 4.00705V0.956485C6.66248 0.620781 6.38712 0.348633 6.04745 0.348633C5.70779 0.348633 5.43243 0.620781 5.43243 0.956485V4.71598C4.8852 4.75918 4.45325 5.21281 4.45325 5.76457V7.08461L5.84401 8.79942L5.8361 9.99995H9.38236L9.38817 8.79321L10.3527 7.3085V4.73533C10.3526 4.39963 10.0773 4.12748 9.73762 4.12748Z" fill="#758AF8"/>
</svg>
