<svg width="15" height="15" viewBox="0 0 15 15" fill="none" xmlns="http://www.w3.org/2000/svg">
<path d="M7.5 0C3.35728 0 0 3.35728 0 7.5C0 9.73524 0.977362 11.7431 2.53051 13.1191C3.8563 14.2884 5.59547 15 7.5 15C9.40748 15 11.1467 14.2884 12.4695 13.1161C14.0226 11.7431 15 9.73524 15 7.5C15 3.35728 11.6427 0 7.5 0Z" fill="#D0E1FA"/>
<path d="M4.32 11C4.232 11 4.164 10.976 4.116 10.928C4.068 10.872 4.044 10.804 4.044 10.724V2.888C4.044 2.8 4.068 2.732 4.116 2.684C4.164 2.628 4.232 2.6 4.32 2.6H4.872C4.968 2.6 5.04 2.624 5.088 2.672C5.136 2.712 5.164 2.744 5.172 2.768L9.156 8.888V2.888C9.156 2.8 9.18 2.732 9.228 2.684C9.276 2.628 9.344 2.6 9.432 2.6H10.008C10.096 2.6 10.164 2.628 10.212 2.684C10.268 2.732 10.296 2.8 10.296 2.888V10.712C10.296 10.792 10.268 10.86 10.212 10.916C10.164 10.972 10.1 11 10.02 11H9.444C9.356 11 9.288 10.976 9.24 10.928C9.2 10.88 9.172 10.848 9.156 10.832L5.184 4.772V10.724C5.184 10.804 5.156 10.872 5.1 10.928C5.052 10.976 4.984 11 4.896 11H4.32Z" fill="white"/>
</svg>
