<svg width="10" height="10" viewBox="0 0 10 10" fill="none" xmlns="http://www.w3.org/2000/svg">
<g clip-path="url(#clip0_2275_4705)">
<path d="M1.09216 7.04708C1.72216 6.51458 2.08341 5.73625 2.08341 4.91167L2.08341 3.75C2.08341 2.28375 3.17258 1.07 4.58341 0.866666L4.58341 0.416666C4.58342 0.18625 4.77008 -3.84369e-07 5.00008 -3.64262e-07C5.23008 -3.44154e-07 5.41675 0.18625 5.41675 0.416666L5.41675 0.866666C6.828 1.07 7.91675 2.28375 7.91675 3.75L7.91675 4.91167C7.91675 5.73625 8.278 6.51458 8.91175 7.05042C9.07383 7.18917 9.16675 7.39083 9.16675 7.60417C9.16675 8.00625 8.83966 8.33333 8.43758 8.33333L1.56258 8.33333C1.1605 8.33333 0.833414 8.00625 0.833414 7.60417C0.833414 7.39083 0.926331 7.18917 1.09216 7.04708Z" fill="#7D8599"/>
<path d="M5.00017 10C4.24559 10 3.61434 9.46208 3.46934 8.75L6.53101 8.75C6.38601 9.46208 5.75476 10 5.00017 10Z" fill="#7D8599"/>
</g>
<defs>
<clipPath id="clip0_2275_4705">
<rect width="10" height="10" fill="white" transform="matrix(-1 -8.74228e-08 -8.74228e-08 1 10 0)"/>
</clipPath>
</defs>
</svg>
