<svg width="25" height="25" viewBox="0 0 25 25" fill="none" xmlns="http://www.w3.org/2000/svg">
<g clip-path="url(#clip0_2455_1354)">
<path d="M2.73016 17.6177C4.30516 16.2865 5.20829 14.3406 5.20829 12.2792L5.20829 9.375C5.20829 5.70937 7.9312 2.675 11.4583 2.16667L11.4583 1.04167C11.4583 0.465624 11.925 -9.58924e-07 12.5 -9.08761e-07C13.075 -8.58597e-07 13.5416 0.465624 13.5416 1.04167L13.5416 2.16667C17.0697 2.675 19.7916 5.70937 19.7916 9.375L19.7916 12.2792C19.7916 14.3406 20.6947 16.2865 22.2791 17.626C22.6843 17.9729 22.9166 18.4771 22.9166 19.0104C22.9166 20.0156 22.0989 20.8333 21.0937 20.8333L3.9062 20.8333C2.90099 20.8333 2.08328 20.0156 2.08328 19.0104C2.08328 18.4771 2.31558 17.9729 2.73016 17.6177Z" fill="#758AF8"/>
<path d="M12.4999 25C10.6135 25 9.03536 23.6552 8.67286 21.875L16.327 21.875C15.9645 23.6552 14.3864 25 12.4999 25Z" fill="#758AF8"/>
</g>
<defs>
<clipPath id="clip0_2455_1354">
<rect width="25" height="25" fill="white" transform="matrix(-1 -8.7241e-08 -8.76049e-08 1 25 0)"/>
</clipPath>
</defs>
</svg>
