<svg width="21" height="21" viewBox="0 0 21 21" fill="none" xmlns="http://www.w3.org/2000/svg">
<g clip-path="url(#clip0_2_18)">
<path d="M2.29337 14.7989C3.61637 13.6806 4.375 12.0461 4.375 10.3145L4.375 7.875C4.375 4.79587 6.66225 2.247 9.625 1.82L9.625 0.874999C9.625 0.391124 10.017 -8.07175e-07 10.5 -7.64949e-07C10.983 -7.22724e-07 11.375 0.391124 11.375 0.874999L11.375 1.82C14.3386 2.247 16.625 4.79587 16.625 7.875L16.625 10.3145C16.625 12.0461 17.3836 13.6806 18.7145 14.8059C19.0549 15.0972 19.25 15.5208 19.25 15.9688C19.25 16.8131 18.5631 17.5 17.7187 17.5L3.28125 17.5C2.43687 17.5 1.75 16.8131 1.75 15.9687C1.75 15.5207 1.94512 15.0972 2.29337 14.7989Z" fill="#C4C4C4"/>
<path d="M10.5 21C8.91535 21 7.58972 19.8704 7.28522 18.375L13.7147 18.375C13.4102 19.8704 12.0846 21 10.5 21Z" fill="#C4C4C4"/>
</g>
<defs>
<clipPath id="clip0_2_18">
<rect width="21" height="21" fill="white" transform="matrix(-1 -8.74228e-08 -8.74228e-08 1 21 0)"/>
</clipPath>
</defs>
</svg>
