<svg width="13" height="13" viewBox="0 0 13 13" fill="none" xmlns="http://www.w3.org/2000/svg">
<g clip-path="url(#clip0_2_355)">
<path d="M9.79616 5.0716H5.66653L5.36558 3.02182C5.29571 2.54594 4.84502 2.15658 4.36403 2.15658H0.756664C0.275681 2.15658 -0.0606862 2.54594 0.00918746 3.02182L1.15748 10.8434H11.8703L10.8486 5.9278C10.7508 5.45688 10.2771 5.0716 9.79616 5.0716Z" fill="#7D8599"/>
<path d="M12.2535 3.03109H6.25085L6.42203 4.19708H9.79619C10.2292 4.19708 10.6631 4.35607 11.018 4.64474C11.3728 4.93342 11.6168 5.3259 11.7049 5.74987L12.2602 8.42174L12.989 3.8945C13.0655 3.41964 12.7345 3.03109 12.2535 3.03109Z" fill="#7D8599"/>
</g>
<defs>
<clipPath id="clip0_2_355">
<rect width="13" height="13" fill="white"/>
</clipPath>
</defs>
</svg>
