<svg width="17" height="21" viewBox="0 0 17 21" fill="none" xmlns="http://www.w3.org/2000/svg">
<path d="M10.2452 0H2.2591C1.16101 0 0.262573 0.9375 0.262573 2.08333V18.75C0.262573 19.8958 1.15103 20.8333 2.24911 20.8333H14.2382C15.3363 20.8333 16.2348 19.8958 16.2348 18.75V6.25L10.2452 0ZM11.2834 18.1771L9.40665 16.2187C8.07896 16.9583 6.40188 16.7708 5.28383 15.6042C3.91621 14.1771 3.91621 11.875 5.28383 10.4479C6.65145 9.02083 8.85761 9.02083 10.2252 10.4479C11.3433 11.6146 11.5329 13.3646 10.8142 14.75L12.6909 16.7083L11.2834 18.1771ZM9.24693 7.29166V1.5625L14.7374 7.29166H9.24693Z" fill="#666CF7"/>
<path d="M7.74951 14.5833C8.57649 14.5833 9.24689 13.8838 9.24689 13.0208C9.24689 12.1579 8.57649 11.4583 7.74951 11.4583C6.92253 11.4583 6.25214 12.1579 6.25214 13.0208C6.25214 13.8838 6.92253 14.5833 7.74951 14.5833Z" fill="#666CF7"/>
</svg>
