<svg width="20" height="20" viewBox="0 0 20 20" fill="none" xmlns="http://www.w3.org/2000/svg">
<path d="M18.3192 4.76986L16.0648 1.95205C15.9671 1.82984 15.8431 1.73117 15.702 1.66336C15.561 1.59555 15.4065 1.56033 15.25 1.5603H15.2482C15.0741 1.56022 14.9033 1.60759 14.7541 1.69732C14.6049 1.78705 14.483 1.91574 14.4014 2.06957C14.3199 2.2234 14.2818 2.39654 14.2913 2.57039C14.3008 2.74423 14.3575 2.9122 14.4553 3.05624L15.1881 4.14486H2.50885C2.26021 4.14486 2.02175 4.24364 1.84594 4.41945C1.67012 4.59527 1.57135 4.83372 1.57135 5.08236C1.57135 5.331 1.67012 5.56946 1.84594 5.74528C2.02175 5.92109 2.26021 6.01986 2.50885 6.01986H15.1879L14.4553 7.10855C14.3576 7.25257 14.3009 7.42049 14.2915 7.59428C14.282 7.76806 14.3201 7.94114 14.4016 8.09492C14.4831 8.2487 14.6049 8.37737 14.7541 8.4671C14.9032 8.55684 15.0739 8.60425 15.248 8.60424H15.25C15.4065 8.60424 15.5611 8.56903 15.7022 8.5012C15.8433 8.43338 15.9673 8.33468 16.0651 8.21242L18.3194 5.39455C18.3903 5.30587 18.4289 5.1957 18.4288 5.08216C18.4288 4.96863 18.3901 4.85849 18.3192 4.76986Z" fill="#6590E2"/>
<path d="M17.5 12.1674H2.5C2.25136 12.1674 2.0129 12.0686 1.83709 11.8928C1.66127 11.717 1.5625 11.4785 1.5625 11.2299C1.5625 10.9812 1.66127 10.7428 1.83709 10.5669C2.0129 10.3911 2.25136 10.2924 2.5 10.2924H17.5C17.7486 10.2924 17.9871 10.3911 18.1629 10.5669C18.3387 10.7428 18.4375 10.9812 18.4375 11.2299C18.4375 11.4785 18.3387 11.717 18.1629 11.8928C17.9871 12.0686 17.7486 12.1674 17.5 12.1674Z" fill="#6590E2"/>
<path d="M17.4704 17.6898H2.5296C2.28096 17.6898 2.0425 17.591 1.86669 17.4152C1.69087 17.2394 1.5921 17.001 1.5921 16.7523C1.5921 16.5037 1.69087 16.2652 1.86669 16.0894C2.0425 15.9136 2.28096 15.8148 2.5296 15.8148H17.4704C17.719 15.8148 17.9575 15.9136 18.1333 16.0894C18.3091 16.2652 18.4079 16.5037 18.4079 16.7523C18.4079 17.001 18.3091 17.2394 18.1333 17.4152C17.9575 17.591 17.719 17.6898 17.4704 17.6898Z" fill="#6590E2"/>
</svg>
