<svg width="15" height="15" viewBox="0 0 15 15" fill="none" xmlns="http://www.w3.org/2000/svg">
<g clip-path="url(#clip0_2275_4723)">
<path d="M14.8814 5.79357C14.8004 5.64736 14.6817 5.52558 14.5375 5.44096C14.3934 5.35634 14.2292 5.31198 14.062 5.3125H5.17885C4.87935 5.31249 4.58792 5.40963 4.34832 5.58932C4.10872 5.76901 3.93386 6.02158 3.85 6.3091L2.09172 12.3375C1.99915 12.6548 1.80616 12.9336 1.54169 13.1319C1.27723 13.3303 0.955573 13.4375 0.625 13.4375H11.7962C12.1268 13.4375 12.4486 13.3302 12.7131 13.1319C12.9776 12.9335 13.1706 12.6547 13.2632 12.3372L14.9511 6.55028C14.9904 6.42585 15.0045 6.29484 14.9925 6.1649C14.9805 6.03497 14.9428 5.90873 14.8814 5.79357Z" fill="#6590E2"/>
<path d="M1.49062 12.1625L3.25 6.13438C3.37257 5.71765 3.62648 5.35166 3.97393 5.09094C4.32137 4.83021 4.74374 4.68871 5.17812 4.6875H13.125V4.375C13.125 4.04348 12.9933 3.72554 12.7589 3.49112C12.5245 3.2567 12.2065 3.125 11.875 3.125H7.11115C7.01803 3.125 6.92607 3.10425 6.84198 3.06424C6.75788 3.02424 6.68376 2.966 6.625 2.89375L6.01072 2.13841C5.86438 1.95849 5.67978 1.81344 5.47035 1.71382C5.26092 1.6142 5.03192 1.5625 4.8 1.5625H1.25C0.918479 1.5625 0.600537 1.6942 0.366116 1.92862C0.131696 2.16304 0 2.48098 0 2.8125L0 12.1875C0 12.3533 0.065848 12.5122 0.183058 12.6295C0.300268 12.7467 0.459239 12.8125 0.625 12.8125C0.820079 12.812 1.00976 12.7484 1.16576 12.6313C1.32175 12.5141 1.43571 12.3497 1.49062 12.1625Z" fill="#6590E2"/>
</g>
<defs>
<clipPath id="clip0_2275_4723">
<rect width="15" height="15" fill="white"/>
</clipPath>
</defs>
</svg>
