<svg width="14" height="13" viewBox="0 0 14 13" fill="none" xmlns="http://www.w3.org/2000/svg">
<g clip-path="url(#clip0_742_1856)">
<path d="M10.6507 5.07151H6.52487L6.2242 3.02174C6.15439 2.54586 5.7041 2.15649 5.22356 2.15649H1.6195C1.13895 2.15649 0.802895 2.54586 0.872704 3.02174L2.01995 10.8433H12.7229L11.7022 5.92772C11.6044 5.45679 11.1313 5.07151 10.6507 5.07151Z" fill="#666CF7"/>
<path d="M13.1058 3.03101H7.10864L7.27966 4.197H10.6507C11.0834 4.197 11.5169 4.35598 11.8714 4.64466C12.2259 4.93334 12.4696 5.32582 12.5577 5.74978L13.1125 8.42166L13.8406 3.89441C13.917 3.41955 13.5864 3.03101 13.1058 3.03101Z" fill="#666CF7"/>
</g>
<defs>
<clipPath id="clip0_742_1856">
<rect width="12.9881" height="13" fill="white" transform="translate(0.863525)"/>
</clipPath>
</defs>
</svg>
