<svg width="19" height="19" viewBox="0 0 19 19" fill="none" xmlns="http://www.w3.org/2000/svg">
<path d="M11.2812 0H2.17708C0.97375 0 0 0.97375 0 2.17708V14.4479C0 15.6513 0.97375 16.625 2.17708 16.625H8.62125C7.92458 15.675 7.52083 14.5192 7.52083 13.2604C7.52083 10.0938 10.0938 7.52083 13.2604 7.52083C13.3238 7.52083 13.395 7.52083 13.4583 7.52875V2.17708C13.4583 0.97375 12.4846 0 11.2812 0ZM3.16667 3.16667H6.33333C6.76875 3.16667 7.125 3.52292 7.125 3.95833C7.125 4.39375 6.76875 4.75 6.33333 4.75H3.16667C2.73125 4.75 2.375 4.39375 2.375 3.95833C2.375 3.52292 2.73125 3.16667 3.16667 3.16667ZM7.125 11.0833H3.16667C2.73125 11.0833 2.375 10.7271 2.375 10.2917C2.375 9.85625 2.73125 9.5 3.16667 9.5H7.125C7.56042 9.5 7.91667 9.85625 7.91667 10.2917C7.91667 10.7271 7.56042 11.0833 7.125 11.0833ZM10.2917 7.91667H3.16667C2.73125 7.91667 2.375 7.56042 2.375 7.125C2.375 6.68958 2.73125 6.33333 3.16667 6.33333H10.2917C10.7271 6.33333 11.0833 6.68958 11.0833 7.125C11.0833 7.56042 10.7271 7.91667 10.2917 7.91667Z" fill="#666CF7"/>
<path d="M13.2603 17.4165C10.9684 17.4165 9.104 15.5521 9.104 13.2603C9.104 10.9684 10.9684 9.104 13.2603 9.104C15.5521 9.104 17.4165 10.9684 17.4165 13.2603C17.4165 15.5521 15.5521 17.4165 13.2603 17.4165ZM13.2603 10.6873C11.8416 10.6873 10.6873 11.8416 10.6873 13.2603C10.6873 14.6789 11.8416 15.8332 13.2603 15.8332C14.6789 15.8332 15.8332 14.6789 15.8332 13.2603C15.8332 11.8416 14.6789 10.6873 13.2603 10.6873Z" fill="#666CF7"/>
<path d="M18.2085 19.0002C18.0059 19.0002 17.8032 18.9226 17.6488 18.7682L15.0759 16.1953C14.7664 15.8858 14.7664 15.3854 15.0759 15.0759C15.3854 14.7664 15.8858 14.7664 16.1953 15.0759L18.7682 17.6488C19.0778 17.9584 19.0778 18.4587 18.7682 18.7682C18.6139 18.9226 18.4112 19.0002 18.2085 19.0002Z" fill="#666CF7"/>
</svg>
