<svg width="20" height="20" viewBox="0 0 20 20" fill="none" xmlns="http://www.w3.org/2000/svg">
<path d="M15.2734 6.24176V9.41406H18.4457L15.2734 6.24176Z" fill="#92A2F8"/>
<path d="M14.6875 10.5859C14.3636 10.5859 14.1016 10.3239 14.1016 10V5.89844H8.82812C8.50426 5.89844 8.24219 6.16051 8.24219 6.48438V19.4141C8.24219 19.7379 8.50426 20 8.82812 20H18.2031C18.527 20 18.7891 19.7379 18.7891 19.4141V10.5859H14.6875ZM14.6875 17.6172H11.1719C10.848 17.6172 10.5859 17.3551 10.5859 17.0312C10.5859 16.7074 10.848 16.4453 11.1719 16.4453H14.6875C15.0114 16.4453 15.2734 16.7074 15.2734 17.0312C15.2734 17.3551 15.0114 17.6172 14.6875 17.6172ZM15.8594 15.2734H11.1719C10.848 15.2734 10.5859 15.0114 10.5859 14.6875C10.5859 14.3636 10.848 14.1016 11.1719 14.1016H15.8594C16.1832 14.1016 16.4453 14.3636 16.4453 14.6875C16.4453 15.0114 16.1832 15.2734 15.8594 15.2734ZM15.8594 12.9297H11.1719C10.848 12.9297 10.5859 12.6676 10.5859 12.3438C10.5859 12.0199 10.848 11.7578 11.1719 11.7578H15.8594C16.1832 11.7578 16.4453 12.0199 16.4453 12.3438C16.4453 12.6676 16.1832 12.9297 15.8594 12.9297Z" fill="#92A2F8"/>
<path d="M3.55469 1.75781V1.17188C3.55469 0.524648 4.07934 0 4.72656 0H8.24219C8.88941 0 9.41406 0.524648 9.41406 1.17188V1.75781C9.41406 2.08141 9.15172 2.34375 8.82812 2.34375H4.14062C3.81703 2.34375 3.55469 2.08141 3.55469 1.75781Z" fill="#92A2F8"/>
<path d="M11.1719 1.17188H10.5859V1.75781C10.5859 2.72711 9.79742 3.51562 8.82812 3.51562H4.14062C3.17133 3.51562 2.38281 2.72711 2.38281 1.75781V1.17188H1.79688C1.47301 1.17188 1.21094 1.43395 1.21094 1.75781V14.6875C1.21094 15.0114 1.47301 15.2734 1.79688 15.2734H7.07031V6.48438C7.07031 5.51508 7.85883 4.72656 8.82812 4.72656H11.7578V1.75781C11.7578 1.43395 11.4957 1.17188 11.1719 1.17188Z" fill="#92A2F8"/>
</svg>
