<svg width="15" height="15" viewBox="0 0 15 15" fill="none" xmlns="http://www.w3.org/2000/svg">
<path d="M13.125 7.49999C12.9592 7.49999 12.8003 7.56584 12.6831 7.68305C12.5658 7.80026 12.5 7.95923 12.5 8.12499V11.875C12.5 12.0408 12.4342 12.1997 12.3169 12.3169C12.1997 12.4341 12.0408 12.5 11.875 12.5H3.125C2.95924 12.5 2.80027 12.4341 2.68306 12.3169C2.56585 12.1997 2.5 12.0408 2.5 11.875V3.12499C2.5 2.95923 2.56585 2.80026 2.68306 2.68305C2.80027 2.56584 2.95924 2.49999 3.125 2.49999H6.875C7.04076 2.49999 7.19973 2.43414 7.31694 2.31693C7.43415 2.19972 7.5 2.04075 7.5 1.87499C7.5 1.70923 7.43415 1.55026 7.31694 1.43305C7.19973 1.31584 7.04076 1.24999 6.875 1.24999H3.125C2.62772 1.24999 2.15081 1.44754 1.79917 1.79917C1.44754 2.1508 1.25 2.62771 1.25 3.12499V11.875C1.25 12.3723 1.44754 12.8492 1.79917 13.2008C2.15081 13.5524 2.62772 13.75 3.125 13.75H11.875C12.3723 13.75 12.8492 13.5524 13.2008 13.2008C13.5525 12.8492 13.75 12.3723 13.75 11.875V8.12499C13.75 7.95923 13.6842 7.80026 13.5669 7.68305C13.4497 7.56584 13.2908 7.49999 13.125 7.49999ZM3.75 7.97499V10.625C3.75 10.7908 3.81585 10.9497 3.93306 11.0669C4.05027 11.1841 4.20924 11.25 4.375 11.25H7.025C7.10725 11.2505 7.18879 11.2347 7.26494 11.2036C7.34109 11.1725 7.41035 11.1267 7.46875 11.0687L11.7938 6.73749L13.5687 4.99999C13.6273 4.94189 13.6738 4.87276 13.7056 4.7966C13.7373 4.72044 13.7536 4.63875 13.7536 4.55624C13.7536 4.47373 13.7373 4.39204 13.7056 4.31588C13.6738 4.23972 13.6273 4.17059 13.5687 4.11249L10.9187 1.43124C10.8606 1.37266 10.7915 1.32617 10.7154 1.29444C10.6392 1.2627 10.5575 1.24637 10.475 1.24637C10.3925 1.24637 10.3108 1.2627 10.2346 1.29444C10.1585 1.32617 10.0894 1.37266 10.0312 1.43124L8.26875 3.19999L3.93125 7.53124C3.87332 7.58964 3.8275 7.6589 3.79639 7.73505C3.76529 7.8112 3.74952 7.89274 3.75 7.97499V7.97499ZM10.475 2.75624L12.2438 4.52499L11.3563 5.41249L9.5875 3.64374L10.475 2.75624ZM5 8.23124L8.70625 4.52499L10.475 6.29374L6.76875 9.99999H5V8.23124Z" fill="#758AF8"/>
</svg>
