<svg width="21" height="21" viewBox="0 0 21 21" fill="none" xmlns="http://www.w3.org/2000/svg">
<path d="M10.5 0C4.701 0 0 4.701 0 10.5C0 16.299 4.701 21 10.5 21C16.299 21 21 16.299 21 10.5C20.9938 4.7036 16.2964 0.00619629 10.5 0ZM14.9219 10.8345C14.8492 10.9803 14.7311 11.0986 14.5852 11.1712V11.175L8.58524 14.175C8.21469 14.3601 7.76425 14.2099 7.57907 13.8393C7.52642 13.734 7.49931 13.6177 7.49997 13.5V7.50001C7.49979 7.08578 7.8354 6.74986 8.24963 6.74964C8.36613 6.7496 8.48104 6.77667 8.58524 6.82875L14.5852 9.82876C14.9559 10.0135 15.1067 10.4638 14.9219 10.8345Z" fill="#C4C4C4"/>
</svg>
