<svg width="15" height="15" viewBox="0 0 15 15" fill="none" xmlns="http://www.w3.org/2000/svg">
<rect width="15" height="15" rx="2" fill="#758AF8"/>
<path d="M10.7241 7.94062C10.7428 7.8 10.7522 7.65469 10.7522 7.5C10.7522 7.35 10.7428 7.2 10.7194 7.05937L11.6709 6.31875C11.7553 6.25312 11.7788 6.12656 11.7272 6.03281L10.8272 4.47656C10.7709 4.37344 10.6538 4.34062 10.5506 4.37344L9.43031 4.82344C9.19594 4.64531 8.9475 4.49531 8.67094 4.38281L8.50219 3.19219C8.48344 3.07969 8.38969 3 8.27719 3H6.47719C6.36469 3 6.27563 3.07969 6.25688 3.19219L6.08813 4.38281C5.81156 4.49531 5.55844 4.65 5.32875 4.82344L4.20844 4.37344C4.10531 4.33594 3.98813 4.37344 3.93188 4.47656L3.03656 6.03281C2.98031 6.13125 2.99906 6.25312 3.09281 6.31875L4.04438 7.05937C4.02094 7.2 4.00219 7.35469 4.00219 7.5C4.00219 7.64531 4.01156 7.8 4.035 7.94062L3.08344 8.68125C2.99906 8.74687 2.97563 8.87344 3.02719 8.96719L3.92719 10.5234C3.98344 10.6266 4.10063 10.6594 4.20375 10.6266L5.32406 10.1766C5.55844 10.3547 5.80688 10.5047 6.08344 10.6172L6.25219 11.8078C6.27563 11.9203 6.36469 12 6.47719 12H8.27719C8.38969 12 8.48344 11.9203 8.4975 11.8078L8.66625 10.6172C8.94281 10.5047 9.19594 10.3547 9.42563 10.1766L10.5459 10.6266C10.6491 10.6641 10.7663 10.6266 10.8225 10.5234L11.7225 8.96719C11.7788 8.86406 11.7553 8.74687 11.6663 8.68125L10.7241 7.94062ZM7.37719 9.1875C6.44906 9.1875 5.68969 8.42812 5.68969 7.5C5.68969 6.57187 6.44906 5.8125 7.37719 5.8125C8.30531 5.8125 9.06469 6.57187 9.06469 7.5C9.06469 8.42812 8.30531 9.1875 7.37719 9.1875Z" fill="white"/>
</svg>
