<svg width="15" height="15" viewBox="0 0 15 15" fill="none" xmlns="http://www.w3.org/2000/svg">
<path d="M11.875 1.875H3.125C2.43125 1.875 1.875 2.4375 1.875 3.125V11.875C1.875 12.5625 2.43125 13.125 3.125 13.125H11.875C12.5625 13.125 13.125 12.5625 13.125 11.875V3.125C13.125 2.4375 12.5688 1.875 11.875 1.875ZM11.875 11.875H3.125V4.375H11.875V11.875ZM8.4375 8.125C8.4375 8.64375 8.01875 9.0625 7.5 9.0625C6.98125 9.0625 6.5625 8.64375 6.5625 8.125C6.5625 7.60625 6.98125 7.1875 7.5 7.1875C8.01875 7.1875 8.4375 7.60625 8.4375 8.125ZM7.5 5.625C5.79375 5.625 4.3375 6.6625 3.75 8.125C4.3375 9.5875 5.79375 10.625 7.5 10.625C9.20625 10.625 10.6625 9.5875 11.25 8.125C10.6625 6.6625 9.20625 5.625 7.5 5.625ZM7.5 9.6875C6.6375 9.6875 5.9375 8.9875 5.9375 8.125C5.9375 7.2625 6.6375 6.5625 7.5 6.5625C8.3625 6.5625 9.0625 7.2625 9.0625 8.125C9.0625 8.9875 8.3625 9.6875 7.5 9.6875Z" fill="#666CF7"/>
</svg>
