<svg width="14" height="14" viewBox="0 0 14 14" fill="none" xmlns="http://www.w3.org/2000/svg">
<path d="M2.26256 14H3.95954C5.20915 14 6.22216 12.987 6.22216 11.7374V10.0404C6.22216 8.79082 5.20915 7.77781 3.95954 7.77781H2.26256C1.01295 7.77781 -6.10352e-05 8.79082 -6.10352e-05 10.0404V11.7374C-6.10352e-05 12.987 1.01295 14 2.26256 14Z" fill="#758AF8"/>
<path d="M2.26256 6.22226H3.95954C5.20915 6.22226 6.22216 5.20925 6.22216 3.95964V2.26266C6.22216 1.01305 5.20915 3.71933e-05 3.95954 3.71933e-05H2.26256C1.01295 3.71933e-05 -6.10352e-05 1.01305 -6.10352e-05 2.26266V3.95964C-6.10352e-05 5.20925 1.01295 6.22226 2.26256 6.22226Z" fill="#758AF8"/>
<path d="M12.9376 2.84299L11.511 1.50723V12.492L12.9376 11.1562C13.1807 10.9285 13.5747 10.9286 13.8176 11.1565C14.0606 11.3844 14.0604 11.7538 13.8173 11.9816L12.2078 13.4883C11.4791 14.1706 10.2986 14.1706 9.56988 13.4883L7.96037 11.9816C7.71726 11.7538 7.71711 11.3844 7.96004 11.1565C8.20298 10.9286 8.59698 10.9285 8.84009 11.1562L10.2667 12.492V1.50723L8.84009 2.84299C8.5968 3.07075 8.20266 3.07047 7.95972 2.84241C7.71679 2.61432 7.71708 2.24479 7.96034 2.01703L9.56985 0.510361C10.2994 -0.170079 11.4782 -0.170079 12.2078 0.510361L13.8173 2.01703C14.0606 2.24479 14.0608 2.61432 13.8179 2.84241C13.575 3.07047 13.1809 3.07075 12.9376 2.84299Z" fill="#758AF8"/>
</svg>
