<svg width="21" height="20" viewBox="0 0 21 20" fill="none" xmlns="http://www.w3.org/2000/svg">
<path d="M18.9714 14.8438V5.15625C18.9714 2.99875 17.202 1.25 15.019 1.25H5.21713C3.03415 1.25 1.26476 2.99875 1.26476 5.15625V14.8438C1.26476 17.0013 3.03415 18.75 5.21713 18.75H15.019C17.202 18.75 18.9714 17.0013 18.9714 14.8438ZM3.28078 9.54C3.0253 9.54 2.79448 9.3875 2.69646 9.15438C2.66421 9.07688 2.6484 8.99563 2.6484 8.915C2.6484 8.7525 2.7129 8.5925 2.83369 8.47312L5.42897 5.90812C5.67623 5.66375 6.0759 5.66375 6.32316 5.90812C6.57042 6.1525 6.57042 6.5475 6.32316 6.79187L4.80735 8.29H16.956C17.3051 8.29 17.5884 8.57 17.5884 8.915C17.5884 9.26 17.3051 9.54 16.956 9.54H3.28078ZM13.913 14.0919C13.6657 13.8475 13.6657 13.4525 13.913 13.2081L15.4288 11.71H3.28078C2.93171 11.71 2.6484 11.43 2.6484 11.085C2.6484 10.74 2.93171 10.46 3.28078 10.46H16.956C17.2115 10.46 17.4423 10.6125 17.5403 10.8456C17.6383 11.0794 17.5839 11.3475 17.4031 11.5269L14.8078 14.0919C14.5605 14.3363 14.1602 14.3363 13.913 14.0919Z" fill="#666CF7"/>
</svg>
