<svg width="19" height="16" viewBox="0 0 19 16" fill="none" xmlns="http://www.w3.org/2000/svg">
<path d="M10.3071 0C6.03826 0 2.57678 3.45429 2.57678 7.71429H0L3.34123 11.0486L3.40135 11.1686L6.87142 7.71429H4.29464C4.29464 4.39714 6.98308 1.71429 10.3071 1.71429C13.6312 1.71429 16.3196 4.39714 16.3196 7.71429C16.3196 11.0314 13.6312 13.7143 10.3071 13.7143C8.6494 13.7143 7.14628 13.0371 6.06403 11.9486L4.84435 13.1657C6.2444 14.5629 8.1684 15.4286 10.3071 15.4286C14.576 15.4286 18.0375 11.9743 18.0375 7.71429C18.0375 3.45429 14.576 0 10.3071 0ZM9.4482 4.28572V8.57143L13.1244 10.7486L13.7428 9.71143L10.7366 7.92857V4.28572H9.4482Z" fill="#666CF7"/>
</svg>
