<svg width="16" height="16" viewBox="0 0 16 16" fill="none" xmlns="http://www.w3.org/2000/svg">
<g clip-path="url(#clip0_1241_14568)">
<path d="M6.66666 4.66801V1.83334C6.66666 1.63267 6.546 1.45134 6.36133 1.37267C6.17733 1.29467 5.962 1.33401 5.81866 1.47467L0.152 6.97467C0.0546666 7.06867 0 7.198 0 7.33334C0 7.46867 0.0546666 7.598 0.152 7.692L5.81866 13.192C5.96333 13.332 6.178 13.3713 6.36133 13.294C6.546 13.2153 6.66666 13.034 6.66666 12.8333V10H7.612C10.7027 10 13.552 11.68 15.0473 14.3813L15.0613 14.4067C15.1507 14.5693 15.32 14.6667 15.5 14.6667C15.5413 14.6667 15.5827 14.662 15.624 14.6513C15.8453 14.5947 16 14.3953 16 14.1667C16 8.984 11.8287 4.75734 6.66666 4.66801Z" fill="#758AF8"/>
</g>
<defs>
<clipPath id="clip0_1241_14568">
<rect width="16" height="16" fill="white"/>
</clipPath>
</defs>
</svg>
