<svg width="12" height="12" viewBox="0 0 12 12" fill="none" xmlns="http://www.w3.org/2000/svg">
<path d="M2.62497 0.5625C2.77416 0.5625 2.91723 0.621763 3.02272 0.727252C3.12821 0.832742 3.18747 0.975816 3.18747 1.125V7.5C3.18747 7.69891 3.26649 7.88968 3.40714 8.03033C3.5478 8.17098 3.73856 8.25 3.93747 8.25H8.01699L6.91472 7.14776C6.80923 7.04227 6.74996 6.89919 6.74996 6.75C6.74996 6.60081 6.80923 6.45773 6.91472 6.35224C7.02021 6.24675 7.16329 6.18749 7.31248 6.18749C7.46167 6.18749 7.60474 6.24675 7.71023 6.35224L9.77274 8.41474C9.82497 8.46698 9.86641 8.52899 9.89468 8.59723C9.92295 8.66548 9.9375 8.73863 9.9375 8.8125C9.9375 8.88637 9.92295 8.95952 9.89468 9.02777C9.86641 9.09601 9.82497 9.15802 9.77274 9.21026L7.71023 11.2728C7.60474 11.3783 7.46167 11.4375 7.31248 11.4375C7.16329 11.4375 7.02021 11.3783 6.91472 11.2728C6.80923 11.1673 6.74996 11.0242 6.74996 10.875C6.74996 10.7258 6.80923 10.5827 6.91472 10.4772L8.01699 9.375H3.93747C3.69124 9.375 3.44743 9.3265 3.21994 9.23227C2.99246 9.13805 2.78576 8.99994 2.61165 8.82582C2.43754 8.65172 2.29943 8.44502 2.2052 8.21753C2.11097 7.99005 2.06247 7.74623 2.06247 7.5V1.125C2.06247 0.975816 2.12174 0.832742 2.22722 0.727252C2.33271 0.621763 2.47579 0.5625 2.62497 0.5625Z" fill="#323A4C"/>
</svg>
