<svg width="15" height="15" viewBox="0 0 15 15" fill="none" xmlns="http://www.w3.org/2000/svg">
<path d="M12.5 3.75H7.5L6.25 2.5H2.5C1.8125 2.5 1.25625 3.0625 1.25625 3.75L1.25 11.25C1.25 11.9375 1.8125 12.5 2.5 12.5H12.5C13.1875 12.5 13.75 11.9375 13.75 11.25V5C13.75 4.3125 13.1875 3.75 12.5 3.75ZM4.89375 10L3.125 8.23125L4.00625 7.35L4.8875 8.23125L7.1 6.01875L7.98125 6.9L4.89375 10ZM10.8813 8.125L11.875 9.11875L10.9937 10L10 9.00625L9.00625 10L8.125 9.11875L9.11875 8.125L8.125 7.13125L9.00625 6.25L10 7.24375L10.9937 6.25L11.875 7.13125L10.8813 8.125Z" fill="#6590E2"/>
</svg>
