<svg width="15" height="15" viewBox="0 0 15 15" fill="none" xmlns="http://www.w3.org/2000/svg">
<path d="M11.6668 0H1.66668C0.741673 0 0 0.75 0 1.66667V13.3333C0 14.25 0.741673 15 1.66668 15H13.3334C14.2501 15 15.0001 14.25 15.0001 13.3333V3.33333L11.6668 0ZM7.50006 13.3333C6.11672 13.3333 5.00004 12.2167 5.00004 10.8333C5.00004 9.45 6.11672 8.33333 7.50006 8.33333C8.88341 8.33333 10.0001 9.45 10.0001 10.8333C10.0001 12.2167 8.88341 13.3333 7.50006 13.3333ZM10.0001 5H1.66668V1.66667H10.0001V5Z" fill="#6680F7"/>
</svg>
