<svg width="12" height="12" viewBox="0 0 12 12" fill="none" xmlns="http://www.w3.org/2000/svg">
<path d="M8.35072 7.33334H7.82295L7.6359 7.15334C8.29059 6.39333 8.68475 5.40667 8.68475 4.33333C8.68475 1.94 6.7407 0 4.34237 0C1.94405 0 0 1.94 0 4.33333C0 6.72667 1.94405 8.66667 4.34237 8.66667C5.41795 8.66667 6.40667 8.27334 7.16826 7.62L7.34863 7.80667V8.33334L10.6889 11.66L11.6843 10.6667L8.35072 7.33334ZM4.34237 7.33334C2.67891 7.33334 1.33612 5.99333 1.33612 4.33333C1.33612 2.67333 2.67891 1.33333 4.34237 1.33333C6.00584 1.33333 7.34863 2.67333 7.34863 4.33333C7.34863 5.99333 6.00584 7.33334 4.34237 7.33334Z" fill="#A9A9A9"/>
</svg>
