<svg width="13" height="12" viewBox="0 0 13 12" fill="none" xmlns="http://www.w3.org/2000/svg">
<path d="M8.59833 7.54717H8.05492L7.86232 7.36192C8.53642 6.57976 8.94226 5.56432 8.94226 4.45969C8.94226 1.99657 6.9406 0 4.47119 0C2.00178 0 0.00012207 1.99657 0.00012207 4.45969C0.00012207 6.92281 2.00178 8.91938 4.47119 8.91938C5.57864 8.91938 6.59667 8.51458 7.38082 7.8422L7.56654 8.03431V8.57633L11.0058 12L12.0307 10.9777L8.59833 7.54717ZM4.47119 7.54717C2.75843 7.54717 1.37584 6.1681 1.37584 4.45969C1.37584 2.75129 2.75843 1.37221 4.47119 1.37221C6.18395 1.37221 7.56654 2.75129 7.56654 4.45969C7.56654 6.1681 6.18395 7.54717 4.47119 7.54717Z" fill="white"/>
</svg>
