<svg width="13" height="12" viewBox="0 0 13 12" fill="none" xmlns="http://www.w3.org/2000/svg">
<path d="M9.01263 7.33332H8.48528L8.29837 7.15332C8.95255 6.39332 9.3464 5.40665 9.3464 4.33332C9.3464 1.94 7.40388 0 5.00743 0C2.61098 0 0.668457 1.94 0.668457 4.33332C0.668457 6.72665 2.61098 8.66665 5.00743 8.66665C6.08216 8.66665 7.07011 8.27331 7.8311 7.61998L8.01133 7.80665V8.33331L11.349 11.66L12.3436 10.6666L9.01263 7.33332ZM5.00743 7.33332C3.34527 7.33332 2.00353 5.99332 2.00353 4.33332C2.00353 2.67333 3.34527 1.33333 5.00743 1.33333C6.66959 1.33333 8.01133 2.67333 8.01133 4.33332C8.01133 5.99332 6.66959 7.33332 5.00743 7.33332Z" fill="#758AF8"/>
</svg>
