<svg width="10" height="11" viewBox="0 0 10 11" fill="none" xmlns="http://www.w3.org/2000/svg">
<g clip-path="url(#clip0_2275_4653)">
<path d="M6.16667 6.3335H5.98333C5.91438 6.33362 5.85269 6.2906 5.829 6.22583C5.80867 6.1725 5.78683 6.12033 5.76333 6.06866C5.73413 6.00583 5.74746 5.93143 5.79667 5.88266L5.92733 5.75183C6.12131 5.55614 6.12096 5.24056 5.9265 5.04533L5.4555 4.57433C5.26002 4.38 4.94431 4.38 4.74883 4.57433L4.61817 4.70483C4.56929 4.75385 4.49502 4.76716 4.43217 4.73816C4.3805 4.71466 4.32833 4.69283 4.27483 4.6715C4.20973 4.64798 4.16642 4.58606 4.16667 4.51683V4.3335C4.16667 4.05735 3.94281 3.8335 3.66667 3.8335H3C2.72385 3.8335 2.5 4.05735 2.5 4.3335V4.51683C2.50013 4.58579 2.4571 4.64748 2.39233 4.67116C2.339 4.6915 2.28683 4.71333 2.23517 4.73683C2.17231 4.76589 2.09802 4.75258 2.04917 4.7035L1.91833 4.57283C1.72288 4.37862 1.40729 4.37862 1.21183 4.57283L0.740833 5.04533C0.5465 5.24081 0.5465 5.55652 0.740833 5.752L0.871333 5.88266C0.920542 5.93143 0.933875 6.00583 0.904667 6.06866C0.881167 6.12033 0.859333 6.1725 0.838833 6.226C0.814979 6.29114 0.752708 6.3342 0.683333 6.3335H0.5C0.223854 6.3335 0 6.55735 0 6.8335V7.50016C0 7.77631 0.223854 8.00016 0.5 8.00016H0.683333C0.752292 8.00004 0.813979 8.04306 0.837667 8.10783C0.858 8.16116 0.879833 8.21333 0.903333 8.265C0.932542 8.32783 0.919208 8.40223 0.87 8.451L0.739333 8.58183C0.545125 8.77729 0.545125 9.09287 0.739333 9.28833L1.21033 9.75933C1.40581 9.95366 1.72152 9.95366 1.917 9.75933L2.04767 9.62883C2.09654 9.57981 2.17081 9.5665 2.23367 9.5955C2.28533 9.619 2.3375 9.64083 2.391 9.66216C2.45644 9.68541 2.50013 9.74739 2.5 9.81683V10.0002C2.5 10.2763 2.72385 10.5002 3 10.5002H3.66667C3.94281 10.5002 4.16667 10.2763 4.16667 10.0002V9.81683C4.16654 9.74787 4.20956 9.68618 4.27433 9.6625C4.32767 9.64216 4.37983 9.62033 4.4315 9.59683C4.49435 9.56777 4.56865 9.58108 4.6175 9.63016L4.74833 9.76083C4.94406 9.95472 5.25956 9.95435 5.45483 9.76L5.92583 9.289C6.12017 9.09352 6.12017 8.77781 5.92583 8.58233L5.79533 8.45166C5.74613 8.40289 5.73279 8.3285 5.762 8.26566C5.7855 8.214 5.80733 8.16183 5.82867 8.10833C5.85219 8.04322 5.9141 7.99991 5.98333 8.00016H6.16667C6.44281 8.00016 6.66667 7.77631 6.66667 7.50016V6.8335C6.66667 6.55735 6.44281 6.3335 6.16667 6.3335ZM6.33333 7.50016C6.33333 7.5922 6.25871 7.66683 6.16667 7.66683H5.98333C5.77615 7.6676 5.59073 7.79566 5.51667 7.98916C5.499 8.03583 5.4799 8.08177 5.45933 8.127C5.37365 8.31616 5.4134 8.53858 5.55933 8.68633L5.68967 8.81683C5.75479 8.88187 5.75485 8.98741 5.68979 9.05254C5.68975 9.05258 5.68971 9.05262 5.68967 9.05266L5.21867 9.52366C5.15358 9.58872 5.04808 9.58872 4.983 9.52366L4.85233 9.39316C4.70465 9.2471 4.48215 9.20733 4.293 9.29316C4.24783 9.31366 4.20183 9.33283 4.1555 9.3505C3.96215 9.42454 3.83417 9.60979 3.83333 9.81683V10.0002C3.83333 10.0922 3.75871 10.1668 3.66667 10.1668H3C2.90796 10.1668 2.83333 10.0922 2.83333 10.0002V9.81683C2.83256 9.60964 2.7045 9.42422 2.511 9.35016C2.46433 9.3325 2.4184 9.31339 2.37317 9.29283C2.184 9.20718 1.9616 9.24695 1.81383 9.39283L1.68333 9.52316C1.61829 9.58829 1.51275 9.58835 1.44763 9.52329C1.44758 9.52325 1.44754 9.5232 1.4475 9.52316L0.9765 9.05266C0.911438 8.98758 0.911438 8.88208 0.9765 8.817L1.107 8.68633C1.25294 8.53858 1.29269 8.31616 1.207 8.127C1.1865 8.08183 1.16733 8.03583 1.14967 7.9895C1.07579 7.79593 0.8905 7.66775 0.683333 7.66683H0.5C0.407958 7.66683 0.333333 7.5922 0.333333 7.50016V6.8335C0.333333 6.74145 0.407958 6.66683 0.5 6.66683H0.683333C0.890521 6.66606 1.07594 6.538 1.15 6.3445C1.16767 6.29783 1.18677 6.25189 1.20733 6.20666C1.29302 6.0175 1.25325 5.79508 1.10733 5.64733L0.976333 5.51683C0.911208 5.45179 0.911146 5.34625 0.976208 5.28112C0.97625 5.28108 0.976292 5.28104 0.976333 5.281L1.44733 4.81C1.51242 4.74493 1.61792 4.74493 1.683 4.81L1.81367 4.9405C1.96135 5.08656 2.18385 5.12633 2.373 5.0405C2.41817 5.02 2.46417 5.00083 2.5105 4.98316C2.70412 4.90935 2.8324 4.72404 2.83333 4.51683V4.3335C2.83333 4.24145 2.90796 4.16683 3 4.16683H3.66667C3.75871 4.16683 3.83333 4.24145 3.83333 4.3335V4.51683C3.8341 4.72402 3.96217 4.90943 4.15567 4.9835C4.20233 5.00116 4.24827 5.02027 4.2935 5.04083C4.48265 5.12666 4.70515 5.08689 4.85283 4.94083L4.98333 4.8105C5.04867 4.74587 5.15383 4.74587 5.21917 4.8105L5.69017 5.2815C5.75523 5.34658 5.75523 5.45208 5.69017 5.51716L5.55967 5.64783C5.41375 5.79558 5.37398 6.018 5.45967 6.20716C5.48017 6.25233 5.49933 6.29833 5.517 6.34466C5.59104 6.53802 5.77629 6.666 5.98333 6.66683H6.16667C6.25871 6.66683 6.33333 6.74145 6.33333 6.8335V7.50016Z" fill="#666CF7"/>
<path d="M4.83005 7.09984C4.82838 7.05984 4.82555 7.02001 4.82072 6.98034C4.81538 6.93767 4.80905 6.89534 4.80022 6.85384C4.79438 6.82667 4.78672 6.79984 4.77938 6.77284C4.77005 6.73851 4.75955 6.70467 4.74788 6.67134C4.73972 6.64817 4.73122 6.62517 4.72255 6.60234C4.70109 6.54896 4.67655 6.49686 4.64905 6.44634C4.64688 6.44251 4.64555 6.43834 4.64338 6.43451C4.60003 6.35734 4.54982 6.28419 4.49338 6.21601C4.48855 6.21001 4.48305 6.20434 4.47805 6.19851C4.45505 6.17134 4.43138 6.14501 4.40655 6.11984C4.39355 6.10634 4.37988 6.09367 4.36622 6.08067C4.34955 6.06517 4.33288 6.04984 4.31622 6.03517C4.29599 6.01761 4.27538 6.00061 4.25438 5.98417L4.22705 5.96384C3.96915 5.77067 3.65559 5.66634 3.33338 5.6665C3.31672 5.6665 3.30005 5.669 3.28338 5.66967C3.24788 5.67067 3.21222 5.67267 3.17638 5.67634C3.15755 5.67834 3.13855 5.6805 3.11972 5.68317C3.06538 5.69032 3.01147 5.7004 2.95822 5.71334C2.1557 5.92071 1.67324 6.73942 1.88061 7.54195C2.01728 8.07078 2.43045 8.48362 2.95938 8.61984C2.96205 8.61984 2.96488 8.62068 2.96772 8.62134C3.02528 8.6357 3.08359 8.64684 3.14238 8.65468C3.18122 8.65951 3.22005 8.66051 3.25905 8.66234C3.28505 8.66368 3.30905 8.66751 3.33622 8.66751C3.38372 8.66751 3.43305 8.66434 3.48338 8.65934C3.48872 8.65934 3.49405 8.65784 3.50005 8.65718C3.54055 8.65268 3.58155 8.64668 3.62338 8.63834C3.64005 8.63518 3.65555 8.63101 3.67155 8.62734C3.70088 8.62051 3.73005 8.61334 3.76005 8.60451C3.78338 8.59751 3.80605 8.58934 3.82888 8.58134C3.85172 8.57334 3.87538 8.56468 3.89905 8.55568C3.92272 8.54668 3.94255 8.53634 3.96405 8.52634C3.99205 8.51351 4.01988 8.50084 4.04738 8.48584H4.04838C4.20393 8.40257 4.34759 8.29882 4.47555 8.17734C4.51011 8.14509 4.54018 8.1083 4.56488 8.06801C4.69497 7.85947 4.78043 7.62624 4.81588 7.38301C4.82055 7.35084 4.82472 7.31867 4.82722 7.28584C4.82955 7.25567 4.83122 7.22567 4.83188 7.19567C4.83188 7.18617 4.83322 7.17717 4.83322 7.16767C4.83338 7.14417 4.83105 7.12251 4.83005 7.09984ZM4.49788 7.20901C4.49788 7.22284 4.49672 7.23667 4.49588 7.25034C4.49288 7.29067 4.48772 7.33101 4.48088 7.37151C4.41859 7.71803 4.20345 8.01803 3.89522 8.18818C3.87455 8.19901 3.85422 8.20918 3.83388 8.21851L3.82005 8.22518C3.72322 8.26914 3.62101 8.30007 3.51605 8.31718C3.50872 8.31834 3.50122 8.31968 3.49372 8.32068C3.47288 8.32368 3.45238 8.32618 3.43205 8.32801C3.40522 8.33034 3.37822 8.33168 3.35072 8.33218C3.33905 8.33218 3.32755 8.33218 3.31588 8.33218C3.27645 8.33172 3.23707 8.32928 3.19788 8.32484L3.17788 8.32251C3.13205 8.31651 3.08659 8.30795 3.04172 8.29684C2.41751 8.13707 2.04101 7.50153 2.20076 6.87732C2.30632 6.46486 2.6282 6.14265 3.04055 6.03667V6.03651C3.1363 6.01236 3.23463 6.00003 3.33338 5.99984C3.38103 6.00011 3.42863 6.00334 3.47588 6.0095C3.48855 6.011 3.50105 6.01334 3.51355 6.01517C3.54955 6.02084 3.58522 6.028 3.62038 6.037C3.63188 6.04 3.64338 6.04267 3.65472 6.04584C3.74334 6.07142 3.82865 6.10734 3.90888 6.15284C3.92172 6.16034 3.93422 6.16817 3.94688 6.17601C3.97322 6.19267 3.99872 6.20934 4.02388 6.22834C4.03738 6.23817 4.05105 6.24784 4.06405 6.25834C4.09676 6.28446 4.12807 6.31228 4.15788 6.34167C4.16972 6.35367 4.18055 6.36684 4.19205 6.37934C4.21122 6.40017 4.22988 6.42151 4.24772 6.44401C4.26005 6.45951 4.27188 6.47551 4.28355 6.49167C4.30022 6.51567 4.31688 6.54067 4.33188 6.56601C4.34022 6.57984 4.34855 6.59334 4.35705 6.60751C4.37855 6.64707 4.3977 6.68786 4.41438 6.72967C4.42105 6.74634 4.42672 6.76301 4.43272 6.77967C4.44355 6.81034 4.45288 6.84134 4.46105 6.87267C4.46522 6.88934 4.46988 6.90417 4.47338 6.92034C4.48311 6.96538 4.49018 7.01097 4.49455 7.05684C4.49555 7.06901 4.49555 7.08134 4.49638 7.09351C4.49872 7.13184 4.49938 7.17034 4.49788 7.20901Z" fill="#666CF7"/>
<path d="M9.49993 4H8.97576C8.90586 4.00071 8.84334 3.95669 8.82043 3.89067C8.76874 3.73585 8.7062 3.58485 8.63326 3.43883C8.6023 3.37577 8.6152 3.29996 8.66526 3.25067L9.03693 2.8785C9.23201 2.68327 9.23201 2.3669 9.03693 2.17167L8.32826 1.46417C8.13303 1.26908 7.81666 1.26908 7.62143 1.46417L7.24993 1.8355C7.2007 1.88554 7.12499 1.8985 7.06193 1.86767C6.91589 1.79435 6.76484 1.73148 6.60993 1.6795C6.54364 1.65681 6.4993 1.59423 6.49993 1.52417V1C6.49993 0.723854 6.27607 0.5 5.99993 0.5H4.99993C4.72378 0.5 4.49993 0.723854 4.49993 1V1.52417C4.50064 1.59406 4.45664 1.65658 4.39059 1.6795C4.23576 1.73146 4.08476 1.79429 3.93876 1.8675C3.8757 1.89856 3.79984 1.88567 3.75059 1.8355L3.37843 1.46383C3.18297 1.26931 2.86705 1.26931 2.67159 1.46383L1.96426 2.17117C1.76907 2.36642 1.76907 2.68292 1.96426 2.87817L2.51076 3.42567C2.57687 3.48971 2.68239 3.48804 2.74643 3.42192C2.80891 3.35742 2.80905 3.255 2.74676 3.19033L2.19993 2.643C2.13487 2.57792 2.13487 2.47242 2.19993 2.40733L2.90726 1.7C2.97234 1.63494 3.07784 1.63494 3.14293 1.7L3.51526 2.07167C3.66591 2.22321 3.89674 2.26108 4.08793 2.16567C4.21995 2.09956 4.35645 2.04281 4.49643 1.99583C4.69847 1.92744 4.83414 1.73748 4.83326 1.52417V1C4.83326 0.907958 4.90789 0.833333 4.99993 0.833333H5.99993C6.09197 0.833333 6.16659 0.907958 6.16659 1V1.52417C6.16574 1.73744 6.30141 1.92733 6.50343 1.99567C6.64347 2.04267 6.78003 2.09946 6.91209 2.16567C7.10332 2.26058 7.33384 2.22267 7.48459 2.0715L7.85693 1.7C7.92201 1.63494 8.02751 1.63494 8.09259 1.7L8.79993 2.4075C8.86488 2.47256 8.86488 2.57794 8.79993 2.643L8.42826 3.01533C8.27686 3.16606 8.23901 3.39679 8.33426 3.588C8.40036 3.72002 8.45711 3.85652 8.50409 3.9965C8.57245 4.19858 8.76243 4.33425 8.97576 4.33333H9.49993C9.59197 4.33333 9.66659 4.40796 9.66659 4.5V5.5C9.66659 5.59204 9.59197 5.66667 9.49993 5.66667H8.97576C8.76249 5.66581 8.57259 5.80148 8.50426 6.0035C8.45728 6.14354 8.40047 6.2801 8.33426 6.41217C8.23918 6.60337 8.27711 6.83398 8.42843 6.98467L8.80009 7.357C8.86515 7.42208 8.86515 7.52758 8.80009 7.59267L8.09243 8.3C8.02736 8.36496 7.92199 8.36496 7.85693 8.3L7.30926 7.7535C7.24522 7.68738 7.1397 7.68571 7.07359 7.74975C7.00747 7.81379 7.0058 7.91931 7.06984 7.98542C7.07118 7.98679 7.07255 7.98817 7.07393 7.9895L7.62143 8.536C7.81666 8.73108 8.13303 8.73108 8.32826 8.536L9.03559 7.82883C9.23078 7.63358 9.23078 7.31708 9.03559 7.12183L8.66443 6.75C8.61443 6.70075 8.60149 6.62506 8.63226 6.562C8.70557 6.41596 8.76845 6.26492 8.82043 6.11C8.84311 6.04371 8.9057 5.99938 8.97576 6H9.49993C9.77607 6 9.99993 5.77615 9.99993 5.5V4.5C9.99993 4.22385 9.77607 4 9.49993 4Z" fill="#666CF7"/>
<path d="M7.03193 3.46811C6.1853 2.62326 4.81455 2.62326 3.96792 3.46811C3.90398 3.53432 3.90582 3.63984 3.97202 3.70378C4.03661 3.76615 4.139 3.76615 4.20359 3.70378C4.91473 2.98303 6.07551 2.97526 6.79626 3.6864C7.51701 4.39755 7.52478 5.55832 6.81363 6.27907C6.80788 6.2849 6.80209 6.2907 6.79626 6.29645C6.73005 6.3604 6.72822 6.4659 6.79218 6.53211C6.85613 6.59832 6.96163 6.60015 7.02784 6.5362C7.02922 6.53486 7.03059 6.53349 7.03193 6.53211C7.87678 5.68549 7.87678 4.31474 7.03193 3.46811Z" fill="#666CF7"/>
</g>
<defs>
<clipPath id="clip0_2275_4653">
<rect width="10" height="10" fill="white" transform="translate(0 0.5)"/>
</clipPath>
</defs>
</svg>
