<svg width="15" height="15" viewBox="0 0 15 15" fill="none" xmlns="http://www.w3.org/2000/svg">
<path d="M11.9625 8.0875C11.9875 7.9 12 7.70625 12 7.5C12 7.3 11.9875 7.1 11.9563 6.9125L13.225 5.925C13.3375 5.8375 13.3688 5.66875 13.3 5.54375L12.1 3.46875C12.025 3.33125 11.8688 3.2875 11.7313 3.33125L10.2375 3.93125C9.92501 3.69375 9.59376 3.49375 9.22501 3.34375L9.00001 1.75625C8.97501 1.60625 8.85001 1.5 8.70001 1.5H6.30001C6.15001 1.5 6.03126 1.60625 6.00626 1.75625L5.78126 3.34375C5.41251 3.49375 5.07501 3.7 4.76876 3.93125L3.27501 3.33125C3.13751 3.28125 2.98126 3.33125 2.90626 3.46875L1.71251 5.54375C1.63751 5.675 1.66251 5.8375 1.78751 5.925L3.05626 6.9125C3.02501 7.1 3.00001 7.30625 3.00001 7.5C3.00001 7.69375 3.01251 7.9 3.04376 8.0875L1.77501 9.075C1.66251 9.1625 1.63126 9.33125 1.70001 9.45625L2.90001 11.5313C2.97501 11.6688 3.13126 11.7125 3.26876 11.6688L4.76251 11.0688C5.07501 11.3063 5.40626 11.5063 5.77501 11.6563L6.00001 13.2438C6.03126 13.3938 6.15001 13.5 6.30001 13.5H8.70001C8.85001 13.5 8.97501 13.3938 8.99376 13.2438L9.21876 11.6563C9.58751 11.5063 9.92501 11.3063 10.2313 11.0688L11.725 11.6688C11.8625 11.7188 12.0188 11.6688 12.0938 11.5313L13.2938 9.45625C13.3688 9.31875 13.3375 9.1625 13.2188 9.075L11.9625 8.0875ZM7.50001 9.75C6.26251 9.75 5.25001 8.7375 5.25001 7.5C5.25001 6.2625 6.26251 5.25 7.50001 5.25C8.73751 5.25 9.75001 6.2625 9.75001 7.5C9.75001 8.7375 8.73751 9.75 7.50001 9.75Z" fill="#758AF8"/>
</svg>
