<svg width="15" height="15" viewBox="0 0 15 15" fill="none" xmlns="http://www.w3.org/2000/svg">
<path d="M9.25 8.75H8.975C8.87156 8.75019 8.77903 8.68566 8.7435 8.5885C8.713 8.5085 8.68025 8.43025 8.645 8.35275C8.60119 8.2585 8.62119 8.14691 8.695 8.07375L8.891 7.8775C9.18197 7.58397 9.18144 7.11059 8.88975 6.81775L8.18325 6.11125C7.89003 5.81975 7.41647 5.81975 7.12325 6.11125L6.92725 6.307C6.85394 6.38053 6.74253 6.4005 6.64825 6.357C6.57075 6.32175 6.4925 6.289 6.41225 6.257C6.31459 6.22172 6.24963 6.12884 6.25 6.025V5.75C6.25 5.33578 5.91422 5 5.5 5H4.5C4.08578 5 3.75 5.33578 3.75 5.75V6.025C3.75019 6.12844 3.68566 6.22097 3.5885 6.2565C3.5085 6.287 3.43025 6.31975 3.35275 6.355C3.25847 6.39859 3.14703 6.37862 3.07375 6.305L2.8775 6.109C2.58431 5.81769 2.11094 5.81769 1.81775 6.109L1.11125 6.81775C0.81975 7.11097 0.81975 7.58453 1.11125 7.87775L1.307 8.07375C1.38081 8.14691 1.40081 8.2585 1.357 8.35275C1.32175 8.43025 1.289 8.5085 1.25825 8.58875C1.22247 8.68647 1.12906 8.75106 1.025 8.75H0.75C0.335781 8.75 0 9.08578 0 9.5V10.5C0 10.9142 0.335781 11.25 0.75 11.25H1.025C1.12844 11.2498 1.22097 11.3143 1.2565 11.4115C1.287 11.4915 1.31975 11.5698 1.355 11.6473C1.39881 11.7415 1.37881 11.8531 1.305 11.9263L1.109 12.1225C0.817688 12.4157 0.817688 12.8891 1.109 13.1823L1.8155 13.8888C2.10872 14.1803 2.58228 14.1803 2.8755 13.8888L3.0715 13.693C3.14481 13.6195 3.25622 13.5995 3.3505 13.643C3.428 13.6782 3.50625 13.711 3.5865 13.743C3.68466 13.7779 3.75019 13.8708 3.75 13.975V14.25C3.75 14.6642 4.08578 15 4.5 15H5.5C5.91422 15 6.25 14.6642 6.25 14.25V13.975C6.24981 13.8716 6.31434 13.779 6.4115 13.7435C6.4915 13.713 6.56975 13.6803 6.64725 13.645C6.74153 13.6014 6.85297 13.6214 6.92625 13.695L7.1225 13.891C7.41609 14.1818 7.88934 14.1813 8.18225 13.8897L8.88875 13.1833C9.18025 12.89 9.18025 12.4165 8.88875 12.1233L8.693 11.9272C8.61919 11.8541 8.59919 11.7425 8.643 11.6482C8.67825 11.5707 8.711 11.4925 8.743 11.4122C8.77828 11.3146 8.87116 11.2496 8.975 11.25H9.25C9.66422 11.25 10 10.9142 10 10.5V9.5C10 9.08578 9.66422 8.75 9.25 8.75ZM9.5 10.5C9.5 10.6381 9.38806 10.75 9.25 10.75H8.975C8.66422 10.7512 8.38609 10.9432 8.275 11.2335C8.2485 11.3035 8.21984 11.3724 8.189 11.4403C8.06047 11.724 8.12009 12.0576 8.339 12.2793L8.5345 12.475C8.63219 12.5726 8.63228 12.7309 8.53469 12.8286C8.53462 12.8286 8.53456 12.8287 8.5345 12.8287L7.828 13.5352C7.73038 13.6328 7.57212 13.6328 7.4745 13.5352L7.2785 13.3395C7.05697 13.1204 6.72322 13.0608 6.4395 13.1895C6.37175 13.2203 6.30275 13.249 6.23325 13.2755C5.94322 13.3866 5.75125 13.6644 5.75 13.975V14.25C5.75 14.3881 5.63806 14.5 5.5 14.5H4.5C4.36194 14.5 4.25 14.3881 4.25 14.25V13.975C4.24884 13.6642 4.05675 13.3861 3.7665 13.275C3.6965 13.2485 3.62759 13.2198 3.55975 13.189C3.276 13.0605 2.94241 13.1202 2.72075 13.339L2.525 13.5345C2.42744 13.6322 2.26912 13.6323 2.17144 13.5347C2.17138 13.5346 2.17131 13.5346 2.17125 13.5345L1.46475 12.8287C1.36716 12.7311 1.36716 12.5729 1.46475 12.4753L1.6605 12.2793C1.87941 12.0576 1.93903 11.724 1.8105 11.4403C1.77975 11.3725 1.751 11.3035 1.7245 11.234C1.61369 10.9437 1.33575 10.7514 1.025 10.75H0.75C0.611938 10.75 0.5 10.6381 0.5 10.5V9.5C0.5 9.36194 0.611938 9.25 0.75 9.25H1.025C1.33578 9.24884 1.61391 9.05675 1.725 8.7665C1.7515 8.6965 1.78016 8.62759 1.811 8.55975C1.93953 8.276 1.87988 7.94237 1.661 7.72075L1.4645 7.525C1.36681 7.42744 1.36672 7.26912 1.46431 7.17144C1.46438 7.17137 1.46444 7.17131 1.4645 7.17125L2.171 6.46475C2.26863 6.36716 2.42687 6.36716 2.5245 6.46475L2.7205 6.6605C2.94203 6.87959 3.27578 6.93925 3.5595 6.8105C3.62725 6.77975 3.69625 6.751 3.76575 6.7245C4.05619 6.61378 4.24859 6.33581 4.25 6.025V5.75C4.25 5.61194 4.36194 5.5 4.5 5.5H5.5C5.63806 5.5 5.75 5.61194 5.75 5.75V6.025C5.75116 6.33578 5.94325 6.61391 6.2335 6.725C6.3035 6.7515 6.37241 6.78016 6.44025 6.811C6.72397 6.93975 7.05772 6.88009 7.27925 6.661L7.475 6.4655C7.573 6.36856 7.73075 6.36856 7.82875 6.4655L8.53525 7.172C8.63284 7.26962 8.63284 7.42787 8.53525 7.5255L8.3395 7.7215C8.12063 7.94313 8.06097 8.27675 8.1895 8.5605C8.22025 8.62825 8.249 8.69725 8.2755 8.76675C8.38656 9.05678 8.66444 9.24875 8.975 9.25H9.25C9.38806 9.25 9.5 9.36194 9.5 9.5V10.5Z" fill="black"/>
<path d="M7.24502 9.9C7.24252 9.84 7.23827 9.78026 7.23102 9.72075C7.22302 9.65675 7.21352 9.59325 7.20027 9.531C7.19152 9.49025 7.18002 9.45 7.16902 9.4095C7.15502 9.358 7.13927 9.30725 7.12177 9.25725C7.10952 9.2225 7.09677 9.188 7.08377 9.15375C7.05158 9.07369 7.01477 8.99553 6.97352 8.91975C6.97026 8.914 6.96827 8.90775 6.96502 8.902C6.89998 8.78625 6.82467 8.67653 6.74002 8.57425C6.73276 8.56525 6.72452 8.55675 6.71702 8.548C6.68252 8.50725 6.64702 8.46775 6.60977 8.43C6.59027 8.40975 6.56977 8.39075 6.54927 8.37125C6.52427 8.348 6.49926 8.325 6.47427 8.303C6.44392 8.27666 6.41301 8.25116 6.38152 8.2265L6.34052 8.196C5.95367 7.90625 5.48333 7.74975 5.00002 7.75C4.97502 7.75 4.95002 7.75375 4.92502 7.75475C4.87177 7.75625 4.81827 7.75925 4.76452 7.76475C4.73627 7.76775 4.70777 7.771 4.67952 7.775C4.59802 7.78572 4.51714 7.80084 4.43727 7.82025C3.23348 8.13131 2.5098 9.35938 2.82086 10.5632C3.02586 11.3564 3.64561 11.9757 4.43902 12.18C4.44302 12.18 4.44726 12.1813 4.45151 12.1823C4.53786 12.2038 4.62533 12.2205 4.71352 12.2323C4.77176 12.2395 4.83002 12.241 4.88852 12.2438C4.92752 12.2458 4.96352 12.2515 5.00427 12.2515C5.07552 12.2515 5.14951 12.2468 5.22501 12.2393C5.23302 12.2393 5.24102 12.237 5.25002 12.236C5.31077 12.2293 5.37227 12.2203 5.43501 12.2078C5.46002 12.203 5.48326 12.1968 5.50726 12.1913C5.55127 12.181 5.59502 12.1703 5.64001 12.157C5.67501 12.1465 5.70902 12.1343 5.74326 12.1223C5.77751 12.1103 5.81301 12.0973 5.84852 12.0838C5.88401 12.0703 5.91377 12.0548 5.94602 12.0398C5.98802 12.0205 6.02977 12.0015 6.07102 11.979H6.07252C6.30583 11.8541 6.52133 11.6985 6.71327 11.5163C6.76511 11.4679 6.8102 11.4127 6.84727 11.3523C7.04239 11.0394 7.17058 10.6896 7.22377 10.3248C7.23077 10.2765 7.23702 10.2283 7.24077 10.179C7.24427 10.1338 7.24677 10.0888 7.24777 10.0438C7.24777 10.0295 7.24977 10.016 7.24977 10.0018C7.25002 9.96651 7.24652 9.93401 7.24502 9.9ZM6.74677 10.0638C6.74677 10.0845 6.74502 10.1053 6.74377 10.1258C6.73927 10.1863 6.73152 10.2468 6.72127 10.3075C6.62783 10.8273 6.30511 11.2773 5.84277 11.5325C5.81177 11.5488 5.78127 11.564 5.75077 11.578L5.73002 11.588C5.58477 11.6539 5.43145 11.7004 5.27402 11.726C5.26302 11.7278 5.25177 11.7298 5.24051 11.7313C5.20926 11.7358 5.17851 11.7395 5.14801 11.7423C5.10776 11.7458 5.06727 11.7478 5.02602 11.7485C5.00852 11.7485 4.99127 11.7485 4.97377 11.7485C4.91461 11.7478 4.85555 11.7442 4.79677 11.7375L4.76676 11.734C4.69801 11.725 4.62983 11.7122 4.56252 11.6955C3.6262 11.4559 3.06145 10.5025 3.30108 9.56622C3.45942 8.94753 3.94223 8.46422 4.56077 8.30525V8.305C4.70439 8.26878 4.85189 8.25028 5.00002 8.25C5.07148 8.25041 5.14289 8.25525 5.21376 8.2645C5.23276 8.26675 5.25151 8.27025 5.27026 8.273C5.32427 8.2815 5.37777 8.29225 5.43052 8.30575C5.44777 8.31025 5.46501 8.31425 5.48201 8.319C5.61495 8.35738 5.74292 8.41125 5.86327 8.4795C5.88251 8.49075 5.90127 8.5025 5.92027 8.51425C5.95977 8.53925 5.99802 8.56425 6.03577 8.59275C6.05602 8.6075 6.07652 8.622 6.09602 8.63775C6.14508 8.67694 6.19205 8.71866 6.23677 8.76275C6.25452 8.78075 6.27077 8.8005 6.28802 8.81925C6.31677 8.8505 6.34477 8.8825 6.37152 8.91625C6.39002 8.9395 6.40777 8.9635 6.42527 8.98775C6.45027 9.02375 6.47527 9.06125 6.49777 9.09925C6.51027 9.12 6.52277 9.14025 6.53552 9.1615C6.56777 9.22085 6.59648 9.28204 6.62152 9.34475C6.63152 9.36975 6.64002 9.39475 6.64902 9.41975C6.66527 9.46575 6.67927 9.51225 6.69152 9.55925C6.69777 9.58425 6.70477 9.6065 6.71002 9.63075C6.72461 9.69832 6.7352 9.76669 6.74177 9.83551C6.74326 9.85375 6.74327 9.87226 6.74452 9.89051C6.74802 9.94801 6.74902 10.0058 6.74677 10.0638Z" fill="black"/>
<path d="M14.25 5.25H13.4638C13.3589 5.25106 13.2651 5.18503 13.2308 5.086C13.1532 4.85378 13.0594 4.62728 12.95 4.40825C12.9036 4.31366 12.9229 4.19994 12.998 4.126L13.5555 3.56775C13.8481 3.27491 13.8481 2.80034 13.5555 2.5075L12.4925 1.44625C12.1997 1.15363 11.7251 1.15363 11.4323 1.44625L10.875 2.00325C10.8012 2.07831 10.6876 2.09775 10.593 2.0515C10.3739 1.94153 10.1474 1.84722 9.91501 1.76925C9.81557 1.73522 9.74907 1.64134 9.75001 1.53625V0.75C9.75001 0.335781 9.41423 0 9.00001 0H7.50001C7.08579 0 6.75001 0.335781 6.75001 0.75V1.53625C6.75108 1.64109 6.68508 1.73488 6.58601 1.76925C6.35376 1.84719 6.12726 1.94144 5.90826 2.05125C5.81367 2.09784 5.69989 2.0785 5.62601 2.00325L5.06776 1.44575C4.77458 1.15397 4.3007 1.15397 4.00751 1.44575L2.94651 2.50675C2.65373 2.79963 2.65373 3.27437 2.94651 3.56725L3.76626 4.3885C3.86542 4.48456 4.0237 4.48206 4.11976 4.38287C4.21348 4.28613 4.2137 4.1325 4.12026 4.0355L3.30001 3.2145C3.20242 3.11687 3.20242 2.95863 3.30001 2.861L4.36101 1.8C4.45864 1.70241 4.61689 1.70241 4.71451 1.8L5.27301 2.3575C5.49898 2.58481 5.84523 2.64163 6.13201 2.4985C6.33004 2.39934 6.53479 2.31422 6.74476 2.24375C7.04783 2.14116 7.25133 1.85622 7.25001 1.53625V0.75C7.25001 0.611938 7.36195 0.5 7.50001 0.5H9.00001C9.13807 0.5 9.25001 0.611938 9.25001 0.75V1.53625C9.24873 1.85616 9.45223 2.141 9.75526 2.2435C9.96532 2.314 10.1702 2.39919 10.3683 2.4985C10.6551 2.64088 11.0009 2.584 11.227 2.35725L11.7855 1.8C11.8831 1.70241 12.0414 1.70241 12.139 1.8L13.2 2.86125C13.2974 2.95884 13.2974 3.11691 13.2 3.2145L12.6425 3.773C12.4154 3.99909 12.3586 4.34519 12.5015 4.632C12.6007 4.83003 12.6858 5.03478 12.7563 5.24475C12.8588 5.54787 13.1438 5.75138 13.4638 5.75H14.25C14.3881 5.75 14.5 5.86194 14.5 6V7.5C14.5 7.63806 14.3881 7.75 14.25 7.75H13.4638C13.1439 7.74872 12.859 7.95222 12.7565 8.25525C12.686 8.46531 12.6008 8.67016 12.5015 8.86825C12.3589 9.15506 12.4158 9.50097 12.6428 9.727L13.2003 10.2855C13.2979 10.3831 13.2979 10.5414 13.2003 10.639L12.1388 11.7C12.0412 11.7974 11.8831 11.7974 11.7855 11.7L10.964 10.8802C10.8679 10.7811 10.7097 10.7786 10.6105 10.8746C10.5113 10.9707 10.5088 11.129 10.6049 11.2281C10.6069 11.2302 10.6089 11.2323 10.611 11.2343L11.4323 12.054C11.7251 12.3466 12.1997 12.3466 12.4925 12.054L13.5535 10.9932C13.8463 10.7004 13.8463 10.2256 13.5535 9.93275L12.9968 9.375C12.9218 9.30112 12.9024 9.18759 12.9485 9.093C13.0585 8.87394 13.1528 8.64738 13.2308 8.415C13.2648 8.31556 13.3587 8.24906 13.4638 8.25H14.25C14.6642 8.25 15 7.91422 15 7.5V6C15 5.58578 14.6642 5.25 14.25 5.25Z" fill="black"/>
<path d="M10.548 4.45199C9.27807 3.18471 7.22194 3.18471 5.952 4.45199C5.8561 4.5513 5.85885 4.70958 5.95816 4.80549C6.05503 4.89905 6.20863 4.89905 6.3055 4.80549C7.37222 3.72436 9.11338 3.71271 10.1945 4.77942C11.2756 5.84614 11.2873 7.5873 10.2206 8.66842C10.2119 8.67717 10.2033 8.68586 10.1945 8.69449C10.0952 8.79042 10.0924 8.94867 10.1884 9.04799C10.2843 9.1473 10.4426 9.15005 10.5419 9.05411C10.5439 9.05211 10.546 9.05005 10.548 9.04799C11.8153 7.77805 11.8153 5.72192 10.548 4.45199Z" fill="black"/>
</svg>
