<svg width="21" height="20" viewBox="0 0 21 20" fill="none" xmlns="http://www.w3.org/2000/svg">
<g clip-path="url(#clip0_575_712)">
<path d="M16.0202 10.0385C15.5539 10.0385 15.1771 10.4118 15.1771 10.8717V17.5385C15.1771 17.9976 14.7993 18.3717 14.3339 18.3717H2.52951C2.06403 18.3717 1.68639 17.9976 1.68639 17.5385V5.87173C1.68639 5.4126 2.06403 5.03845 2.52951 5.03845H9.27492C9.74118 5.03845 10.118 4.66507 10.118 4.20517C10.118 3.74512 9.74118 3.37173 9.27492 3.37173H2.52951C1.13491 3.37173 0 4.49341 0 5.87173V17.5385C0 18.9168 1.13491 20.0385 2.52951 20.0385H14.3339C15.7285 20.0385 16.8635 18.9168 16.8635 17.5385V10.8717C16.8635 10.4109 16.4864 10.0385 16.0202 10.0385Z" fill="#92A2F8"/>
<path d="M7.90549 9.27933C7.84651 9.33762 7.80683 9.41177 7.79 9.49173L7.19391 12.4385C7.16612 12.5751 7.20996 12.7159 7.30939 12.8151C7.38952 12.8943 7.49743 12.9367 7.60798 12.9367C7.63484 12.9367 7.66279 12.9343 7.69058 12.9285L10.6712 12.3393C10.7538 12.3225 10.8288 12.2835 10.887 12.225L17.5582 5.63171L14.5776 2.686L7.90549 9.27933Z" fill="#92A2F8"/>
<path d="M19.6188 0.648491C18.7969 -0.16404 17.4595 -0.16404 16.6382 0.648491L15.4713 1.80175L18.4519 4.74761L19.6188 3.5942C20.0168 3.20174 20.2361 2.67837 20.2361 2.12173C20.2361 1.56509 20.0168 1.04171 19.6188 0.648491Z" fill="#92A2F8"/>
</g>
<defs>
<clipPath id="clip0_575_712">
<rect width="20.2361" height="20" fill="white"/>
</clipPath>
</defs>
</svg>
