<svg width="26" height="25" viewBox="0 0 26 25" fill="none" xmlns="http://www.w3.org/2000/svg">
<rect width="26" height="25" rx="5" fill="#728CE1"/>
<path fill-rule="evenodd" clip-rule="evenodd" d="M15.5 5.5C15.5 6.88125 14.3813 8 13 8C11.6188 8 10.5 6.88125 10.5 5.5C10.5 4.11875 11.6188 3 13 3C14.3813 3 15.5 4.11875 15.5 5.5ZM8 11.75C8 10.0875 11.3313 9.25 13 9.25C14.6687 9.25 18 10.0875 18 11.75V13H8V11.75ZM12.5294 15.5449V14H13.4706V15.5449H19.5882V18.2724H21V21H17.2353V18.2724H18.6471V16.4541H13.4706V18.2724H14.8824V21H11.1176V18.2724H12.5294V16.4541H7.35294V18.2724H8.76471V21H5V18.2724H6.41176V15.5449H12.5294Z" fill="white"/>
</svg>
