<svg width="20" height="20" viewBox="0 0 20 20" fill="none" xmlns="http://www.w3.org/2000/svg">
<g clip-path="url(#clip0_575_706)">
<path d="M16.276 1.25523H14.2682V1.92449C14.2682 2.89375 13.4797 3.6823 12.5104 3.6823H7.48956C6.5203 3.6823 5.73175 2.89375 5.73175 1.92449V1.25523H3.72394C3.40034 1.25523 3.138 1.51758 3.138 1.84117V19.4141C3.138 19.7377 3.40034 20 3.72394 20H16.276C16.5996 20 16.862 19.7377 16.862 19.4141V1.84117C16.862 1.51758 16.5996 1.25523 16.276 1.25523ZM7.9039 14.6065C8.13272 14.8353 8.13272 15.2063 7.9039 15.4352C7.67511 15.664 7.30409 15.6639 7.07526 15.4352L6.86198 15.2219L6.6487 15.4352C6.41991 15.664 6.0489 15.6639 5.82007 15.4352C5.59124 15.2063 5.59124 14.8353 5.82007 14.6065L6.03335 14.3932L5.82007 14.18C5.59124 13.9512 5.59124 13.5802 5.82007 13.3513C6.04886 13.1225 6.41987 13.1225 6.6487 13.3513L6.86198 13.5646L7.07526 13.3513C7.30405 13.1225 7.67507 13.1225 7.9039 13.3513C8.13272 13.5802 8.13272 13.9511 7.9039 14.18L7.69062 14.3932L7.9039 14.6065ZM8.53147 10.4143L7.27628 11.6695C7.1664 11.7794 7.01737 11.8412 6.86198 11.8412C6.70659 11.8412 6.55753 11.7795 6.44769 11.6695L5.82007 11.0419C5.59124 10.8131 5.59124 10.4421 5.82007 10.2133C6.04886 9.98449 6.41987 9.98449 6.6487 10.2133L6.86202 10.4266L7.70288 9.5857C7.93167 9.35691 8.30269 9.35683 8.53151 9.5857C8.76034 9.81449 8.76034 10.1855 8.53147 10.4143ZM8.53147 6.64867L7.27628 7.9039C7.16187 8.01832 7.0119 8.07554 6.86198 8.07554C6.71206 8.07554 6.56206 8.01836 6.44769 7.90394L5.82007 7.27633C5.59128 7.04754 5.59124 6.67656 5.82003 6.44769C6.0489 6.2189 6.41987 6.21883 6.6487 6.44769L6.86202 6.66097L7.70288 5.82008C7.93167 5.59129 8.30269 5.59121 8.53151 5.82008C8.76034 6.04887 8.76034 6.41984 8.53147 6.64867ZM13.7656 14.9792H10.6276C10.304 14.9792 10.0416 14.7168 10.0416 14.3932C10.0416 14.0696 10.304 13.8073 10.6276 13.8073H13.7656C14.0892 13.8073 14.3515 14.0696 14.3515 14.3932C14.3515 14.7168 14.0892 14.9792 13.7656 14.9792ZM13.7656 11.2135H10.6276C10.304 11.2135 10.0416 10.9512 10.0416 10.6276C10.0416 10.304 10.304 10.0416 10.6276 10.0416H13.7656C14.0892 10.0416 14.3515 10.304 14.3515 10.6276C14.3515 10.9512 14.0892 11.2135 13.7656 11.2135ZM13.7656 7.44793H10.6276C10.304 7.44793 10.0416 7.18558 10.0416 6.86199C10.0416 6.5384 10.304 6.27605 10.6276 6.27605H13.7656C14.0892 6.27605 14.3515 6.5384 14.3515 6.86199C14.3515 7.18558 14.0892 7.44793 13.7656 7.44793Z" fill="#92A2F8"/>
<path d="M7.48956 2.51043H12.5104C12.834 2.51043 13.0963 2.24809 13.0963 1.92449V0.585938C13.0963 0.262344 12.834 0 12.5104 0H7.48956C7.16597 0 6.90363 0.262344 6.90363 0.585938V1.92449C6.90363 2.24809 7.16597 2.51043 7.48956 2.51043Z" fill="#92A2F8"/>
</g>
<defs>
<clipPath id="clip0_575_706">
<rect width="20" height="20" fill="white"/>
</clipPath>
</defs>
</svg>
