<svg width="15" height="15" viewBox="0 0 15 15" fill="none" xmlns="http://www.w3.org/2000/svg">
<path d="M14.3665 11.3916H6.12671C5.87391 11.3916 5.66895 11.5966 5.66895 11.8494V12.7649C5.66895 13.0177 5.87391 13.2227 6.12671 13.2227H14.3665C14.6193 13.2227 14.8242 13.0177 14.8242 12.7649V11.8494C14.8242 11.5966 14.6193 11.3916 14.3665 11.3916Z" fill="#6590E2"/>
<path d="M14.3665 6.81396H6.12671C5.87391 6.81396 5.66895 7.01893 5.66895 7.27173V8.18726C5.66895 8.44006 5.87391 8.64502 6.12671 8.64502H14.3665C14.6193 8.64502 14.8242 8.44006 14.8242 8.18726V7.27173C14.8242 7.0189 14.6193 6.81396 14.3665 6.81396Z" fill="#6590E2"/>
<path d="M14.3665 2.23633H6.12671C5.87391 2.23633 5.66895 2.44129 5.66895 2.69409V3.60962C5.66895 3.86242 5.87391 4.06738 6.12671 4.06738H14.3665C14.6193 4.06738 14.8242 3.86242 14.8242 3.60962V2.69409C14.8242 2.44126 14.6193 2.23633 14.3665 2.23633Z" fill="#6590E2"/>
<path d="M2.00687 10.9336C1.24899 10.9336 0.616699 11.5487 0.616699 12.3069C0.616699 13.0651 1.24954 13.6802 2.00687 13.6802C2.76531 13.6802 3.38016 13.0653 3.38016 12.3069C3.38016 11.5484 2.76531 10.9336 2.00687 10.9336Z" fill="#6590E2"/>
<path d="M4.17004 5.97548C4.03618 5.84119 3.81883 5.84081 3.6845 5.97463C3.68421 5.97493 3.68395 5.97519 3.68365 5.97548L1.86174 7.79851L1.21229 7.16622C1.07843 7.03193 0.861079 7.03155 0.726753 7.16537C0.72646 7.16567 0.726196 7.16593 0.725903 7.16622L0.276753 7.61514C0.142457 7.749 0.142076 7.96635 0.275904 8.10067C0.276197 8.10097 0.27646 8.10123 0.276753 8.10152L1.63487 9.46052C1.7759 9.59464 1.99736 9.59464 2.13842 9.46052L2.5876 9.01163L4.65326 6.94541C4.78671 6.81229 4.78785 6.59646 4.65584 6.4619L4.17004 5.97548Z" fill="#6590E2"/>
<path d="M4.17004 1.4208C4.03618 1.2865 3.81883 1.28612 3.6845 1.41995C3.68421 1.42024 3.68395 1.4205 3.68365 1.4208L1.86174 3.23211L1.21229 2.59924C1.07843 2.46494 0.861079 2.46456 0.726753 2.59839C0.72646 2.59868 0.726196 2.59894 0.725903 2.59924L0.276753 3.049C0.142457 3.18286 0.142076 3.40021 0.275904 3.53454L0.276753 3.53539L1.63832 4.89151C1.77948 5.02569 2.00102 5.02569 2.14214 4.89151L2.58819 4.44462L4.65385 2.37924C4.78779 2.24518 4.78893 2.02833 4.65642 1.89286L4.17004 1.4208Z" fill="#6590E2"/>
</svg>
