<svg width="15" height="15" viewBox="0 0 15 15" fill="none" xmlns="http://www.w3.org/2000/svg">
<path d="M6.25 1.25L5.625 1.875H2.5V3.125H3.125V12.5C3.125 12.8264 3.24458 13.1591 3.48022 13.3948C3.71587 13.6304 4.04861 13.75 4.375 13.75H10.625C10.9514 13.75 11.2841 13.6304 11.5198 13.3948C11.7554 13.1591 11.875 12.8264 11.875 12.5V3.125H12.5V1.875H9.375L8.75 1.25H6.25ZM4.375 3.125H10.625V12.5H4.375V3.125ZM5.625 4.375V11.25H6.875V4.375H5.625ZM8.125 4.375V11.25H9.375V4.375H8.125Z" fill="#758AF8"/>
</svg>
