<svg width="15" height="15" viewBox="0 0 15 15" fill="none" xmlns="http://www.w3.org/2000/svg">
<rect width="15" height="15" rx="2" fill="#758AF8"/>
<path d="M6.7 3L6.25 3.45H4V4.35H4.45V11.1C4.45 11.335 4.5361 11.5746 4.70576 11.7442C4.87543 11.9139 5.115 12 5.35 12H9.85C10.085 12 10.3246 11.9139 10.4942 11.7442C10.6639 11.5746 10.75 11.335 10.75 11.1V4.35H11.2V3.45H8.95L8.5 3H6.7ZM5.35 4.35H9.85V11.1H5.35V4.35ZM6.25 5.25V10.2H7.15V5.25H6.25ZM8.05 5.25V10.2H8.95V5.25H8.05Z" fill="white"/>
</svg>
