<svg width="25" height="25" viewBox="0 0 25 25" fill="none" xmlns="http://www.w3.org/2000/svg">
<g clip-path="url(#clip0_2455_1350)">
<path d="M12.6459 10.3437H12.6355L7.53129 8.60417C7.51045 8.51042 7.51045 8.41667 7.51045 8.33333C7.51045 8.23958 7.52087 8.15625 7.55212 8.07292C7.63545 7.83333 7.7917 7.57292 8.01045 7.38542V5.10417C8.01045 3.41667 8.61462 2.75 9.23962 2.36458C9.56254 1.38542 10.9063 0 13.5417 0C16.6667 0 19.0209 3.09375 19.0209 5.10417C19.0209 5.9375 19.0521 6.59375 19.0834 7.09375C19.0834 7.19792 19.0938 7.29167 19.0938 7.375C19.323 7.58333 19.4792 7.86458 19.5521 8.13542C19.5625 8.19792 19.573 8.26042 19.573 8.33333C19.573 9.14583 19.1146 10.3229 19.0521 10.4583C18.9896 10.6354 18.8542 10.7812 18.6771 10.8646C18.6667 10.9062 18.6563 10.9687 18.6563 11.0937C18.6563 12.1979 17.7084 13.2396 17.1875 13.7396C17.2396 14.8854 17.5625 15.6771 18.0209 15.875L22.1042 17.2292C23.2605 17.6146 24.125 18.5521 24.4271 19.7396L24.9792 21.9479C25.0313 22.1771 24.9792 22.4271 24.8334 22.6146C24.6875 22.8021 24.4584 22.9167 24.2188 22.9167H12.5417C12.8542 22.5208 13.1459 22.0833 13.4167 21.6146C14.1042 20.3958 14.5834 18.9167 14.5834 17.2396V13.0625C14.5834 11.8333 13.8021 10.75 12.6459 10.3437Z" fill="#758AF8"/>
<path d="M0.53021 12.3187L5.99896 10.4583C6.16146 10.4021 6.33854 10.4021 6.50104 10.4583L11.9698 12.3187C12.2875 12.426 12.5 12.7229 12.5 13.0583V17.2437C12.5 22.3521 6.79792 24.8354 6.55521 24.9385C6.35937 25.0208 6.14063 25.0208 5.94479 24.9385C5.70208 24.8344 0 22.3521 0 17.2437V13.0583C0 12.7229 0.212502 12.426 0.53021 12.3187ZM2.82708 16.2687L5.69167 19.9146C6.05625 20.3802 6.73958 20.4479 7.18854 20.0625L9.01146 18.5C9.44896 18.126 9.5 17.4677 9.12396 17.0312C8.75 16.5948 8.09167 16.5448 7.65625 16.9187L6.65833 17.7739L4.46563 14.9833C4.11042 14.5312 3.45625 14.451 3.00313 14.8083C2.55 15.1614 2.47083 15.8167 2.82708 16.2687Z" fill="#758AF8"/>
</g>
<defs>
<clipPath id="clip0_2455_1350">
<rect width="25" height="25" fill="white" transform="matrix(-1 0 0 1 25 0)"/>
</clipPath>
</defs>
</svg>
