<svg width="10" height="10" viewBox="0 0 10 10" fill="none" xmlns="http://www.w3.org/2000/svg">
<path d="M5.00065 5.19275C6.42924 5.19275 7.59703 4.02496 7.59703 2.59638C7.59703 1.1678 6.42924 0 5.00065 0C3.57207 0 2.4043 1.1678 2.4043 2.59638C2.4043 4.02496 3.57209 5.19275 5.00065 5.19275Z" fill="#7D8599"/>
<path d="M9.45652 7.26752C9.38848 7.09744 9.29779 6.93872 9.19575 6.79132C8.6742 6.02034 7.86923 5.51013 6.96219 5.38542C6.84883 5.37409 6.72411 5.39674 6.6334 5.46478C6.1572 5.81626 5.59032 5.99766 5.00073 5.99766C4.41115 5.99766 3.84426 5.81626 3.36807 5.46478C3.27736 5.39674 3.15264 5.36274 3.03927 5.38542C2.13224 5.51013 1.31591 6.02034 0.805714 6.79132C0.703674 6.93872 0.612962 7.10879 0.54495 7.26752C0.510943 7.33555 0.522272 7.41491 0.556278 7.48295C0.64699 7.64167 0.760358 7.80042 0.862398 7.93647C1.02112 8.1519 1.1912 8.34463 1.38395 8.52603C1.54267 8.68475 1.72408 8.83215 1.9055 8.97955C2.80118 9.64849 3.87829 9.99995 4.9894 9.99995C6.10052 9.99995 7.17763 9.64847 8.07331 8.97955C8.25471 8.8435 8.43611 8.68475 8.59486 8.52603C8.77626 8.34463 8.95766 8.15187 9.11641 7.93647C9.22978 7.78907 9.33184 7.64167 9.42253 7.48295C9.47919 7.41491 9.49052 7.33553 9.45652 7.26752Z" fill="#7D8599"/>
</svg>
