<svg width="15" height="15" viewBox="0 0 15 15" fill="none" xmlns="http://www.w3.org/2000/svg">
<path d="M12.5 3.75H7.5L6.25 2.5H2.5C1.8125 2.5 1.25625 3.0625 1.25625 3.75L1.25 11.25C1.25 11.9375 1.8125 12.5 2.5 12.5H12.5C13.1875 12.5 13.75 11.9375 13.75 11.25V5C13.75 4.3125 13.1875 3.75 12.5 3.75ZM9.375 5.625C10.0625 5.625 10.625 6.1875 10.625 6.875C10.625 7.5625 10.0625 8.125 9.375 8.125C8.6875 8.125 8.125 7.5625 8.125 6.875C8.125 6.1875 8.6875 5.625 9.375 5.625ZM11.875 10.625H6.875V10C6.875 9.16875 8.54375 8.75 9.375 8.75C10.2063 8.75 11.875 9.16875 11.875 10V10.625Z" fill="#666CF7"/>
</svg>
