<svg width="12" height="12" viewBox="0 0 12 12" fill="none" xmlns="http://www.w3.org/2000/svg">
<path d="M9.99976 2.83832H5.99976L4.99976 1.89221H1.99976C1.44976 1.89221 1.00476 2.31796 1.00476 2.83832L0.999756 8.51497C0.999756 9.03533 1.44976 9.46107 1.99976 9.46107H9.99976C10.5498 9.46107 10.9998 9.03533 10.9998 8.51497V3.78443C10.9998 3.26407 10.5498 2.83832 9.99976 2.83832ZM7.49976 4.25748C8.04976 4.25748 8.49976 4.68323 8.49976 5.20359C8.49976 5.72395 8.04976 6.1497 7.49976 6.1497C6.94976 6.1497 6.49976 5.72395 6.49976 5.20359C6.49976 4.68323 6.94976 4.25748 7.49976 4.25748ZM9.49976 8.04191H5.49976V7.56886C5.49976 6.9397 6.83476 6.62275 7.49976 6.62275C8.16476 6.62275 9.49976 6.9397 9.49976 7.56886V8.04191Z" fill="#7D8599"/>
</svg>
