<svg width="13" height="13" viewBox="0 0 13 13" fill="none" xmlns="http://www.w3.org/2000/svg">
<path d="M0.921934 4.46875C0.939047 4.47855 1.53778 4.81886 2.03125 4.81886C2.52472 4.81886 3.14402 4.47855 3.16174 4.46875H3.39145C3.7632 4.46987 4.0625 4.76986 4.0625 5.1398V7.71875C4.0625 8.16748 3.69873 8.53125 3.25 8.53125V11.5781C3.25 11.9147 2.97718 12.1875 2.64062 12.1875H1.42188C1.08532 12.1875 0.8125 11.9147 0.8125 11.5781V8.53125C0.363771 8.53125 0 8.16748 0 7.71875V5.16095C0 4.77938 0.30875 4.46992 0.692199 4.46875H0.921934ZM5.39068 4.46875C5.4078 4.47855 6.00656 4.81886 6.5 4.81886C6.99344 4.81886 7.61277 4.47855 7.63049 4.46875H7.8602C8.23195 4.46987 8.53125 4.76986 8.53125 5.1398V7.71875C8.53125 8.16748 8.16748 8.53125 7.71875 8.53125V11.5781C7.71875 11.9147 7.44593 12.1875 7.10938 12.1875H5.89062C5.55407 12.1875 5.28125 11.9147 5.28125 11.5781V8.53125C4.83252 8.53125 4.46875 8.16748 4.46875 7.71875V5.16095C4.46875 4.77938 4.7775 4.46992 5.16095 4.46875H5.39068ZM11.5781 12.1875H10.3594C10.0228 12.1875 9.75 11.9147 9.75 11.5781V8.53125C9.30127 8.53125 8.9375 8.16748 8.9375 7.71875V5.16095C8.9375 4.77867 9.24742 4.46875 9.6297 4.46875H9.85943C9.85943 4.46875 10.4683 4.81886 10.9688 4.81886C11.4692 4.81886 12.0992 4.46875 12.0992 4.46875H12.329C12.6996 4.46875 13 4.76917 13 5.1398V7.71875C13 8.16748 12.6362 8.53125 12.1875 8.53125V11.5781C12.1875 11.9138 11.916 12.1861 11.5781 12.1875ZM2.03125 4.0625C2.92871 4.0625 3.65625 3.33496 3.65625 2.4375C3.65625 1.54004 2.92871 0.8125 2.03125 0.8125C1.13379 0.8125 0.40625 1.54004 0.40625 2.4375C0.40625 3.33496 1.13379 4.0625 2.03125 4.0625ZM6.5 4.0625C7.39746 4.0625 8.125 3.33496 8.125 2.4375C8.125 1.54004 7.39746 0.8125 6.5 0.8125C5.60254 0.8125 4.875 1.54004 4.875 2.4375C4.875 3.33496 5.60254 4.0625 6.5 4.0625ZM12.5938 2.4375C12.5938 3.33496 11.8662 4.0625 10.9688 4.0625C10.0713 4.0625 9.34375 3.33496 9.34375 2.4375C9.34375 1.54004 10.0713 0.8125 10.9688 0.8125C11.8662 0.8125 12.5938 1.54004 12.5938 2.4375Z" fill="#7D8599"/>
</svg>
