<svg width="17" height="17" viewBox="0 0 17 17" fill="none" xmlns="http://www.w3.org/2000/svg">
<path d="M8.33333 0C3.73333 0 0 3.73333 0 8.33333C0 12.9333 3.73333 16.6667 8.33333 16.6667C12.9333 16.6667 16.6667 12.9333 16.6667 8.33333C16.6667 3.73333 12.9333 0 8.33333 0ZM11.3417 5.28333C12.2333 5.28333 12.95 6 12.95 6.89167C12.95 7.78334 12.2333 8.5 11.3417 8.5C10.45 8.5 9.73333 7.78334 9.73333 6.89167C9.725 6 10.45 5.28333 11.3417 5.28333ZM6.34167 3.96667C7.425 3.96667 8.30833 4.85 8.30833 5.93333C8.30833 7.01667 7.425 7.9 6.34167 7.9C5.25833 7.9 4.375 7.01667 4.375 5.93333C4.375 4.84167 5.25 3.96667 6.34167 3.96667ZM6.34167 11.575V14.7C4.34167 14.075 2.75833 12.5333 2.05833 10.5667C2.93333 9.63334 5.11667 9.15833 6.34167 9.15833C6.78333 9.15833 7.34167 9.225 7.925 9.34167C6.55833 10.0667 6.34167 11.025 6.34167 11.575ZM8.33333 15C8.10833 15 7.89167 14.9917 7.675 14.9667V11.575C7.675 10.3917 10.125 9.8 11.3417 9.8C12.2333 9.8 13.775 10.125 14.5417 10.7583C13.5667 13.2333 11.1583 15 8.33333 15Z" fill="#758AF8"/>
</svg>
