<svg width="25" height="25" viewBox="0 0 25 25" fill="none" xmlns="http://www.w3.org/2000/svg">
<g clip-path="url(#clip0_3048_6104)">
<path d="M12.3218 12.0426C13.9762 12.0426 15.4088 11.4492 16.5794 10.2785C17.7499 9.10797 18.3433 7.67574 18.3433 6.02112C18.3433 4.36707 17.7499 2.93465 16.5792 1.76373C15.4085 0.593376 13.976 0 12.3218 0C10.6672 0 9.23494 0.593376 8.0644 1.76392C6.89386 2.93446 6.30029 4.36687 6.30029 6.02112C6.30029 7.67574 6.89386 9.10816 8.06459 10.2787C9.23532 11.4491 10.6677 12.0426 12.3218 12.0426Z" fill="white"/>
<path d="M22.8579 19.2238C22.8241 18.7366 22.7558 18.2053 22.6553 17.6441C22.5538 17.0788 22.4232 16.5443 22.2668 16.0559C22.1052 15.551 21.8855 15.0524 21.6139 14.5746C21.332 14.0787 21.0009 13.6469 20.6293 13.2915C20.2408 12.9198 19.7651 12.6209 19.215 12.4029C18.6668 12.186 18.0593 12.0762 17.4095 12.0762C17.1543 12.0762 16.9075 12.1809 16.4309 12.4912C16.1375 12.6825 15.7944 12.9038 15.4114 13.1485C15.0839 13.3572 14.6402 13.5527 14.0923 13.7297C13.5576 13.9027 13.0148 13.9904 12.479 13.9904C11.9432 13.9904 11.4006 13.9027 10.8654 13.7297C10.318 13.5528 9.87434 13.3573 9.54723 13.1487C9.16786 12.9063 8.82454 12.685 8.5268 12.491C8.05073 12.1807 7.80373 12.076 7.54852 12.076C6.8985 12.076 6.2912 12.186 5.74322 12.4031C5.19352 12.6207 4.71764 12.9196 4.32873 13.2917C3.95737 13.6473 3.62606 14.0789 3.34454 14.5746C3.07312 15.0524 2.85339 15.5508 2.69165 16.0561C2.53544 16.5445 2.40479 17.0788 2.30331 17.6441C2.2028 18.2045 2.13451 18.7361 2.10075 19.2243C2.06757 19.7027 2.05078 20.1992 2.05078 20.7006C2.05078 22.0056 2.46563 23.0621 3.28369 23.8413C4.09164 24.6101 5.16071 25.0002 6.46076 25.0002H18.4984C19.7985 25.0002 20.8672 24.6103 21.6753 23.8413C22.4936 23.0627 22.9084 22.006 22.9084 20.7004C22.9082 20.1967 22.8912 19.6999 22.8579 19.2238Z" fill="white"/>
</g>
<defs>
<clipPath id="clip0_3048_6104">
<rect width="25" height="25.0001" fill="white"/>
</clipPath>
</defs>
</svg>
