<svg width="15" height="15" viewBox="0 0 15 15" fill="none" xmlns="http://www.w3.org/2000/svg">
<path d="M7.5 0C3.35728 0 0 3.35728 0 7.5C0 9.73524 0.977362 11.7431 2.53051 13.1191C3.8563 14.2884 5.59547 15 7.5 15C9.40748 15 11.1467 14.2884 12.4695 13.1161C14.0226 11.7431 15 9.73524 15 7.5C15 3.35728 11.6427 0 7.5 0Z" fill="#D0E1FA"/>
<path d="M11.8817 12.5079C11.4978 12.2215 10.801 11.7461 10.0421 11.3947C9.28324 11.0463 8.83738 10.2284 8.95844 9.40456C8.95844 9.39274 8.96139 9.38093 8.96435 9.36617C8.96435 9.36617 10.6917 8.19688 10.4525 7.05712C10.4525 7.05712 10.5057 7.06007 10.5854 7.05416C11.3472 6.9833 11.3945 5.84944 10.6415 5.72838C10.6356 5.72838 10.6267 5.72542 10.6208 5.72542L10.5972 5.60141C10.8275 4.79531 11.3886 2.35338 9.69072 2.5896C9.69072 2.5896 8.47124 0.572869 5.89348 1.54433C3.31278 2.51283 3.986 4.82483 3.986 4.82483L4.3049 5.74609C3.611 5.91735 3.67596 6.9892 4.41415 7.05712C4.49388 7.06302 4.54998 7.06007 4.54998 7.06007C4.30785 8.19983 6.03522 9.36912 6.03522 9.36912C6.03817 9.38389 6.03817 9.3957 6.04112 9.40751C6.15923 10.2313 5.71336 11.0492 4.95746 11.3977C4.19565 11.749 3.50175 12.2274 3.11789 12.5109C2.88758 12.6792 2.68384 12.8829 2.52734 13.1221C3.85608 14.2884 5.59525 15 7.49978 15C9.40726 15 11.1464 14.2884 12.4693 13.1162C12.3157 12.8799 12.112 12.6762 11.8817 12.5079Z" fill="#758795"/>
</svg>
