<svg width="15" height="15" viewBox="0 0 15 15" fill="none" xmlns="http://www.w3.org/2000/svg">
<path d="M0.93747 1.64764C0.681836 1.64764 0.468262 1.86122 0.468262 2.11686V10.5457C0.468262 10.8013 0.681836 11.0149 0.93747 11.0149H14.062C14.3176 11.0149 14.5308 10.8013 14.5308 10.5457V2.11686C14.5308 1.86122 14.3176 1.64764 14.062 1.64764H0.93747ZM0.93747 2.11686H14.062V10.5457H0.93747V2.11686ZM7.49951 3.72404C6.06225 3.72404 4.89255 4.89422 4.89255 6.33149C4.89255 7.76876 6.06225 8.93844 7.49951 8.93844C8.93677 8.93844 10.1069 7.76876 10.1069 6.33149C10.1069 4.89422 8.93677 3.72404 7.49951 3.72404ZM7.49951 4.1928C8.68344 4.1928 9.63818 5.14756 9.63818 6.33149C9.63818 7.51542 8.68344 8.46968 7.49951 8.46968C6.31558 8.46968 5.3613 7.51542 5.3613 6.33149C5.3613 5.14756 6.31558 4.1928 7.49951 4.1928ZM6.67783 4.92478C6.54642 4.92212 6.43881 5.02866 6.43933 5.16008V7.50243C6.43863 7.6931 6.6536 7.8049 6.8092 7.69469L8.46173 6.52329C8.59332 6.42985 8.59332 6.2345 8.46173 6.14106L6.8092 4.96782C6.77073 4.94062 6.72495 4.92555 6.67783 4.92475V4.92478ZM6.90808 5.61324L7.92203 6.33149L6.90808 7.04925V5.61324ZM0.717743 12.8867H6.83209C6.92979 13.158 7.18812 13.3554 7.49127 13.3554C7.79442 13.3554 8.05321 13.158 8.15137 12.8867H14.2662C14.5857 12.8937 14.5857 12.4108 14.2662 12.4179H8.15182C8.05408 12.1462 7.79497 11.9492 7.49127 11.9492C7.18757 11.9492 6.92892 12.1462 6.83163 12.4179H0.706528C0.390077 12.4394 0.411851 12.8944 0.717743 12.8867ZM7.49127 12.3643C7.65271 12.3643 7.78012 12.4899 7.78012 12.6514C7.78012 12.8128 7.65271 12.9402 7.49127 12.9402C7.32983 12.9402 7.2038 12.8128 7.2038 12.6514C7.2038 12.4899 7.32983 12.3643 7.49127 12.3643Z" fill="black"/>
</svg>
