<svg width="13" height="13" viewBox="0 0 13 13" fill="none" xmlns="http://www.w3.org/2000/svg">
<g clip-path="url(#clip0_514_1670)">
<path d="M13.0001 3.47344H3.00635V1.04609C3.00635 0.721094 3.27041 0.457031 3.59541 0.457031H12.4009C12.7259 0.457031 12.9899 0.721094 12.9899 1.04609V3.47344H13.0001Z" fill="#41A5ED"/>
<path d="M13.0001 3.47363H3.00635V6.5002H13.0001V3.47363Z" fill="#2C7BD5"/>
<path d="M13.0001 6.5H3.00635V9.52656H13.0001V6.5Z" fill="#195ABE"/>
<path d="M12.4111 12.5428H3.60566C3.28066 12.5428 3.0166 12.2787 3.0166 11.9537V9.52637H13.0002V11.9537C13.0002 12.2787 12.7361 12.5428 12.4111 12.5428Z" fill="#103E91"/>
<path d="M6.04307 9.80078H0.660254C0.304785 9.80078 0.0102539 9.50625 0.0102539 9.15078V3.84922C0.0102539 3.49375 0.304785 3.19922 0.660254 3.19922H6.04307C6.39854 3.19922 6.69307 3.49375 6.69307 3.84922V9.15078C6.69307 9.50625 6.40869 9.80078 6.04307 9.80078Z" fill="#2166C3"/>
<path d="M1.96006 8.36875L1.05615 4.72266H1.77725L2.13271 6.37812C2.22412 6.825 2.31553 7.28203 2.37646 7.64766H2.38662C2.44756 7.26172 2.54912 6.83516 2.65068 6.36797L3.04678 4.72266H3.75771L4.12334 6.39844C4.21474 6.83516 4.29599 7.23125 4.34678 7.62734H4.35693C4.41787 7.22109 4.50928 6.81484 4.61084 6.36797L4.99678 4.72266H5.6874L4.69209 8.36875H3.96084L3.5749 6.65234C3.4835 6.24609 3.4124 5.90078 3.36162 5.50469H3.35146C3.29053 5.89063 3.21943 6.24609 3.10771 6.6625L2.68115 8.37891H1.96006V8.36875Z" fill="white"/>
<path opacity="0.2" d="M6.69316 3.78809C6.69316 3.8084 6.69316 3.82871 6.69316 3.84902V9.15058C6.69316 9.50605 6.39863 9.80058 6.04316 9.80058H3.0166V10.3795H6.5916C6.94707 10.3795 7.2416 10.085 7.2416 9.72949V4.42793C7.2416 4.10293 7.00801 3.82871 6.69316 3.78809Z" fill="black"/>
</g>
<defs>
<clipPath id="clip0_514_1670">
<rect width="13" height="13" fill="white"/>
</clipPath>
</defs>
</svg>
