<svg width="21" height="20" viewBox="0 0 21 20" fill="none" xmlns="http://www.w3.org/2000/svg">
<g clip-path="url(#clip0_575_723)">
<path d="M20.0128 16.7743C20.0128 18.4619 18.6284 19.8303 16.9207 19.8303C15.2129 19.8303 13.8286 18.4619 13.8286 16.7743C13.8286 15.0864 15.2129 13.7182 16.9207 13.7182C18.6284 13.7182 20.0128 15.0864 20.0128 16.7743Z" fill="#92A2F8"/>
<path d="M16.5771 10.439H15.8064L16.5771 11.2007V10.439Z" fill="#92A2F8"/>
<path d="M18.0349 10.439H17.2642V11.2007L18.0349 10.439Z" fill="#92A2F8"/>
<path d="M10.1671 2.76979V3.53147H10.9378L10.1671 2.76979Z" fill="#92A2F8"/>
<path d="M10.1671 4.21059V4.97211L10.9378 4.21059H10.1671Z" fill="#92A2F8"/>
<path d="M13.7194 3.87103L16.9207 6.45436L20.122 3.87103L16.9207 1.28754L13.7194 3.87103Z" fill="#92A2F8"/>
<path d="M0.77301 13.7182H6.95722V19.8303H0.77301V13.7182Z" fill="#92A2F8"/>
<path d="M3.86512 8.62485L2.26505 10.2061H3.52155V13.0391H4.20868V10.2061H5.46519L3.86512 8.62485Z" fill="#92A2F8"/>
<path d="M6.95722 3.87102C6.95722 5.5587 5.57288 6.92705 3.86511 6.92705C2.15734 6.92705 0.77301 5.5587 0.77301 3.87102C0.77301 2.18318 2.15734 0.815002 3.86511 0.815002C5.57288 0.815002 6.95722 2.18318 6.95722 3.87102Z" fill="#92A2F8"/>
<path d="M10.1671 2.76979L10.9377 3.53147H10.1671V4.21059H10.9377L10.1671 4.97211V5.45227L11.7671 3.87103L10.1671 2.28963V2.76979Z" fill="#92A2F8"/>
<path d="M16.5771 11.2007L15.8064 10.439H15.3206L16.9207 12.0204L18.5207 10.439H18.0349L17.2642 11.2007V10.439H16.5771V11.2007Z" fill="#92A2F8"/>
<path d="M16.5771 7.26662H17.2642V10.439H16.5771V7.26662Z" fill="#92A2F8"/>
<path d="M7.64435 3.53148H10.1671V4.21059H7.64435V3.53148Z" fill="#92A2F8"/>
</g>
<defs>
<clipPath id="clip0_575_723">
<rect width="20.2361" height="20" fill="white"/>
</clipPath>
</defs>
</svg>
