<svg width="13" height="12" viewBox="0 0 13 12" fill="none" xmlns="http://www.w3.org/2000/svg">
<g clip-path="url(#clip0_1050_1089)">
<path d="M12.3185 10.0553C12.3185 11.067 11.4976 11.8873 10.4849 11.8873C9.47215 11.8873 8.65125 11.067 8.65125 10.0553C8.65125 9.04355 9.47215 8.22339 10.4849 8.22339C11.4976 8.22339 12.3185 9.04355 12.3185 10.0553Z" fill="#666CF7"/>
<path d="M10.2807 6.25769H9.82416L10.2807 6.71429V6.25769Z" fill="#666CF7"/>
<path d="M11.1452 6.25769H10.6886V6.71429L11.1452 6.25769Z" fill="#666CF7"/>
<path d="M6.48004 1.6604V2.11699H6.93664L6.48004 1.6604Z" fill="#666CF7"/>
<path d="M6.48004 2.52405V2.98054L6.93664 2.52405H6.48004Z" fill="#666CF7"/>
<path d="M8.58649 2.32053L10.4849 3.8691L12.3832 2.32053L10.4849 0.771851L8.58649 2.32053Z" fill="#666CF7"/>
<path d="M0.909302 8.22339H4.57654V11.8873H0.909302V8.22339Z" fill="#666CF7"/>
<path d="M2.74297 5.17017L1.79413 6.11804H2.53923V7.8163H2.94671V6.11804H3.69181L2.74297 5.17017Z" fill="#666CF7"/>
<path d="M4.57654 2.32046C4.57654 3.33214 3.75563 4.15239 2.74292 4.15239C1.73021 4.15239 0.909302 3.33214 0.909302 2.32046C0.909302 1.30868 1.73021 0.488525 2.74292 0.488525C3.75563 0.488525 4.57654 1.30868 4.57654 2.32046Z" fill="#666CF7"/>
<path d="M6.48004 1.66039L6.93705 2.11698H6.48004V2.52408H6.93705L6.48004 2.98057V3.26841L7.42887 2.32053L6.48004 1.37256V1.66039Z" fill="#666CF7"/>
<path d="M10.2812 6.71428L9.82417 6.25769H9.53607L10.4849 7.20566L11.4338 6.25769H11.1457L10.6887 6.71428V6.25769H10.2812V6.71428Z" fill="#666CF7"/>
<path d="M10.2811 4.35596H10.6882V6.25766H10.2811V4.35596Z" fill="#666CF7"/>
<path d="M4.98401 2.11694H6.47999V2.52404H4.98401V2.11694Z" fill="#666CF7"/>
</g>
<defs>
<clipPath id="clip0_1050_1089">
<rect width="12" height="11.989" fill="white" transform="translate(0.450928)"/>
</clipPath>
</defs>
</svg>
