<svg width="19" height="19" viewBox="0 0 19 19" fill="none" xmlns="http://www.w3.org/2000/svg">
<path d="M17.7449 6.00377C17.3383 5.59691 16.692 5.57134 16.2549 5.92748C16.1917 5.97898 16.2407 5.9336 15.2783 6.89596L17.7764 9.39404L18.6742 8.50747C19.1082 8.0734 19.1082 7.36713 18.6742 6.93303L17.7449 6.00377Z" fill="#666CF7"/>
<path d="M10.1555 12.066L8.68602 15.2149C8.58705 15.427 8.63132 15.6784 8.79683 15.8439C8.96234 16.0094 9.21379 16.0536 9.42583 15.9547L12.5747 14.4852C12.6993 14.427 12.3221 14.78 16.9841 10.1763L14.491 7.68311C9.86873 12.3054 10.2148 11.939 10.1555 12.066Z" fill="#666CF7"/>
<path d="M13.5124 15.1692C13.3761 15.3038 13.2189 15.4131 13.0454 15.4941L9.89651 16.9636C9.2773 17.2526 8.52083 17.1426 8.00957 16.6312C7.51487 16.1365 7.38124 15.3782 7.67707 14.7441L9.14657 11.5952C9.2291 11.4184 9.34095 11.2587 9.47896 11.1207L14.2129 6.38675V1.66992C14.2129 0.749127 13.4638 0 12.543 0H1.66992C0.749127 0 0 0.749127 0 1.66992V17.3301C0 18.2509 0.749127 19 1.66992 19H12.543C13.4638 19 14.2129 18.2509 14.2129 17.3301V14.4774L13.5124 15.1692ZM2.96879 3.59961H11.2813C11.5887 3.59961 11.8379 3.84884 11.8379 4.15625C11.8379 4.46366 11.5887 4.71289 11.2813 4.71289H2.96879C2.66137 4.71289 2.41215 4.46366 2.41215 4.15625C2.41215 3.84884 2.66137 3.59961 2.96879 3.59961ZM2.96879 6.56836H9.50003C9.80745 6.56836 10.0567 6.81759 10.0567 7.125C10.0567 7.43241 9.80745 7.68164 9.50003 7.68164H2.96879C2.66137 7.68164 2.41215 7.43241 2.41215 7.125C2.41215 6.81759 2.66137 6.56836 2.96879 6.56836ZM2.41215 10.0938C2.41215 9.78634 2.66137 9.53711 2.96879 9.53711H7.71878C8.0262 9.53711 8.27543 9.78634 8.27543 10.0938C8.27543 10.4012 8.0262 10.6504 7.71878 10.6504H2.96879C2.66137 10.6504 2.41215 10.4012 2.41215 10.0938Z" fill="#666CF7"/>
</svg>
